<?xml version="1.0" encoding="UTF-8"?>
<svg version="1.1" viewBox="0 0 2048 1152" width="3840" height="2160" xmlns="http://www.w3.org/2000/svg">
<path transform="translate(174,307)" d="m0 0h146l-1 5-30 52-12 22-14 24-16 28-14 24-16 28-14 24-15 26-21 36 2 6 10 17 30 52 14 24 60 104 14 24 13 23 9 16-3 3h-150l-6-9-13-23-14-24-15-26-14-24-60-104-13-23-15-26-4-7 1-6 10-18 14-24 30-52 10-17 14-24 30-52 14-24 15-26 12-21 5-7z" fill="#020303"/>
<path transform="translate(382,577)" d="m0 0h251l-2 6-9 15-13 22-28 48-15 26-16 28-14 24-32 56-15 26-10 17h-155l7-14 10-17 15-26 16-28 14-24 13-23 14-24 13-23 8-14h-53v-74z" fill="#0143B9"/>
<path transform="translate(323,307)" d="m0 0h154l5 5 12 20 11 17 30 48 12 19 13 21 12 19 15 24 12 19 15 24 3 6h-155l-7-10-45-72-12-19-30-48-12-19-14-22-16-25-3-5z" fill="#0143B9"/>
<path transform="translate(972,486)" d="m0 0h104l87 1 13 5 12 6 9 8 6 12 1 4v42l-4 9-5 5-8 6-13 4-4 4-1 9 3 3 12 2 10 5 7 9 2 7v40h-72l-1-33-4-8-9-6-7-4h-69l-4 5-1 45-1 1h-66l-1-1v-179zm71 42-5 3-2 3v42l3 2h84l6-5 2-5v-21l-3 2h-4l-3-6 1-6 5-2-5-6-2-1z" fill="#020304"/>
<path transform="translate(1844,486)" d="m0 0h136l12 3 14 7 9 7 8 8v2l4 2 10 16v88l-3 14-4 7-10 9-10 5-26 8-18 3-11 1h-95l-17-2-28-6-10-5-9-7-7-10-3-14-1-30v-30l1-30 2-9 5-8 9-10 8-6 8-5 17-6zm52 39-15 2-12 5-8 6-4 6v66l3 8 5 6 6 3h72l11-4 10-9 2-5v-66l-4-6-9-6-13-5-9-1z" fill="#020303"/>
<path transform="translate(743,486)" d="m0 0h135l19 5 14 7 11 8 8 9 2 3 1 9v15l-1 1h-65l-8-10-8-6-9-3-5-1h-53l-12 3-12 7-5 6-4 8-2 10v46l2 9 5 10 8 7 11 5 11 2h45l14-4 8-6 6-7 2-5v-19h-51v-22l50-1h73v51l-2 8-7 13-10 10-14 7-11 3-14 2h-132l-21-3-13-5-6-4-12-11-8-9-5-11-2-10v-72l5-14 7-13 9-10 8-6 12-6 12-4z" fill="#020304"/>
<path transform="translate(1306,487)" d="m0 0h117l3 4 4 10 10 21 26 58 15 33 9 19 7 17 8 16 8 1v3h-88l-1-3 5-1-7-17-7-15h-101l-13 30-1 3h4l-1 3h-89v-3l10-1 8-16 8-19 3-5 8-18 7-15 16-36 13-28 11-25zm56 38-8 16-16 35-8 19 2 6 3 3h59l5-6-1-6-13-29-17-38z" fill="#020304"/>
<path transform="translate(1683,483)" d="m0 0h31v3l3 2 10 4 14 9 9 8 5 8 2 6v28h-77l-1-12-2-4-7-4-10-2-10-1h-29l-19 3-10 5-6 7v70l6 9 6 4h71l7-4 6-7 1-3 1-14h72v32l-6 11-10 10-14 7-13 4-7 1h-140l-20-4-10-4-10-6-8-9-5-10-1-4v-96l4-10 9-11 12-10 16-8 15-4 5-1h109z" fill="#020303"/>
<path transform="translate(559,307)" d="m0 0h16l10 4 8 6 6 10 2 6v14l-4 10-7 8-5 4-10 4-10 1-12-3-9-6-7-8-3-7-1-5v-10l3-9 5-8 8-7zm4 4-10 3-10 9-4 8-1 3v12l4 10 8 8 9 4 5 1h7l10-3 9-7 6-12v-14l-5-10-5-5-5-4-10-3z" fill="#0646BA"/>
<path transform="translate(557,324)" d="m0 0h19l4 6v6l-3 6h2l1 2v10h-3l-2-12h-15v12h-3zm3 4v10l1 1h13l3-3v-5l-3-3z" fill="#0D4CBC"/>
<path transform="translate(1224,665)" d="m0 0h76l4 1-1 3h-89v-3z" fill="none"/>
<path transform="translate(1429,665)" d="m0 0h76l8 1v3h-88l-1-3z" fill="none"/>
<path transform="translate(1123,535)" d="m0 0 5 1 2 3v9l-2 2-5-1-3-6 1-6z" fill="none"/>
<path transform="translate(1683,483)" d="m0 0h31v3l-5 1-27-1z" fill="none"/>
</svg>
