<?xml version="1.0" encoding="UTF-8"?>
<svg version="1.1" viewBox="0 0 4096 1520" width="6400" height="2375" xmlns="http://www.w3.org/2000/svg">
<path transform="translate(2296,361)" d="m0 0h36l26 8 22 12 15 14 10 9 17 17 11 16 7 14 7 16 3 2 10-9 7-7 9-11 7-7 7-8h2l2-4 24-24 9-11 11-12 7-8 9-7h35l26 7 23 10 17 12 9 7 15 15 14 22 8 20 4 20 1 9v48l-4 35-13 76-15 77-10 52-21 113-4 10-2 2h-126l-37-1-1-1v-21l10-61 12-72 13-81 8-49 4-30v-48l-4-11-4-6-4-5v-2l-6-2-20-10-32-7v30l-2 28-10 62-19 90-12 58-11 52-14 74-2 8-2 4-2 1h-161l-2-2v-20l6-39 8-53 10-61 8-51 15-92v-46l-5-12-6-9-12-10-14-6-13-4-18-4-1 11-24 132-13 72-24 143-9 49-3 2h-98l-66-1-1-1v-23l13-122 11-88 10-81 6-49 12-103 6-48 3-7 4-2h24l166 2v15l-3 28-5 35v4l15-13 29-29 9-11 39-39z" fill="#fff"/>
<path transform="translate(658,81)" d="m0 0 3 1 1 4v11l-7 49-13 83-7 43-6 35-10 61-6 35-8 50-6 29-5 7h-117l-69-2-1-1v-25l14-84 6-34 12-71 9-51 4-22v-6l-10 19-13 28-16 36-13 29-24 60-13 40-11 33-13 48-7 42v71l5 29 10 31 13 28 9 19 11 16 13 18 13 16 9 11 13 15 11 12 7 8 15 16 7 7 8 7 28 24 12 10 20 15 8 9v3l-167 2h-88l-13-4-10-9-8-7-23-23-9-11-8-8-7-8-11-12-15-20-13-17-8-12-13-19-17-28-8-16-8-18-11-33-6-32-2-51 4-49 11-54 14-49 17-47 20-46 8-18 33-68 21-41 15-29 8-11 4-2 206-2 1-8 8-38 4-21 2-2z" fill="#fff"/>
<path transform="translate(2844,93)" d="m0 0h194l2 2v14l-3 24-25 159-13 75 145-14 16-1h20l10 7 10 13 11 15 15 28 8 16 9 21 8 34 2 12v54l-8 48-14 50-18 48-15 31-8 17-17 28-15 25-29 43-16 24-16 21-7 8-3 1h-198l-143-1-1-1v-19l9-76 5-44 6-49 17-136 8-62 12-95 3-26 9-70 8-61 8-67 6-48 5-41zm150 293-9 46-17 108-14 86-19 112-7 45-2 27-7 44 1 4 8-8 13-19 13-18 12-19 13-20 15-26 13-22 20-41 9-20 13-36 10-37 4-28v-46l-4-25-7-26-16-33-11-15-6-8-11-12-9-10z" fill="#fff"/>
<path transform="translate(1454,373)" d="m0 0h192l-1 14-11 66-16 83-11 56-14 83-3 28v55l5 28 11 28 10 17 8 11 11 13 7 8 8 8 8 4 2-10 2-11 8-62 13-113 15-123 11-91 10-87 3-5h194l2 4v9l-26 154-24 135-9 51-10 58-11 63-7 41-5 7-91 1h-255l-11-8-14-15-10-16-11-19-11-26-8-25-4-22v-69l8-63 8-65 8-58 9-69 7-65z" fill="#fff"/>
<path transform="translate(974,323)" d="m0 0 12 2 10 9 8 7 10 10 10 13 13 18 9 14 14 26 12 29 7 26 2 8 4 33v38l-6 47-14 56-13 38-4 12-16 38-11 24-19 39-22 44-12 22-7 11-6 7-3 2h-189l-95-1-13-17-19-41-8-21-13-36-10-40-4-26v-76l10-50 13-43 15-39 20-41 9-19 11-16 3-3 35-2h127l3 6-3 10-11 31-13 40-9 27-13 55-6 37-2 21v93l7 57 8 36 5 22h4l1-5 19-48 14-38 7-20 14-45 13-56 9-53 1-12v-48l-5-32-9-27-15-30-21-27-12-13-5-5-14-11-11-8-26-15-10-6-1-5 7-3 14-3 56-8 53-8 62-9z" fill="#fff"/>
<path transform="translate(3859,341)" d="m0 0h17l17 13 34 34 11 14 8 10 11 16 16 32 10 32 4 22 2 24v32l-6 62-18 112-15 86-9 50-6 14-3 2h-181l-133-1-14-12-8-9-14-19-9-16-11-19-12-31-7-28-1-21-1-16 1-13 1-15 4-16 5-16 7-16 11-21 6-11 13-18 9-12 11-13 7-9 11-12 13-7 71-1h94l-6-28-3-12-13-27-3-6-12-15-11-14-27-27-16-12-18-14-11-9v-6l6-2 56-11 50-9zm-55 213-18 20-13 19-10 15-16 28-13 28-10 38-1 6v48l5 30 10 36 16 39 4 8 5 7 5 1 4-20 11-81 13-102 5-39 4-32v-49z" fill="#fff"/>
<path transform="translate(1226,93)" d="m0 0h186l3 3-2 29-14 85-13 79-10 64-9 55-12 73-6 34-12 71-7 42-6 35-14 89-7 44-13 86-3 12-2 2h-160l-7-1-1-1v-20l6-48 8-61 10-78 6-45 10-77 6-45 11-84 22-176 17-129 4-31 3-5z" fill="#fff"/>
<path transform="translate(3340,371)" d="m0 0h186l8 4v9l-8 58-17 100-8 46-19 100-12 69-21 125-4 12-1 1h-164v-35l7-60 6-48 9-75 6-57 9-79 4-34 9-80 5-44 2-9z" fill="#fff"/>
<path transform="translate(1776,1025)" d="m0 0h10l20 2 32 6 4 2v10l-7 45-9 49-10 54-13 77-10 58-7 7-65 6h-11l-5-7-6-109-6-67v-4h-2l-1 9-5 33-10 63-10 59-6 14-3 3h-37l-15-2-3-3v-22l8-86 11-118 3-33 2-13 7-5h98l5 3 2 9 6 114 2 34 2 28 1 2 2-13 6-61 9-74 4-32 4-31z" fill="#fff"/>
<path transform="translate(1134,1025)" d="m0 0h78l3 3v15l-1 7-1 21-5 44-6 58-13 111-4 34-4 14-6 2-13 1-50-2-1-1v-59l-30 1-9 1-1 7-11 41-4 8-2 2h-60v-12l2-16 23-108 7-37 12-64 7-37 5-8h77l2-21zm-8 47-6 10-7 28v10l-18 68-6 26v4h-2v9h27l2-1 3-32v-10l3-1 5-66v-45z" fill="#fff"/>
<path transform="translate(2540,1021)" d="m0 0h18l14 12 8 9 5 9 10 15 10 24 5 23v49l-5 26-14 42-17 35-8 17-21 33-13 16-2 2-55 2h-46l-11-4-7-10-5-9-14-39-3-11-4-19v-46l6-30 10-27 11-26 11-19 13-16 63-1-9-10-5-5-12-11-11-9-3-3 1-5 27-6zm-33 66-3 3-3 10h-3l-14 40-12 44-1 7v83l3 23 3 1 1 9h6l7-22 12-27 9-27 5-18 5-30 1-9v-46l-7-28-8-13z" fill="#fff"/>
<path transform="translate(2790,1021)" d="m0 0h12l10 6 9 11 12 16 16 32 6 20 2 19v20l-4 33-12 40-18 39-8 16-15 26-7 11-11 15-8 8-6 2h-90l-14-4-10-19-6-13-9-30-4-13-2-11v-52l4-17 4-13 4-12 11-26 12-25 6-11 10-10 59-1-7-8v-6l-6-2-8-6-15-14 3-7 29-6zm-40 67-4 6-10 26-12 36-8 36-1 8v69l5 36 6 2 7-15 12-27 11-31 10-44 2-18v-44l-6-24-8-16z" fill="#fff"/>
<path transform="translate(1953,1031)" d="m0 0h115l-1 4-8 9-19 14-13 10-17 16-10 9-7 8-12 13-15 22-12 23-6 12-9 29-2 12v38l6 32 11 32h5l8-63 8-66 2-11 5-5h65l6 3-2 22-8 50-14 82-3 7h-142l-9-9-11-25-7-23-4-20-1-17v-29l3-26 12-42 16-32 7-13 8-11 10-14 10-11 9-11 8-8 13-9z" fill="#fff"/>
<path transform="translate(2867,955)" d="m0 0h286l105 1h444l115-1h33l1 5-8 4-14 5-9 2-34 11-27 8-47 17-54 23-35 17-16 8-28 19-14 13-5 4-12 17-2 3-5-1-12-29-21-56-15-34-3-5-16-2-73-5-73-4-12-1-38-2-49-3-11-1-37-1-176-1-140-1-17-2-2-3v-3z" fill="#fff"/>
<path transform="translate(822,955)" d="m0 0h196l44 2 20 2v4l-81 4-149 4-195 10-48 3-9 2-7 10-15 40-17 44-6 17-6 16h-7l-5-8-9-16-12-12-32-21-20-10-18-10-48-20-53-19-38-13-24-7-30-8-9-3-4-3v-6l490-1z" fill="#fff"/>
<path transform="translate(842,1033)" d="m0 0h166l2 3v13l-7 45-5 9-37 2-12 65-16 89-10 56-3 13-4 7h-37l-31-2v-30l20-141 5-42 7-5 38-8 3-3h-16l-33 2-26 2h-15l-1-1v-17l2-21 5-33z" fill="#fff"/>
<path transform="translate(2254,1033)" d="m0 0h95l39 2v10l-5 39-4 14-3 3-26 3h-10l-1 10-9 46-25 142-6 26-3 5h-64l-3-4 2-30 22-175 7-9 35-10h6v-2l-38 3-17 1h-32l-3-8 4-40 2-17 5-7z" fill="#fff"/>
<path transform="translate(3100,1051)" d="m0 0h53l23 2 1 2-6 15-14 30-4 14v20l14 26 11 13 11 14 12 14 6 12 2 5 2 22-6 24-14 25-8 10-13 15-9 10-11 9-26 1-10 1h-68l-1-2 3-8 23-23 11-9 7-8 12-13 8-16 1-4v-22l-7-13-10-13-9-11-5-7v-2h-2l-7-12-6-16-1-3v-30l10-29 11-24 7-10z" fill="#fff"/>
<path transform="translate(2922,1033)" d="m0 0h52l22 2 2 3v8l-24 136-9 50-6 48h34l28 1 1 1v12l-2 16-5 22-1 1h-134v-17l3-29 10-78 15-119 7-52z" fill="#fff"/>
<path transform="translate(3443,145)" d="m0 0h26l19 4v2l8 1 8 3 20 12 17 17 12 24 1 3v36l-9 23-13 16-5 6-19 13-14 5-16 4-5 1h-36l-17-4-24-12-14-12-5-6-10-17-6-18v-33l8-21 10-13 7-8 13-10 19-10z" fill="#fff"/>
<path transform="translate(1515,1040)" d="m0 0h66l3 1v23l-25 139-17 96-5 29-3 5h-64l-2-2v-15l4-38 18-150 9-74 4-12 1-1z" fill="#fff"/>
<path transform="translate(1391,1015)" d="m0 0 15 2 19 14 10 9 10 10 12 24 2 8v32l-8 30-13 30-18 38-13 22-7 11-6 6h-60l-14-2 1-5 15-26 16-28 12-27 7-23 2-12v-30l-8-18-8-9-20-13-15-9-14-8-1-5 7-3 34-9z" fill="#fff"/>
<path transform="translate(1284,1067)" d="m0 0h35l29 2 2 5 1 7-14 72-11 56-14 81-7 37-3 6h-64l-1-1v-26l6-44 12-89 11-80 3-21 8-3z" fill="#fff"/>
<path transform="translate(3197,1024)" d="m0 0h41l20 1 1 2-9 52-11 51-5 5h-64l-1-2 5-37 11-60 4-10 1-1z" fill="#fff"/>
<path transform="translate(1544,955)" d="m0 0h232l38 2 16 2v4l-30 2-76 2h-149l-51-2-24-2 1-3 5-3z" fill="#fff"/>
<path transform="translate(2071,958)" d="m0 0h314l1 5-44 2h-219l-50-2-2-1z" fill="#fff"/>
<path transform="translate(1205,960)" d="m0 0h38v2h-38z" fill="#fff"/>
</svg>
