<?xml version="1.0" encoding="UTF-8"?>
<svg xmlns="http://www.w3.org/2000/svg" viewBox="73.2 445.28 1123.6 343.44" width="3000" height="917">
  <!-- White elements: Dry text, border frame, TOOLBOX -->
  <g id="all-elements" transform="scale(1,-1) translate(0,-1254.0)">
  <g id="white-elements" fill="#FFFFFF" stroke="none">
    <path d="M184 767 c-12 -34 -59 -160 -71 -191 -4 -11 -8 -21 -8 -22 0 0 96 0
213 0 l213 0 8 6 c4 3 10 6 12 8 4 3 5 3 10 18 3 8 11 28 18 44 6 16 13 34 16
41 2 6 7 18 10 27 l7 16 -18 0 -18 0 -6 -15 c-3 -9 -9 -25 -14 -37 l-8 -22
-19 0 c-10 0 -18 0 -18 1 -1 0 3 10 8 22 4 11 9 23 10 26 1 2 4 9 6 14 2 5 4
10 4 10 0 1 -8 1 -18 1 l-18 0 -5 -14 c-3 -7 -10 -26 -17 -41 -13 -32 -12 -28
-3 -41 l5 -6 26 0 c15 0 27 0 27 -1 0 0 -3 -9 -7 -18 -7 -18 -7 -19 -11 -22
l-5 -3 -194 0 c-106 0 -193 0 -193 1 -1 0 15 44 23 64 5 12 39 102 51 137 l5
12 228 0 228 0 8 6 c5 4 9 7 9 7 1 1 -108 1 -241 1 l-242 0 -11 -29z" stroke="#FFFFFF" stroke-width="4" stroke-linejoin="round"/><path d="M236 750 c1 -1 3 -4 5 -7 l3 -5 -6 -15 c-3 -9 -14 -37 -25 -63 l-19
-48 61 0 60 0 14 9 14 10 3 7 c8 20 36 92 36 94 0 0 -3 5 -7 10 l-7 10 -67 0
c-63 0 -66 0 -65 -2z m102 -28 c1 -1 1 -3 0 -5 -1 -2 -6 -13 -11 -25 -17 -46
-17 -44 -21 -48 l-4 -4 -28 0 c-16 0 -28 0 -28 0 0 0 6 17 14 37 l15 36 -5 4
c-2 3 -4 5 -4 5 0 1 16 1 35 1 29 0 36 0 37 -1z"/><path d="M403 705 l-13 -8 -2 -7 c-3 -8 -22 -59 -30 -77 0 -1 4 -1 17 -1 13 0
18 0 18 1 5 11 25 63 26 66 3 8 3 8 33 8 l26 0 5 13 c2 7 5 13 5 13 0 1 -16 1
-36 1 l-36 0 -13 -9z"/><path d="M361 512 c-1 -2 -2 -3 -2 -4 0 0 3 0 7 0 4 0 7 0 7 -1 0 0 -2 -7 -5
-14 -4 -8 -6 -14 -6 -14 0 -1 2 -1 5 -1 l6 0 5 15 6 15 7 0 7 0 2 3 c0 2 1 4
1 4 0 1 -9 1 -19 1 l-20 0 -1 -4z"/><path d="M448 514 c-4 -2 -15 -31 -14 -34 1 -2 3 -2 18 -2 14 0 17 0 19 2 2 2
14 30 14 34 0 1 -1 2 -17 2 -15 0 -18 0 -20 -2z m24 -7 c0 0 -2 -5 -4 -11 l-4
-9 -9 -1 c-9 0 -9 0 -8 2 0 1 2 6 4 11 l3 9 9 0 c5 0 9 0 9 -1z"/><path d="M536 514 c-2 0 -3 -3 -5 -6 -1 -2 -3 -9 -6 -15 -5 -16 -6 -15 14 -15
13 0 17 0 19 2 4 2 16 32 14 35 -2 2 -32 2 -36 -1z m24 -7 c0 0 -2 -5 -4 -11
l-4 -10 -9 0 c-5 0 -9 0 -9 1 0 1 7 19 8 20 0 1 18 1 18 0z"/><path d="M621 514 c-5 -12 -14 -35 -14 -35 0 -1 8 -1 18 -1 l18 0 2 3 c0 2 1
4 1 4 0 1 -6 1 -12 1 -7 0 -13 0 -13 1 0 0 2 6 6 14 3 7 5 14 5 14 0 1 -2 1
-5 1 -5 0 -6 0 -6 -2z"/><path d="M696 497 l-7 -18 18 -1 c16 0 18 0 20 2 3 2 7 13 6 16 0 2 0 3 2 4 3
1 8 13 6 15 -1 1 -5 1 -19 1 l-18 0 -8 -19z m33 11 c0 -1 0 -2 -1 -4 -1 -3 -1
-3 -9 -3 -5 -1 -9 -1 -9 0 -1 0 -1 2 0 4 l1 3 9 0 c5 0 9 0 9 0z m-6 -16 c0 0
0 -2 -1 -3 -1 -3 -1 -3 -10 -3 -8 0 -9 0 -8 2 0 1 0 2 1 3 0 2 2 2 9 2 5 0 9
0 9 -1z"/><path d="M790 514 c-4 -3 -14 -30 -14 -34 1 -2 1 -2 18 -2 16 0 17 0 19 2 3 2
9 16 13 30 2 6 2 6 -17 6 -16 0 -17 0 -19 -2z m24 -7 c0 -1 -2 -6 -4 -11 l-4
-9 -9 -1 c-5 0 -9 0 -9 1 0 0 2 5 4 11 l4 10 9 0 c7 0 9 0 9 -1z"/><path d="M872 516 c0 0 2 -5 4 -10 l3 -8 -4 -4 c-2 -2 -7 -6 -11 -10 l-6 -6 5
0 c5 0 6 0 11 5 10 8 9 8 11 1 l2 -6 6 0 6 0 -2 5 c-1 3 -3 7 -3 9 -1 2 -2 4
-2 4 0 1 8 9 19 18 l3 2 -6 0 c-6 0 -7 0 -13 -6 -4 -3 -7 -5 -7 -5 0 0 -1 2
-2 6 l-2 5 -6 0 c-3 0 -6 0 -6 0z"/><path d="M272 500 c-15 -1 -38 -1 -53 -2 l-26 0 28 -1 c15 -1 39 -1 54 -2 14
-1 30 -1 35 -1 9 0 9 0 10 2 2 6 5 5 -48 4z"/><path d="M940 498 c0 -2 0 -4 0 -4 0 0 14 0 31 1 17 0 45 1 63 2 18 0 32 0 32
1 0 0 -21 0 -46 1 -25 0 -53 1 -62 2 l-17 0 -1 -3z"/>
  </g>
  <!-- Blue elements: Wall text, blue box border -->
  <g id="blue-elements" fill="#2255EE" stroke="none">
    <path d="M694 789 c-6 -3 -10 -7 -10 -7 0 -1 103 -1 230 -1 126 0 229 0 230 0
0 -1 -3 -10 -7 -21 -4 -11 -12 -34 -18 -51 -6 -17 -13 -36 -15 -41 -2 -5 -9
-26 -16 -46 -7 -20 -15 -40 -16 -45 l-3 -8 -242 0 -242 0 -11 -7 c-6 -4 -11
-7 -11 -8 0 0 116 0 258 0 l258 0 2 7 c2 4 7 18 11 30 17 47 55 153 58 163 6
14 15 41 15 41 0 1 -104 1 -231 1 l-230 0 -10 -7z" stroke="#2255EE" stroke-width="4" stroke-linejoin="round"/><path d="M636 752 c0 -1 -1 -12 -4 -89 -1 -18 -2 -37 -3 -42 l0 -9 21 0 22 0
23 35 23 35 0 -6 c0 -4 0 -13 -1 -20 0 -7 -1 -20 -2 -29 l0 -15 22 0 22 0 8
13 c5 8 19 29 31 48 12 19 25 38 27 42 26 40 24 36 21 37 -2 1 -7 1 -33 0 l-8
0 -16 -26 c-10 -15 -21 -33 -26 -40 l-9 -13 1 34 c0 18 0 36 0 40 l1 6 -15 0
-14 0 -27 -40 c-15 -23 -27 -40 -27 -39 0 1 1 13 1 27 1 13 2 30 3 38 l0 13
-2 0 c-10 1 -38 0 -39 0z"/><path d="M990 752 l-5 0 -9 -24 c-13 -33 -25 -64 -35 -91 -5 -12 -9 -23 -9
-24 0 -1 3 -1 19 -1 l18 1 5 11 c2 6 8 21 12 33 9 22 21 54 31 80 3 8 6 15 5
15 0 0 -25 1 -32 0z"/><path d="M1055 752 l-12 0 -13 -36 c-8 -20 -19 -47 -24 -60 -15 -41 -16 -43
-16 -43 0 -1 8 -1 18 -1 l19 0 6 16 c3 8 9 24 13 35 9 23 25 62 30 77 2 6 4
11 4 12 -1 0 -11 1 -25 0z"/><path d="M836 703 c-3 -6 -5 -12 -5 -12 0 -1 16 -1 36 -1 23 0 36 0 37 -1 0
-1 -1 -4 -2 -7 -2 -6 -2 -7 -5 -7 -2 -1 -16 -1 -32 -1 l-29 0 -12 -8 -12 -7
-5 -14 c-3 -8 -5 -15 -5 -15 0 -1 3 -5 6 -10 l6 -8 50 0 49 0 10 26 c6 15 13
34 17 42 7 19 7 16 -2 28 l-5 6 -46 0 -46 0 -5 -11z m54 -52 c0 -1 -4 -12 -5
-14 -1 -1 -6 -1 -22 -1 -23 0 -22 0 -19 8 3 8 2 8 25 8 12 0 21 0 21 -1z"/>
  </g>
  </g>
</svg>