<?xml version="1.0" encoding="UTF-8"?>
<svg version="1.1" viewBox="0 0 2048 613" width="2048" height="611" preserveAspectRatio="xMidYMid meet" xmlns="http://www.w3.org/2000/svg">
<path transform="translate(1870,203)" d="m0 0 38 1 21 3 17 5 10 5 10 8 5 8 3 11v138l-5 8-2 1h-20l-6-4-2-3-1-130-4-8-7-6-10-4-16-2h-52l-15 2-10 3-9 6-5 8-1 14v107l-1 10-5 6-3 1h-18l-7-3-2-2-1-4-1-21-1-110-2-3v-3h-2l-4-4-8-4-10-2-95-1-7 2-1 20-1 130-5 4-3 1h-18l-6-3-2-57-1-66v-48l3-8 3-1v-3l2-1h123l20 3 17 6 11 7 4 4 5-2 15-9 14-5 24-4z" fill="#000000"/>
<path transform="translate(89,203)" d="m0 0h152l21 2 17 4 17 8 11 10 5 10v46l-3 11-7 10-11 8-12 6-15 4-15 2-96 1h-39v40l-1 21-3 3-4 2h-17l-6-2-3-3v-180l3-2zm28 29-4 2v60l2 2h134l14-3 7-4 7-8 1-2v-36l-8-7-9-3-7-1z" fill="#000000"/>
<path transform="translate(682,201)" d="m0 0h13l7 3 5 4 10 13 6 9v3h2l7 11 9 13 8 12 6 8v3h2l1 4h2l4 7 7 10 11 16 18 27 6 8 4 7 4 5 4 7 4 6-1 7-5 6-11 5h-7l-8-4-6-8-4-7-4-5v-3h-2l-1-4h-2l-4-7-7-9v-3l-3-1h-136l-6 7-14 20-13 17-7 6h-8l-9-4-4-2v-2l-3-1v-2h-2v-6l3-5h2l1-4 5-8h2l1-4 6-8 4-7 7-9 4-7 4-5 1-3h2l2-5 4-7h2l1-4h2l1-4 5-8h2l1-4 6-8 4-7 4-5 4-7 3-5h2l1-4 5-8h2l2-5 10-15 9-12 8-6zm4 39-10 15-13 19-7 11-8 11-10 14 1 3h99v-3l-5-8h-2l-1-4-12-17-1-2h-2l-1-4-6-9-4-7-7-9-1-3h-2l-1-4h-2l-1-3z" fill="#000000"/>
<path transform="translate(1095,204)" d="m0 0h154l24 3 14 4 15 8 8 7 4 7 3 7 1 5v92l-1 44-3 7-3 3h-21l-6-3-1-1-1-77-3-61-5-6-2-1v-2l-12-4-7-1-132-1v150l-5 6-2 1h-20l-6-3-2-5-1-157 1-13 3-6z" fill="#000000"/>
<path transform="translate(1356,203)" d="m0 0h15l8 4 2 4 1 100 1 33 4 6 9 6 9 3 14 2h122v-138l1-16 10-4h16l6 3 2 3 1 57v116l-4 7-3 2h-155l-22-3-16-4-9-4-10-7-4-5-2-1-5-10v-149l6-4z" fill="#000000"/>
<path transform="translate(800,203)" d="m0 0h192l6 3 2 4 1 10-4 8-4 3-3 1-52 1-25 1v147l-4 7-2 2h-24l-5-5-1-152h-73l-9-3-5-6v-11l3-7z" fill="#000000"/>
<path transform="translate(344,203)" d="m0 0h18l6 5 1 9 1 123 2 9 5 4 8 4 13 3 57 1 84 1 6 5 2 7v7l-5 9-2 1h-141l-26-4-13-5-11-6-5-4-5-7-3-5-3-11 1-142z" fill="#000000"/>
<path transform="translate(1040,202)" d="m0 0h7l6 3 3 4 1 4v169l-5 7-4 2h-16l-8-3v-2h-2l-1-40v-39l1-100 6-3z" fill="#000000"/>
<path transform="translate(1412,432)" d="m0 0 8 1 2 2 1 12 2 11 1 14 1 3 1 23h3l1-7 2-3 1-8 2-7 2-5 1-10 3-4 5 1 3 9 1 9 2 4 1 9 2 3v7h4v-11l1-11 1-2 1-16 2-7 1-13 2-2 4 1v14l-2 9-1 15-2 8-1 12-2 9v7l-3 2h-8l-1-9-2-3-1-11-2-3-1-12-3-1-4 17-3 12-2 9-3 2-7-1-1-1-1-14-1-2-1-15-2-5-1-21-2-5v-12l-5 1v5l-4 6-3 5-2 5-5 9-6 9-1 35-5 1-3-6-2-31-4-8v-4h-2l-8-16-4-9-2-1v-3h8l6 9v4h2l9 19v3l4 1 1-4 9-15 6-11 1-2h2l1-4z" fill="#000000"/>
<path transform="translate(1308,434)" d="m0 0h25l9 5 3 7 2 4v6l-5 10-8 7-2 1-1 3h2l5 9 10 16 5 7-1 3-7-2-1-3h-2l-1-4h-2l-5-9-4-7-2-1-3-5v-2l-10-3v13l-1 21-2 2-5-1v-76zm7 5v33h10l8-5 6-8v-11l-5-6-7-3z" fill="#000000"/>
<path transform="translate(1246,434)" d="m0 0h27l9 3 6 7 3 5 3 9v29l-2 2-2 6-2 4h-2l-2 4-7 6-7 2h-20l-2-1-2-23-1-52zm10 4-3 1v66l2 2 13-1 9-4 5-5 1-3h2l3-9v-26l-4-9-2-4h-2l-1-3h-2v-2l-6-2-7-1z" fill="#000000"/>
<path transform="translate(1850,432)" d="m0 0h11l10 5 4 5 3 5 3 9v33l-2 3-2 6-6 9-9 6h-12l-10-6-8-10-3-9v-30l2-3 2-7 6-9 6-5zm3 4-5 3-7 7-3 5-2 7-1 2v25l2 4 2 7 7 9 4 3 8 1 8-4 1-4h2l3-5 2-5 1-1v-36l-2-2-1-5-2-1-1-3h-2l-2-4-7-3z" fill="#000000"/>
<path transform="translate(1789,432)" d="m0 0h12l8 4 7 8 3 6 2 10v26l-3 9-4 8-10 9-3 1h-11l-11-6-6-9-2-4-2-12v-19l1-2 1-9h2l1-6 5-7zm3 4-8 6-5 6-2 4-1 7v24l2 9 3 7 6 7 7 3 7-1 7-6 3-4 5-15v-21l-3-12-8-10-6-4z" fill="#000000"/>
<path transform="translate(1501,433)" d="m0 0h6l6 14 5 13 2 8 3 9 1 7 2 3 3 12 2 4 1 9-4 1-5-5-2-8-1-1-1-7-2-3-28-1v6l-2 3-4 14h-6l1-8 9-27 2-9 1-1 1-7 4-10 2-6 3-8zm1 11-3 7-3 13-2 4-2 9-1 6 1 1 14 1h11l-2-13-2-3-2-7-3-9-1-7z" fill="#000000"/>
<path transform="translate(1968,431)" d="m0 0 16 3 6 2-1 5-15-3h-7l-8 6-3 4 1 6 1 4h2l3 3 21 13 6 5v2h2l2 9-1 9-6 8-7 5-4 1h-14l-11-3-2-3v-3l5-1 12 4h7l7-3 3-3 3-5v-8l-7-8-20-12-7-7-2-4v-11l3-6 4-2 1-3 5-3z" fill="#000000"/>
<path transform="translate(1709,434)" d="m0 0h56l1 4-7 2-17 1v70l-1 1h-7l-1-72-24-1-1-4z" fill="#000000"/>
<path transform="translate(1898,433)" d="m0 0 4 1 1 71 33 1 1 4-1 1h-41l-1-1v-76z" fill="#000000"/>
<path transform="translate(1545,435)" d="m0 0 7 1 1 69h31l1 5-3 1h-37l-1-1v-74z" fill="#000000"/>
<path transform="translate(1604,434)" d="m0 0 5 1v72l5-1h29l1 4-5 1h-35l-1-1v-75z" fill="#000000"/>
<path transform="translate(1314,438)" d="m0 0h10v1h-9v36l2 1h-2v13l-1 21h-1v-49z" fill="#000000"/>
<path transform="translate(1454,486)" d="m0 0 3 3v7l4 1-2 7-2-4-3-11z" fill="#000000"/>
</svg>
