<?xml version="1.0" encoding="UTF-8"?>
<svg version="1.1" viewBox="0 0 2048 500" width="2048" height="500" preserveAspectRatio="xMidYMid meet" xmlns="http://www.w3.org/2000/svg">
<path transform="translate(1)" d="m0 0h1883l1 1v22h50l26 3 21 6 17 8 13 9 12 11 9 12 8 16 4 12 2 10 1 10v12l-3 18-5 15-8 15-9 11-8 8-14 10-16 8-18 6-22 4-37 2v270l-1 1h-1884v-23h-23v-476z" fill="#EBA823"/>
<path transform="translate(668,174)" d="m0 0h19l18 3 13 5 11 6 10 9 7 8 7 14 4 13 3 20 1 18v55l-1 21-3 19-6 18-6 11-9 10-13 9-11 5-15 4-7 1h-23l-15-3-14-6-14-10v95h-74v-265l1-57h71v19l11-9 10-6 10-4z" fill="#010101"/>
<path transform="translate(1)" d="m0 0h1883v23h-1861v454h-23v-476z" fill="#060503"/>
<path transform="translate(1612,98)" d="m0 0h74v98h2l1-3 11-8 14-7 12-3 7-1h15l17 3 12 5 10 6 10 9 9 13 6 13 4 15 2 17v165l-1 1h-68l-5-1-1-152-4-13-7-8-8-4-3-1h-13l-12 6-6 8-3 10-1 155h-54l-20-1z" fill="#010101"/>
<path transform="translate(2047,186)" d="m0 0 1 4v314l-2 17-5 18-8 16-9 13-14 14-10 7-10 6-15 6-13 4-19 3-16 1-1-1v-361l1-1 24-2 20-4 18-6 21-11 13-10 11-10 10-13z" fill="#020101"/>
<path transform="translate(391,174)" d="m0 0h30l24 3 18 5 16 8 10 7 9 9 7 11 5 12 3 11 1 6v174l-1 1h-52l-19-1-1-18-10 9-10 6-12 4-16 2h-11l-15-2-14-4-14-7-12-10-9-13-6-13-3-12-1-7v-21l4-16 7-14 11-12 11-8 14-6 12-3 7-1 65-1v-16l-4-9-5-5-8-4-11-2h-15l-11 2-10 5-9 8-4-1-44-44 6-7 13-10 15-8 17-5z" fill="#010101"/>
<path transform="translate(879,174)" d="m0 0h22l19 3 16 5 14 7 11 8 10 9 8 10 9 15 7 18 4 18 1 10v45l-13 1-133-1 2 12 5 10 5 6 10 6 13 4h19l14-3 14-7 11-9 4 2 41 41-6 7-10 9-16 10-16 7-16 4-15 2h-32l-21-3-16-5-16-8-9-6-10-9-9-12-8-16-5-14-4-18-2-21v-24l3-24 5-19 7-16 9-14 11-13 14-11 15-8 20-6z" fill="#010101"/>
<path transform="translate(1262,174)" d="m0 0h21l20 3 18 6 15 8 11 9 10 10 7 10 6 10 6 15 4 14 2 13 1 13v32l-1 6h-145l1 9 4 10 9 10 12 6 9 2h18l14-3 10-4 12-9 3-3 4 2 41 41-2 4-11 10-15 10-14 7-16 5-21 3h-31l-21-3-17-5-16-8-11-8-10-10-7-10-8-16-6-18-3-17-1-9v-39l4-24 6-18 8-16 10-14 11-11 13-9 14-7 18-5z" fill="#010101"/>
<path transform="translate(96,98)" d="m0 0h238v61l-1 9-78 1-1 251-1 1h-71l-7-1-1-47v-204l-79-1v-60z" fill="#010101"/>
<path transform="translate(967,98)" d="m0 0h238l1 29v18l-1 23h-79v252l-2 1h-65l-12-1-1-251-79-1z" fill="#010101"/>
<path transform="translate(1500,174)" d="m0 0h22l20 3 18 6 15 8 13 10 4 5-10 9-40 40-15-10-8-3h-15l-8 3-8 6-6 10-4 15-1 7v30l3 17 5 12 6 7 12 6 11 1 12-3 9-6 7-5 49 49-2 4-9 8-13 8-14 6-15 4-13 2h-27l-18-3-18-6-15-8-10-8-10-10-9-14-7-15-5-16-3-17-1-11v-33l3-23 6-21 8-17 10-14 10-10 13-9 15-7 18-5z" fill="#010101"/>
<path transform="translate(648,241)" d="m0 0h15l10 4 8 9 4 12 2 17v33l-2 15-4 12-6 8-8 4-8 2h-7l-11-3-7-5-5-9-3-10-2-23v-18l2-22 3-10 5-8 6-5z" fill="#E9A723"/>
<path transform="translate(1906,228)" d="m0 0 2 2v269l-1 1h-1282l1-4 2 1h1272l5-1z" fill="#FCB924"/>
<path transform="translate(1349,548)" d="m0 0h13l1 1v59h-19l-16-28-5-9-1 37h-14v-59h18l8 13 13 23 1 2v-38z" fill="#080704"/>
<path transform="translate(1059,548)" d="m0 0 14 1v59h-18l-8-13-13-23-1-2v38h-14l-1-3v-56h19l16 28 5 9z" fill="#0A0906"/>
<path transform="translate(680,548)" d="m0 0h17l6 9 16 28h1v-36l2-1h12v60h-18l-15-26-6-11-1-1v38h-14z" fill="#070604"/>
<path transform="translate(1265,235)" d="m0 0h15l10 3 9 6 6 9 4 11 1 9-2 1h-71l-1-1 1-10 4-11 6-8 9-6z" fill="#E6A524"/>
<path transform="translate(882,235)" d="m0 0h16l11 4 6 4 6 7 5 12 1 11-1 1h-72v-9l4-12 6-8 7-6z" fill="#E6A624"/>
<path transform="translate(164,548)" d="m0 0h24l13 1 8 4 4 5 2 5v8l-3 7-7 6h-2l15 23v1h-18l-11-19v-2h-10v21h-16v-59zm15 12v15h16l3-3 1-7-4-4-5-1z" fill="#0B0906"/>
<path transform="translate(1408,547)" d="m0 0 12 1 8 3 8 9 1 3-11 5-4 1-4-6-3-2h-9l-5 2-2 5-1 3v15l4 8 4 2h11l5-4 2-5h-14v-11h27v32h-11l-1-5-7 5-3 1h-15l-10-5-6-7-3-8-1-6v-8l3-12 4-6 7-6 7-3z" fill="#0A0806"/>
<path transform="translate(630,547)" d="m0 0 11 1 8 3 8 7 4 9 1 4v15l-4 11-6 7-7 4-4 1h-17l-9-4-6-5-5-10-1-5v-13l3-10 6-8 8-5zm-1 13-5 3-4 6-1 5v9l3 9 4 4 3 1h7l5-3 3-3 2-7v-11l-3-8-4-4-3-1z" fill="#080604"/>
<path transform="translate(256,547)" d="m0 0 12 1 8 3 7 6 5 10 1 4v15l-4 11-6 7-8 4-3 1h-17l-9-4-6-5-5-10-1-4v-15l4-11 6-7 7-4zm-1 13-6 5-3 8v11l3 8 4 4 3 1h7l5-3 4-6 1-5v-9l-3-9-4-4-3-1z" fill="#080604"/>
<path transform="translate(1653,547)" d="m0 0 12 1 9 4 5 4 6 12 1 6v9l-2 9-6 10-10 6-4 1h-16l-10-4-8-9-3-8v-18l4-11 7-7 9-4zm-1 13-6 4-3 7v14l3 7 4 4 3 1h7l6-4 3-6v-17l-3-6-6-4z" fill="#070604"/>
<path transform="translate(1579,547)" d="m0 0 12 1 10 5 5 5 4 7 1 4v19l-4 10-7 7-10 4h-16l-10-4-7-7-4-9-1-14 2-10 6-10 7-5zm-1 13-6 4-3 7v15l4 8 5 3h7l6-3 4-8v-15l-4-8-5-3z" fill="#070604"/>
<path transform="translate(1197,548)" d="m0 0 16 1v17l-1 6h23v-23h16v59h-16v-24l-22 1v23h-16z" fill="#060503"/>
<path transform="translate(400,322)" d="m0 0h34l6 1v18l-4 10-8 7-9 4-6 1h-15l-11-4-6-7-2-4v-11l3-6 7-6 5-2z" fill="#E8A724"/>
<path transform="translate(1788,547)" d="m0 0 13 1 10 4 6 5-2 5-5 6-10-6-3-1h-11l-3 2 1 5 9 3 12 3 8 5 3 4 1 10-3 7-5 5-9 4h-18l-10-3-9-6 1-4 6-8 9 6 6 2h11l3-2v-5l-9-3-15-4-6-4-4-7v-7l3-7 5-5 9-4z" fill="#090805"/>
<path transform="translate(523,547)" d="m0 0 13 1 10 4 6 5-2 5-5 6-10-6-3-1h-11l-3 2 1 5 9 3 12 3 8 5 3 4 1 3v8l-4 8-5 4-8 3h-18l-12-4-7-5 1-4 6-8 9 6 7 2h10l4-3-1-4-9-3-15-4-7-5-3-7 1-9 4-6 6-5z" fill="#090805"/>
<path transform="translate(456,547)" d="m0 0 13 1 10 4 6 5-2 5-5 6-10-6-3-1h-11l-3 2 1 5 9 3 12 3 8 5 3 4 1 3v8l-4 8-5 4-8 3h-18l-12-4-7-5 1-4 6-8 9 6 6 2h11l4-3-1-4-9-3-15-4-7-5-3-7 1-9 3-5 7-6z" fill="#090805"/>
<path transform="translate(1150,547)" d="m0 0 13 1 9 3 7 5-1 5-5 7-10-6-4-1h-11l-3 3 1 4 10 3 16 5 5 5 2 4v11l-4 6-6 5-7 2h-18l-11-4-6-4-2-3 7-10 12 7 4 1h11l3-2-1-5-9-3-12-3-8-5-4-6v-10l4-7 5-4 7-3z" fill="#080704"/>
<path transform="translate(369,549)" d="m0 0h47v12h-31v12h25v11h-25v12h32v12h-48z" fill="#090805"/>
<path transform="translate(97,548)" d="m0 0h20l16 1 8 4 4 5 2 5v11l-4 8-7 5-16 2h-7l-1 19h-16v-59zm15 12v17h12l6-3 1-2v-7l-4-4-4-1z" fill="#090705"/>
<path transform="translate(771,548)" d="m0 0h17l3 5 17 49 2 6h-17l-3-10v-3h-21l-3 11-1 2h-16l3-10 15-43 3-6zm7 14-6 20v2h14l-2-9-4-13z" fill="#080704"/>
<path transform="translate(1783,98)" d="m0 0h9l10 4 7 8 3 9v7l-3 9-5 6-10 5h-13l-10-5-6-9-2-8 1-9 4-8 7-6z" fill="#DA9E28"/>
<path transform="translate(307,548)" d="m0 0h27l20 1v11l-1 1h-30v12h24l1 5-1 7h-24v23h-16z" fill="#0A0805"/>
<path transform="translate(920,548)" d="m0 0h23l24 1v11l-1 1h-30v12h24v12h-24v23h-16z" fill="#0A0805"/>
<path transform="translate(1486,548)" d="m0 0h53l1 1v11l-1 1h-19v47h-15l-1-4v-41l1-2h-20v-12z" fill="#0A0805"/>
<path transform="translate(548,278)" d="m0 0h1l1 222h-527v-23l1-40h1v53l1 7h520l1-8z" fill="#FCB924"/>
<path transform="translate(1704,548)" d="m0 0h10l5 1v47h30v12h-45l-1-1v-58z" fill="#0A0805"/>
<path transform="translate(825,548)" d="m0 0 15 1v47h30v12h-46v-59z" fill="#090805"/>
<path transform="translate(95,169)" d="m0 0h80v204l1 49-3-1-2-18-1-230-9-1h-46l-20-2z" fill="#EAAC27"/>
<path transform="translate(570,548)" d="m0 0h14l1 1v59h-16v-59z" fill="#0A0805"/>
<path transform="translate(1094,548)" d="m0 0h11l4 1v59h-15l-1-2v-57z" fill="#090805"/>
<path transform="translate(982,549)" d="m0 0h16v59h-16z" fill="#060503"/>
<path transform="translate(1272,549)" d="m0 0h15v59h-15z" fill="#010101"/>
<path transform="translate(966,169)" d="m0 0h80v252h-1l-1-9v-206l-1-33-1-1-29-1h-21l-26-1z" fill="#FCB924"/>
<path transform="translate(1783,98)" d="m0 0h9l10 4 7 8 3 9v7l-3 9-5 6-10 5h-13l-10-5-6-9-2-8 1-9 4-8 7-6zm-1 4-8 4-6 9-1 2v11l5 8 6 5 4 2h10l8-4 6-7 2-5v-10l-4-8-8-6-2-1z" fill="#010101"/>
<path transform="translate(1777,109)" d="m0 0h16l5 3 1 6-2 4-2 2 3 3 1 9h-6l-1-1-1-7-7-2v9l-1 1h-6z" fill="#010101"/>
<path transform="translate(757,368)" d="m0 0h1v7l-2 10-6 13-2 4-6 4-8 3v-3l12-15 6-13 3-9z" fill="#F1B126"/>
<path transform="translate(1544,343)" d="m0 0 5 1 42 42 2 5-1 3-2-1-2-4-44-44z" fill="#E1A72A"/>
<path transform="translate(949,340)" d="m0 0 5 2 30 30 9 7 1 1v9l-4 2v2l-5 4-3-1 10-10 1-2-4-2-40-40z" fill="#F8B523"/>
<path transform="translate(1784,126)" d="m0 0 7 1 1 1 1 7 6 1v-4h2l1 5-5 4-5 2h-10l-4-2-1-5 6-1z" fill="#DFA127"/>
<path transform="translate(1325,184)" d="m0 0 9 2 13 9 9 9 2 5h2l6 11 5 8v5l-2-3-8-13-8-10-9-9-10-7-9-5z" fill="#E6AA28"/>
<path transform="translate(476,186)" d="m0 0 5 1 10 7 8 8 7 11 5 12-2 4-5-12-7-11-10-10-13-8z" fill="#E5A929"/>
<path transform="translate(1334,341)" d="m0 0 1 2 4 2 34 34 4 6-3 1-7-8-34-34z" fill="#DCA42B"/>
<path transform="translate(255,169)" d="m0 0h79v1l-68 1-10 1v43h-1z" fill="#FCB924"/>
<path transform="translate(1884,1)" d="m0 0h1v22h50l3 2h-55l-2-2h3z" fill="#E6AA29"/>
<path transform="translate(952,187)" d="m0 0 7 4 8 6v2h2v2h2l10 13-2 4-8-11-7-7-13-9z" fill="#EDAE26"/>
<path transform="translate(724,183)" d="m0 0 5 1 9 7 8 9 5 10-1 4-7-12-11-11-10-6z" fill="#E3A829"/>
<path transform="translate(853,177)" d="m0 0h8l-4 2-16 6-11 6-10 8h-3l5-7 14-9z" fill="#E7AA28"/>
<path transform="translate(1591,206)" d="m0 0 2 1-2 4-6 6h-2l-2 4-18 18-8 7-4 4-2-1 41-41z" fill="#FAB723"/>
<path transform="translate(1784,183)" d="m0 0 9 6 7 7 6 10 5 9v5l-3-4-6-11-8-10-8-7-5-4z" fill="#E6AA28"/>
<path transform="translate(361,177)" d="m0 0 3 1-3 2-13 5-11 6-10 8h-3l6-7 6-5 7-4z" fill="#E8AB28"/>
<path transform="translate(1463,180)" d="m0 0m-4 1 5 1-4 3-13 7-7 5v-3l9-8z" fill="#E7AB28"/>
<path transform="translate(640,179)" d="m0 0m-1 1m-2 1h2v3l-11 8-3 3h-2v-13l1 4 7-1 3-1z" fill="#EBAD27"/>
<path transform="translate(862,341)" d="m0 0 5 5 5 4 4 4 8 3v2l-6-1-9-5-6-5-3-4v-2z" fill="#E1A629"/>
<path transform="translate(1239,336)" d="m0 0 3 1 1 4 4 2 8 8v3l-5-2-7-7-4-7z" fill="#DFA52A"/>
<path transform="translate(1223,182)" d="m0 0 3 2-12 6-9 7-2-2 7-7 10-5z" fill="#E2A729"/>
<path transform="translate(1375,385)" d="m0 0 2 2-5 5-9 8-2-1 2-4 10-9z" fill="#EDAE26"/>
<path transform="translate(1784,113)" d="m0 0 7 1 1 5-3 3h-5z" fill="#D59B29"/>
<path transform="translate(437,343)" d="m0 0h2l-2 6-6 7-7 4h-2v-2l6-4 6-5z" fill="#DAA22B"/>
<path transform="translate(1578,191)" d="m0 0 5 2 5 4 3 5v3l-10-9-5-4z" fill="#DEA52A"/>
<path transform="translate(786,248)" d="m0 0h1l-1 10-3 18h-1v-14z" fill="#D09B2D"/>
<path transform="translate(1711,177)" d="m0 0h6l-3 2-20 10 1-3 14-8z" fill="#D8A02B"/>
<path transform="translate(652,175)" d="m0 0h9l-4 2-18 6 1-3z" fill="#D59E2C"/>
<path transform="translate(439,403)" d="m0 0h2v17h-1l-2-10-4-1z" fill="#F2B226"/>
<path transform="translate(379,337)" d="m0 0h1l1 12 3 1 4 5 1 4-4-2-4-5-2-4z" fill="#D59E2B"/>
<path transform="translate(945,340)" d="m0 0 4 1-9 7-7 4 2-4 5-5z" fill="#DEA42A"/>
<path transform="translate(680,338)" d="m0 0 2 1-2 6-5 6-5 2 2-4 6-7z" fill="#DBA22A"/>
<path transform="translate(350,278)" d="m0 0h2v2l-14 7-5 3v-3l14-8z" fill="#D69F2C"/>
<path transform="translate(1589,394)" d="m0 0 3 1-3 5-7 5-2-1z" fill="#EEAF27"/>
<path transform="translate(1522,243)" d="m0 0 5 1 9 6 5 5-4-1-10-7-5-2z" fill="#D79F2B"/>
<path transform="translate(1803,202)" d="m0 0 3 4 5 9v5l-3-4-6-11z" fill="#DCA32A"/>
<path transform="translate(993,385)" d="m0 0 1 4-4 2v2l-5 4-3-1z" fill="#FCB924"/>
<path transform="translate(361,177)" d="m0 0 3 1-3 2-13 5h-2l1-3z" fill="#D49E2C"/>
<path transform="translate(1192,393)" d="m0 0 4 2 9 8 2 2-5-1-10-9z" fill="#DAA22B"/>
<path transform="translate(853,177)" d="m0 0h8l-4 2-12 4h-2v-2z" fill="#D19B2D"/>
<path transform="translate(1328,340)" d="m0 0 3 1-11 9h-2l2-4 4-4z" fill="#DBA22B"/>
<path transform="translate(1303,177)" d="m0 0h7l11 4v2l-5-1-13-4z" fill="#CF9A2D"/>
<path transform="translate(1687,188)" d="m0 0h7l-2 4-5 3z" fill="#EEAF26"/>
<path transform="translate(1363,217)" d="m0 0 4 4 4 7v5l-2-3-6-10z" fill="#D39D2C"/>
<path transform="translate(1496,244)" d="m0 0h2v2l-8 7-3-2z" fill="#DEA228"/>
<path transform="translate(1223,182)" d="m0 0 3 2-10 5h-2l2-4z" fill="#DCA32B"/>
<path transform="translate(1487,343)" d="m0 0 7 4v2l2 1v2l-5-2-4-4z" fill="#DFA52A"/>
<path transform="translate(759,356)" d="m0 0h1l-1 11-3 2 1-9z" fill="#E0A529"/>
<path transform="translate(1799,132)" d="m0 0h2l1 5-3 3h-2v-2h-2v-2h4z" fill="#E8AA26"/>
</svg>
