<?xml version="1.0" encoding="UTF-8"?>
<svg version="1.1" viewBox="0 0 2048 414" width="2048" height="611" preserveAspectRatio="xMidYMid meet" xmlns="http://www.w3.org/2000/svg">
<path transform="translate(0)" d="m0 0h2048v414h-2048z" fill="#110149"/>
<path transform="translate(1843,66)" d="m0 0h12l19 2 5 2v2h14l3 2 7 2v3l5 1 9 4 9 5 8 7 7 11 4 15 1 11v29l-79 1-2-1v2l5 1 19 10 14 8 20 13 11 9 8 10 5 10 4 14 2 19v18l-3 19-5 13-3 6-5 5-12 11-14 7-17 4-11 1-9 2h-18l-16-1-9-1-18-4-16-8-7-5-2-4-4-1v-2l-4-2-5-4-6-11-5-13-3-23-1-12 1-9 5-9 8-6 11-2h5l4-2-1-3-3-1 1-8-10-10-8-9-10-14-4-21-2-4v-3l-2-1v-5l2-2-19-1-13 2-1 4h2v7l-2 11-1 163-2 5-6 2h-46l-9 1h-11l-10 1-6-1 1-2h-12l-7 2-5 1-21-1h-103l3-1v-2h-6l-9-4-6 1v3l-9 3h-46l-3-1h-30v-1l-7-1-1-11h-2l-2-16-1-29-2-114-1-14-3-7-13-1h-10l-6 2-3 2-2 11-1 12v154l-2 9-2 2-5 1-37 1-22-1h-20l-4-1-2-8-2-1-3-40v-125l-1-8-1-2 1-7-11-1-9 1-16 2-3 15-6 7h-2v2h-20l-2 4 2 4-5 3-1 5 4 2 14 10 13 13 4 7 3 15 3 19 1 12v20l-3 16-2 5h-2v-2l-4 2-2-1-2 5-7 8-9 7-7 4-21 7-13 3-10 1h-30l-15-2-15-4-19-8-13-10-8-10-3-7-4-19-1-18v-24h77l-8-6-22-12-22-14-12-11-7-10-5-10-3-21-1-2v-9l3-24 4-10 6-10 9-9 9-6 19-7 22-4h36l23 4 14 3 13 4 6 2 7 1 6 4 1-5 6-9h2v-2l6-2h150l10 1 4-1h71l13 1h23l3 2 2 10 1 6 3-2 3-7 6-8 3-2h49l3 1 22 1 7-2 9 3h3l6-3h139l22 3h8l11-1 8 3 5 6 7-2 14-5 5-2 9-2 4-2z" fill="#0C042C"/>
<path transform="translate(0)" d="m0 0h2048v414h-2048zm9 15-1 58v299l1 31h2035v-388z" fill="#0B042D"/>
<path transform="translate(9,15)" d="m0 0h2035v388h-2035l-1-31v-299zm11 11v366h2012v-366z" fill="#FBE90D"/>
<path transform="translate(92,77)" d="m0 0h99l33 3 18 4 14 7 12 11 6 10 3 4 2 15v156l-2 14-6 11-6 7-13 8-13 4-15 2h-132l-1-37v-163z" fill="#FBE90D"/>
<path transform="translate(298,77)" d="m0 0h86l1 25v180l3 5 7-1 1-10 1-71 1-128h86l1 1v165l-1 31-2 2 1 1v8l-3 11-8 13-9 10-13 9-14 5-14 4-15 2h-29l-19-3-19-6-15-8-10-8-6-7-8-15-2-13-1-24z" fill="#FBE90D"/>
<path transform="translate(505,77)" d="m0 0h96l28 2 17 3 14 6 12 10 7 10 4 9 2 9 1 9 1 1v29l-1 3h-2l1 7-3 10-8 10-9 4h-2l1 4 8 4 6 8 4 4 4 11 1 9v94h-81l-1-90-1-14-5-5-8-1v110h-86z" fill="#FBE90D"/>
<path transform="translate(729,77)" d="m0 0h118l3 2 5 27 24 134 8 45 8 44v4h-88l-1-1-4-43h-19l-3 39-1 5h-90l-1-2h2l3-24 5-34 13-80 7-44 8-52z" fill="#FBE90D"/>
<path transform="translate(1837,72)" d="m0 0h35l20 3 14 4 11 5 9 5 8 7 7 11 4 15 1 11v29l-79 1-2-1v2l5 1 19 10 14 8 20 13 11 9 8 10 5 10 4 14 2 19v18l-3 19-5 13-6 7-10 8-19 9-17 5-14 2h-32l-18-2-8-3-12-4-12-6-10-7-9-10-6-16-2-9v-12l-2-4v-29h77l-10-8-15-8-17-10-11-7-10-9-7-10-4-8-3-12-1-10v-18l3-21 4-11 8-11 12-9 10-5 15-5z" fill="#FBE90D"/>
<path transform="translate(1074,72)" d="m0 0h36l23 4 17 6 11 6 9 8 6 9 4 10 1 8 1 25v13l-1 1h-77l-2-4-1-25-3-9h-6l-5 5-2 5v9l4 10 7 6 10 6 19 10 12 7 11 6 12 9 14 12 7 10 4 11 3 14 1 12v27l-2 2v8l-5 13-6 8-9 8-10 6-21 7-13 3-10 1h-30l-15-2-15-4-19-8-13-10-8-10-3-7-4-19-1-18v-24h77l-8-6-22-12-22-14-12-11-7-10-5-10-3-21-1-2v-9l3-24 4-10 6-10 9-9 9-6 19-7z" fill="#FBE90D"/>
<path transform="translate(20,26)" d="m0 0h2012v366h-2012zm30 5-21 2-3 1-1 4v324l1 6v16l3 1 1-1 5 2 20 2h31l27-1h547l25-1 14 1h388l10-1 18 1h121l19-1 61 1h28l54-1h14l34 1 64-1h81l111 1h190l77 1h27l26-2 3-4 1-4 2-30 1-43v-18l-1-1-1-21-1-112-1-9-3-13h-2v-2l-10 3-14 6-10 1-12-3-15-7-3 1-2 8v8l-2 17-6 2-4 3h-13l-10 3v1l-10 2-1 3 3 3h2l2 4 4 2 1 3h2l1 3 6 4h2l2 4 8 7 8 14 6 18 1 4 2 21v18l-1 2-1 11-1 3-6 2-2 6v-2l4-13 2-15v-18l-2-19-6-19-7-10-7-8-14-10-14-9-23-13-10-5-5-1v-2l3 1 78-1v-29l-2-16-4-12-8-11-9-7-7-4 2 1h7v2l9 3 2 4 6 2 2 3h2l1 2v-2h3l7-11 4-4v-2l15-6 8-3h9l14 5h10l4-5 3-6v-31l-4-3-19-1z" fill="#0E052A"/>
<path transform="translate(1076,67)" d="m0 0h25l12 2 3 3v1h-42l-25 5-16 6-11 8-7 7-8 15-3 20-1 8v9l1 2 3 21 8 15 9 10 12 9 20 12 20 11 7 6-4 1-74-1 2 42 4 19 5 10 7 8 13 9 20 8 12 3 15 2h30l15-2 21-6 12-5 11-8 8-9 2-2 1 3-7 9-7 7-7 5-18 8-1 1-12 2-19 2h-40l-9-3-3-3 1 3-12-2-14-7-11-7-10-9-9-13-3-8-4-12-2-7v-22l-4 1-4 2-13-1-42-1-26 1-10 1v3h-2l-2 11v10l1 14 2 7 1 12 3 8v13l-5 2-9 1h-47l-13-1h-17l-6-2-4-5-1-4-4-2-5-2-2 8-3 5-11 4-30-1-21 1h-23l-6-1h-64l-12 1v-1h-8v-2l-9 2-3-2-1-57-1 54-1 3-3 1-3-1v2l-3 1h-37l-21-2-16 1-9-2-4-8-5-26-1-4h-3v2h-2v2l-4 3h-2v2l-6 4-2 1-1-3 8-14 2-9v-8-3h2v-196l-86-1v128l-1 71-1 10-3 2h-5l-4-6v-205l4 2 4-4h2l1-2 9 1v-2l5 1h9l2-1h37l10 1h15l7 3 3 7v6l4 1 5-11h2l1-4 5-2 7-1h71l17 2 6 4-105-1v256h86l-1-32v-19l1-59h8l6 6 1 14v90h81l-1-94-2-13-4-9-10-10-7-4v-4l12-6 6-8 3-10v-7h2v-32l-1-1-2-14-4-11-6-9-4-5-11-8-7-3 4-1 4 1 9 3v2l4 2 6 7v2l4 2 4 8 6 19 1 6 2 1 3 2v2l7 1 1 5h3l1-6 1-1v-7l6-19 3-25 4-10h2l1-3 11-3h8l5-1h59l21 2 7 1h12l5 5 4 14v8l2 5 2 9 1 2 3 23 2 7 3 19 3 18 3 12 1 3h2l2 5-1 2 9-1v-3l6-3h9l13 1h59l8-1 6 2 5 9v2h2l3 7 1 1h12l4-1 4 1-1 4 12 1 3-1-3-1v-3l-6 1-1-4-5 1v-4l1-4-4-6-13-13-5-14-2-4-3-16v-24l2-17 11-22 7-8 12-7 8-3 9-4 10-2 4-2 14-1zm-347 10-10 67-6 36-11 69-8 49-3 25-1 8-2 1 1 1h90l2-18 2-26h19l4 43 1 1h88l-1-9-9-50-7-40-13-73-12-66-3-16-3-2z" fill="#0B042D"/>
<path transform="translate(1586,77)" d="m0 0h179l1 1 1 58h-49v196l-1 1h-85l-1-196-44-1-1-1z" fill="#FBE90D"/>
<path transform="translate(1188,77)" d="m0 0h179l1 1v58h-48v197h-86v-197h-45z" fill="#FBE90D"/>
<path transform="translate(1484,77)" d="m0 0h86v198h47v58h-133z" fill="#FBE90E"/>
<path transform="translate(1374,77)" d="m0 0h88v256l-87 1-1-1z" fill="#FBE90E"/>
<path transform="translate(0)" d="m0 0h2048v13h-18v-2l-14-1h-97l-165 1h-426l-153-1h-15l-51 1h-1053l-35-1-12-2v2l-4 2-2 8h-3z" fill="#100149"/>
<path transform="translate(1192,72)" d="m0 0h152l10 1 4-1h71l13 1h23l3 2 2 10 1 6 3-2 3-7 5-5h2v256h133v1l-134 1-9-4-6 1v3l-9 3h-46l-3-1h-30v-1l-7-1-1-11h-2l-2-16-1-29-2-114-1-14-3-7-13-1h-10l-6 2-3 2-2 11-1 12v154l-2 9-2 2-5 1-37 1-22-1h-20l-4-1v-2h86v-197h48l-1-58-179-1 1 10v49h45v196h-1l-1-5-2-1-3-40v-125l-1-8-1-2 1-7-11-1-9 1-16 2-3 15-6 7h-2v2h-20l-2 4 2 4-5 3-1 5 4 2 14 10 13 13 4 7 3 15 3 19 1 12v20l-3 16-2 5h-2v-2l-4 2-1-3 3-9v-9l3-1-1-27-2-16-3-13-4-10-9-11-11-9-16-11-6-3-18-10-13-7-14-9-5-6-3-8v-9l4-8 4-3 6 1 4 9 1 25 1 4 77-1v-13l-1-25-2-11-6-12-6-7-10-7-16-7 4-1 7 2 15 5 7 1 6 4 1-5 6-9h2v-2zm182 5v256l3 1 85-1v-256z" fill="#0C052C"/>
<path transform="translate(1076,67)" d="m0 0h25l12 2 3 3v1h-42l-25 5-16 6-11 8-7 7-8 15-3 20-1 8v9l1 2 3 21 8 15 9 10 12 9 20 12 20 11 7 6-4 1-74-1 2 42 4 19 5 10 7 8 13 9 20 8 12 3 15 2h30l15-2 21-6 12-5 11-8 8-9 2-2 1 3-7 9-7 7-7 5-18 8-1 1-12 2-19 2h-40l-9-3-3-3 1 3-12-2-14-7-11-7-10-9-9-13-3-8-4-12-2-7v-22l-4 1-4 2-13-1-42-1-26 1-10 1v3h-2l-2 11v10l1 14 2 7 1 12 3 8v13l-5 2-9 1h-47l-13-1h-17l-6-2-4-5-1-4-4-2-5-2-2 8-3 5-11 4-30-1-21 1h-23l-6-1h-64l-12 1v-1h-8v-2l-2-1 171-1 2-18 2-23 1-3 19-1 1 1 4 43 88 1-6-32-10-54-8-47-14-77-7-40-1-4-2-2 5-1 4 6 3 12v8l2 5 2 9 1 2 3 23 2 7 3 19 3 18 3 12 1 3h2l2 5-1 2 9-1v-3l6-3h9l13 1h59l8-1 6 2 5 9v2h2l3 7 1 1h12l4-1 4 1-1 4 12 1 3-1-3-1v-3l-6 1-1-4-5 1v-4l1-4-4-6-13-13-5-14-2-4-3-16v-24l2-17 11-22 7-8 12-7 8-3 9-4 10-2 4-2 14-1z" fill="#0C042C"/>
<path transform="translate(9,15)" d="m0 0h2035v388h-2035l-1-31v-299l2 4 2 7v19h2l-1 7 1 4v2 16 2 15l1 4v14l-1 5 1 10-1 3 1 10-1 5 1 3 1-2h2l-1-4v-7h-1v-5h1v-10l-1-4 1-3 1-77 1-65 1-1 30-1h1980l3 1 1 205v20l1 51-1 89-1 3h-2014l-1-31v-13l-1-27v-3l-1-6h2l-1-40-2 4v16l-1 9h-2l2 6-2 3 2 1-1 1 1 2-1 4 1 3h-2l1 5-2 39-1 36 2032-1-1-24v-302l1-57 1-2-167 1h-838l-1028-1v8h-1zm11 11v366h2012v-366z" fill="#E4CF34"/>
<path transform="translate(1843,66)" d="m0 0h12l19 2 5 2v2h14l3 2 7 2v2l-11-2-20-3h-35l-22 4-18 7-14 10-6 8-4 7-3 13-2 15v18l2 15 4 11 8 13 7 7 19 12 14 8 16 9 8 7-3 1-75-1 1 29 2 5v11l3 12 5 13 10 11 15 9 14 5 10 3 1 1 18 2h32l18-3 18-6 17-9 7-6 4-4-2 6-11 9-5 5-14 7-17 4-11 1-9 2h-18l-16-1-9-1-18-4-16-8-7-5-2-4-4-1v-2l-4-2-5-4-6-11-5-13-3-23-1-12 1-9 5-9 8-6 11-2h5l4-2-1-3-3-1 1-8-10-10-8-9-10-14-4-21-2-4v-3l-2-1v-5l2-2-19-1-13 2-1 4h2v7l-2 11-1 163-2 5-6 2h-46l-9 1h-11l-10 1-6-1 2-4-3-1 85-1v-48l1-148h49l-1-12-1-46-179-1v-1l168-1 11-1 8 3 5 6 7-2 14-5 5-2 9-2 4-2z" fill="#0C052C"/>
<path transform="translate(1611,142)" d="m0 0 12 1 1 9 1 24v29l-1 31v24l-2 6-10 3h-18l-18-2v-114l2-2h2l5-6 5-2z" fill="#11014A"/>
<path transform="translate(751,72)" d="m0 0h59l21 2 18 2v1h-120l-1 12-8 55-6 36-11 69-8 49-1 9-2 7h-4l-1-74-2-4-1-10-4-9-10-10-7-4v-4l12-6 6-8 3-10v-7h2v-32l-1-1-2-14-4-11-6-9-4-5-11-8-7-3 4-1 4 1 9 3v2l4 2 6 7v2l4 2 4 8 6 19 1 6 2 1 3 2v2l7 1 1 5h3l1-6 1-1v-7l6-19 3-25 4-10h2l1-3 11-3h8z" fill="#0C042D"/>
<path transform="translate(297,78)" d="m0 0h1l1 21v156l1 24 2 13 9 17-2 2-3-2v-3h-2v-2h-3l-2-5h-2v-2l-5-2-3-1-3 4-3 7h-2l-2 5-8 6-5 2 2-4 4-5 4-8 2-14v-156l-2-15-5-8-7-9-8-7-5-4 6 1 5 2 11 7 8 10 6 9h2l2-9 3-21 1-3h2z" fill="#0C042C"/>
<path transform="translate(1117,13)" d="m0 0h870l59 1 2 1v387l-4 1v-388h-2035v388h-1l-1-26v-360l1-3z" fill="#240E16"/>
<path transform="translate(893,207)" d="m0 0h99v42h-99z" fill="#FBE90E"/>
<path transform="translate(1981,76)" d="m0 0h14l12 6 7 8 3 7v17l-5 9-7 7-10 5-9 1-9-2-9-6-7-9-3-7v-14l5-10 8-8z" fill="#220D17"/>
<path transform="translate(19,26)" d="m0 0h1v324l-2-1-1-27v-3l-1-6h2l-1-40-2 4v16l-1 9h-2l2 6-2 3 2 1-1 1 1 2-1 4 1 3h-2l1 5-2 39-1 7-2-1v-299l2 4 2 7v19h2l-1 7 1 4v2 16 2 15l1 4v14l-1 5 1 10-1 3 1 10-1 5 1 3 1-2h2l-1-4v-7h-1v-5h1v-10l-1-4 1-3 1-77z" fill="#E4CF33"/>
<path transform="translate(180,129)" d="m0 0 9 1 5 8v96l-1 33-2 10-6 5-6 1-1-1v-145l1-7z" fill="#0A042E"/>
<path transform="translate(591,223)" d="m0 0h8l6 6 1 14v90h81v-93h1l1 73h2l2-4-1 14-3 9 89 1v1l-171 1-4 2-5-1-1-1-1-57-1 54-1 3-3 1-2-1-85-1v-81h1v80h86l-1-32v-19z" fill="#0F052A"/>
<path transform="translate(795,288)" d="m0 0h7l1 1 4 43v2h87l-1 2-7 1h-47l-13-1h-17l-6-2-4-5-1-4-4-2-5-2-2 8-3 5-11 4-30-1-21 1h-23l-6-1h-64l-12 1v-1h-8v-2l-2-1 171-1 2-18 2-23 1-3z" fill="#0B042D"/>
<path transform="translate(2044,14)" d="m0 0 4 1v387l-4 1z" fill="#210D18"/>
<path transform="translate(139,72)" d="m0 0h32l20 2 5 1h6l1 2h20l8 2 3 3-18-2-25-2-99-1v256l132-1 15-2 15-5 9-6 3 1-3 5-8 5-8 4-29 3h-82l-7-1h-34v-2h-5l-1-254 1-4h20v-2l10-1h13z" fill="#170921"/>
<path transform="translate(1843,66)" d="m0 0h12l19 2 5 2v2h14l3 2 7 2v2l-11-2-20-3h-35l-22 4-18 7-14 10-6 8-4 7-3 13-3 26h-1l-1-12h2l-1-12-1-46-179-1v-1l168-1 11-1 8 3 5 6 7-2 14-5 5-2 9-2 4-2z" fill="#0F0629"/>
<path transform="translate(1981,76)" d="m0 0h14l12 6 7 8 3 7v17l-5 9-7 7-10 5-9 1-9-2-9-6-7-9-3-7v-14l5-10 8-8zm5 6-7 2-10 8-3 6-1 4v7l3 8 7 7 10 4 10-1 6-4 5-4 4-6v-14l-3-6-4-5-10-5z" fill="#F7E514"/>
<path transform="translate(384,77)" d="m0 0 2 2 1 50 1 9 1 41v48l1 50 1 9 4 1-7 1-4-6z" fill="#240E16"/>
<path transform="translate(1849,239)" d="m0 0 5 1 9 7 5 8 2 6v16l-4 8-3 3h-7l-5-4-1-2z" fill="#0B042D"/>
<path transform="translate(1087,240)" d="m0 0 5 1 8 7 4 4 2 13v9l-2 9-4 4h-12l-2-8v-38z" fill="#0C052C"/>
<path transform="translate(1983,89)" d="m0 0h9l8 4 1 2v7l-4 5 1 5 3 4-1 4h-7l-6-9-6-1 2 5-1 4-1 1h-5l-2-2v-20l2-6z" fill="#F7E414"/>
<path transform="translate(471,309)" d="m0 0 1 3-2 4-5 3v2h-2v2l-8 7-17 8-10 1-3-1-2 2-20 3h-33l-9-2-1-3-9 1-8-5-4-2-10-4-2-2-10-6-3-5 1-2 10 8 17 9 21 6 15 2h29l15-2 21-6 10-5 12-9z" fill="#0E052B"/>
<path transform="translate(591,129)" d="m0 0 7 1 6 2 2 9v18l-1 9-6 5-9 1z" fill="#0D042E"/>
<path transform="translate(1092,123)" d="m0 0 6 1 4 9 1 25 1 4h7l1 3-5 2-9-6-8-6-4-6-2-6v-9l4-8z" fill="#0C042C"/>
<path transform="translate(1181,306)" d="m0 0 2 3-7 9-7 7-7 5-18 8-1 1-12 2-19 2h-40l-9-3-1-2-5-3 2-1 9 2 15 2h30l15-2 21-6 12-5 11-8 8-9z" fill="#0E052A"/>
<path transform="translate(789,181)" d="m0 0 5 1 4 42 2 11h-17l1-10 3-20z" fill="#0E052A"/>
<path transform="translate(1854,124)" d="m0 0h9l1 1 1 37-5-2-6-4-5-8-1-4v-10l2-7z" fill="#0B042D"/>
<path transform="translate(516,72)" d="m0 0h71l17 2 6 4-106-1v-2l5-2z" fill="#0E052A"/>
<path transform="translate(607,334)" d="m0 0h170v2l-6 2-28-1-21 1h-23l-6-1h-64l-12 1v-1h-8v-2z" fill="#0A042F"/>
<path transform="translate(263,319)" d="m0 0 3 1-3 5-8 5-8 4-29 3h-82l-7-1h-34v-2l127-1 2-1 15-2 15-5z" fill="#0B042D"/>
<path transform="translate(751,72)" d="m0 0h59l21 2 18 2v1h-24l-96-1 4-2 5-1h8z" fill="#0A042F"/>
<path transform="translate(139,72)" d="m0 0h32l20 2 5 1h6l1 2h20l8 2 3 3-18-2-25-2-22-1-59-1v-2l10-1h13z" fill="#0A032F"/>
<path transform="translate(687,240)" d="m0 0h1l1 73h2l2-4-1 14-3 9 89 1v1h-172v-1h81z" fill="#240E16"/>
<path transform="translate(303,72)" d="m0 0 15 1 7-1 42 2 9 1 5-1 4 2v1h-87v-2z" fill="#110628"/>
<path transform="translate(180,129)" d="m0 0 2 1-1 2-1 29v119l8-1-3 3-6 1-1-1v-145l1-7z" fill="#240E16"/>
<path transform="translate(191,134)" d="m0 0 3 4v96l-1 33h-1z" fill="#240E16"/>
<path transform="translate(1234,333)" d="m0 0h80l5 1-2 2-37 1-22-1h-20l-4-1z" fill="#120726"/>
<path transform="translate(1986,82)" d="m0 0 10 2 9 6v2l-6-1-2 1-5-2h-9l-7 3-1 5v16h-1l-2-18-4-1 3-5 10-7z" fill="#230D16"/>
<path transform="translate(505,334)" d="m0 0h84l-1 3-3 1h-37l-21-2-16 1-6-2z" fill="#0A042F"/>
<path transform="translate(809,334)" d="m0 0h85l-1 2-7 1h-47l-13-1h-17z" fill="#0A042F"/>
<path transform="translate(1983,89)" d="m0 0h9l8 4-1 2-6-3h-2l1 10-1 1h-11l-3-7 1-3h3l1-2-3-1z" fill="#E4CF34"/>
<path transform="translate(314,313)" d="m0 0 8 6 14 8 9 4 18 5v1l-8 2-6-1-6-4-4-2-10-4-2-2-10-6-3-5z" fill="#110628"/>
<path transform="translate(2e3 90)" d="m0 0 5 1 5 3 1 2v14l-5 2-3-3-1-7v-7z" fill="#0D052B"/>
<path transform="translate(1815,234)" d="m0 0h28l3 4-78-1v-1h47z" fill="#220D17"/>
<path transform="translate(2015,410)" d="m0 0h26l2 4h-39l3-3z" fill="#11014A"/>
<path transform="translate(1967,95)" d="m0 0 5 1 2 10v9h-4v-2h-2l-2-6v-9z" fill="#0B042D"/>
<path transform="translate(1075,233)" d="m0 0 6 2 2 3-78-1v-1l49-1 1-1h19z" fill="#230D16"/>
<path transform="translate(15,205)" d="m0 0h3v13 1 22l-3 1-1-9-1-3 1-4-2-1h3l-2-8 1-10z" fill="#FAE70F"/>
<path transform="translate(1766,89)" d="m0 0h1l1 31 2-2-1 14-2 16h-1l-1-12h2l-1-12z" fill="#240E16"/>
<path transform="translate(341,331)" d="m0 0 9 1 13 4v1l-8 2-6-1-9-6z" fill="#0F0629"/>
<path transform="translate(1975,106)" d="m0 0 1 4h5l2 5-1 4-1 1h-5l-2-2z" fill="#F5E217"/>
<path transform="translate(196,75)" d="m0 0h6l1 2h20l8 2 3 3-18-2-25-2v-1l5-1z" fill="#150823"/>
<path transform="translate(1101,133)" d="m0 0h1l1 25 1 4h7l1 3-5 2-9-6 1-3h2z" fill="#220D17"/>
<path transform="translate(1986,95)" d="m0 0 5 3 1 4-1 1h-7l-3-2 1-5z" fill="#240E16"/>
<path transform="translate(789,181)" d="m0 0 5 1v12h-5z" fill="#240E16"/>
<path transform="translate(1849,239)" d="m0 0 5 1-2 2-1 40h-1z" fill="#220D17"/>
<path transform="translate(1885,72)" d="m0 0h8l3 2 7 2v2l-22-4z" fill="#120726"/>
<path transform="translate(15,205)" d="m0 0h3v13l-3 4-2-5 1-10z" fill="#FBE90D"/>
<path transform="translate(1085,132)" d="m0 0 2 4 1 12-2 1-2-6v-9z" fill="#210D18"/>
<path transform="translate(1975,106)" d="m0 0 1 4h5l2 5-1 4-2-1-2-4-3-2z" fill="#E5D031"/>
<path transform="translate(1181,306)" d="m0 0 2 3-6 8-5 1 6-7z" fill="#14062F"/>
<path transform="translate(1865,162)" d="m0 0h13l-1 3-6 2-2-2-4-1z" fill="#2E1918"/>
<path transform="translate(1126,71)" d="m0 0 5 2 1 3-9-1-5-1v-1z" fill="#110727"/>
<path transform="translate(471,309)" d="m0 0 1 3-2 4-5 3-5 2 5-5z" fill="#13062D"/>
<path transform="translate(1942,310)" d="m0 0v3l-2 4-7 5v-3l6-5z" fill="#13062E"/>
<path transform="translate(700,198)" d="m0 0 1 3-2 5-3 1-3-1 2-4 4-2z" fill="#11014A"/>
<path transform="translate(1849,145)" d="m0 0 3 1v2l4-1v3h-2l-2 4-3-6z" fill="#1E0B1B"/>
</svg>
