<svg xmlns="http://www.w3.org/2000/svg" xmlns:xlink="http://www.w3.org/1999/xlink" data-stacking-context="true" aria-owns="root" width="311.3333435058594" height="46" viewBox="32 32 311.3333435058594 46"><!-- Generated by dom-to-svg from about:srcdoc --><style/><g data-stacking-layer="rootBackgroundAndBorders"/><g data-stacking-layer="childStackingContextsWithNegativeStackLevels"/><g data-stacking-layer="inFlowNonInlineNonPositionedDescendants"/><g data-stacking-layer="nonPositionedFloats"/><g data-stacking-layer="inFlowInlineLevelNonPositionedDescendants"/><g data-stacking-layer="childStackingContextsWithStackLevelZeroAndPositionedDescendantsWithStackLevelZero"/><g data-stacking-layer="childStackingContextsWithPositiveStackLevels"/><g data-tag="div" id="root" data-z-index="auto" data-stacking-context="true" aria-owns="button1"><g data-tag="button" id="button1" class="button" data-z-index="auto" data-stacking-context="true" role="button" aria-labelledby="" aria-owns="svg1"><g data-stacking-layer="rootBackgroundAndBorders"><rect width="222" height="46" x="32" y="32" fill="rgb(0, 0, 0)" rx="8" ry="8"/></g><g data-tag="svg" id="svg1" data-z-index="auto" data-stacking-context="true" mask="url(#mask-for-svg11)"><g data-stacking-layer="rootBackgroundAndBorders"/><g data-stacking-layer="childStackingContextsWithNegativeStackLevels"/><g data-stacking-layer="inFlowNonInlineNonPositionedDescendants"/><g data-stacking-layer="nonPositionedFloats"/><g data-stacking-layer="inFlowInlineLevelNonPositionedDescendants"/><g data-stacking-layer="childStackingContextsWithStackLevelZeroAndPositionedDescendantsWithStackLevelZero"/><g data-stacking-layer="childStackingContextsWithPositiveStackLevels"/><mask id="mask-for-svg11"><rect width="30" height="30" x="54.395835876464844" y="40" fill="#ffffff"/></mask><g class="svg-content" data-view-box="0 0 24 24" data-width="" data-height="" transform="matrix(1.25 0 0 1.25 54.3958 40)"><g stroke-width="0px" id="svg1-SVGRepo_bgCarrier" color="rgb(255, 255, 255)" fill="rgb(255, 255, 255)" stroke="rgb(255, 255, 255)"/><g stroke-linejoin="round" stroke-linecap="round" id="svg1-SVGRepo_tracerCarrier" color="rgb(255, 255, 255)" fill="rgb(255, 255, 255)" stroke="rgb(255, 255, 255)"/><g id="svg1-SVGRepo_iconCarrier" color="rgb(255, 255, 255)" fill="rgb(255, 255, 255)" stroke="rgb(255, 255, 255)"> <path d="M18.71 19.5C17.88 20.74 17 21.95 15.66 21.97C14.32 22 13.89 21.18 12.37 21.18C10.84 21.18 10.37 21.95 9.09997 22C7.78997 22.05 6.79997 20.68 5.95997 19.47C4.24997 17 2.93997 12.45 4.69997 9.39C5.56997 7.87 7.12997 6.91 8.81997 6.88C10.1 6.86 11.32 7.75 12.11 7.75C12.89 7.75 14.37 6.68 15.92 6.84C16.57 6.87 18.39 7.1 19.56 8.82C19.47 8.88 17.39 10.1 17.41 12.63C17.44 15.65 20.06 16.66 20.09 16.67C20.06 16.74 19.67 18.11 18.71 19.5ZM13 3.5C13.73 2.67 14.94 2.04 15.94 2C16.07 3.17 15.6 4.35 14.9 5.19C14.21 6.04 13.07 6.7 11.95 6.61C11.8 5.46 12.36 4.26 13 3.5Z" color="rgb(255, 255, 255)" fill="rgb(255, 255, 255)" stroke="rgb(255, 255, 255)"/> </g></g></g><text color="rgb(255, 255, 255)" dominant-baseline="text-after-edge" font-family="system-ui, sans-serif" font-size="14px" font-size-adjust="none" font-stretch="100%" font-style="normal" font-variant="normal" font-weight="700" direction="ltr" letter-spacing="normal" text-decoration="none" text-anchor="start" text-rendering="auto" unicode-bidi="normal" word-spacing="0px" writing-mode="horizontal-tb" user-select="auto" fill="rgb(255, 255, 255)"><tspan xml:space="preserve" x="96.39583587646484" y="64.33333587646484" textLength="135.20834350585938" lengthAdjust="spacingAndGlyphs">Continue with Apple</tspan></text></g></g></svg>