<svg xmlns="http://www.w3.org/2000/svg" xmlns:xlink="http://www.w3.org/1999/xlink" data-stacking-context="true" aria-owns="root" width="311.3333435058594" height="41.333335876464844" viewBox="32 32 311.3333435058594 41.333335876464844"><!-- Generated by dom-to-svg from about:srcdoc --><style/><g data-stacking-layer="rootBackgroundAndBorders"/><g data-stacking-layer="childStackingContextsWithNegativeStackLevels"/><g data-stacking-layer="inFlowNonInlineNonPositionedDescendants"/><g data-stacking-layer="nonPositionedFloats"/><g data-stacking-layer="inFlowInlineLevelNonPositionedDescendants"/><g data-stacking-layer="childStackingContextsWithStackLevelZeroAndPositionedDescendantsWithStackLevelZero"/><g data-stacking-layer="childStackingContextsWithPositiveStackLevels"/><g data-tag="div" id="root" data-z-index="auto" data-stacking-context="true" aria-owns="button1"><g data-tag="button" id="button1" class="button" data-z-index="auto" data-stacking-context="true" role="button" aria-labelledby="" aria-owns="svg1"><g data-stacking-layer="rootBackgroundAndBorders"><rect width="254" height="41.333335876464844" x="32" y="32" fill="rgb(255, 255, 255)" stroke="rgba(0, 0, 0, 0.25)" stroke-width="0.666667px" rx="8" ry="8"/></g><g data-tag="svg" id="svg1" data-z-index="auto" data-stacking-context="true" mask="url(#mask-for-svg11)"><g data-stacking-layer="rootBackgroundAndBorders"/><g data-stacking-layer="childStackingContextsWithNegativeStackLevels"/><g data-stacking-layer="inFlowNonInlineNonPositionedDescendants"/><g data-stacking-layer="nonPositionedFloats"/><g data-stacking-layer="inFlowInlineLevelNonPositionedDescendants"/><g data-stacking-layer="childStackingContextsWithStackLevelZeroAndPositionedDescendantsWithStackLevelZero"/><g data-stacking-layer="childStackingContextsWithPositiveStackLevels"/><mask id="mask-for-svg11"><rect width="23.447917938232422" height="24" x="55.0625" y="40.66666793823242" fill="#ffffff"/></mask><g class="svg-content" data-view-box="0 0 256 262" data-width="" data-height="" transform="matrix(0.0915934 0 0 0.0915934 55.0625 40.6679)">
  <path fill="rgb(66, 133, 244)" d="M255.878 133.451c0-10.734-.871-18.567-2.756-26.69H130.55v48.448h71.947c-1.45 12.04-9.283 30.172-26.69 42.356l-.244 1.622 38.755 30.023 2.685.268c24.659-22.774 38.875-56.282 38.875-96.027" color="rgb(65, 63, 63)" stroke="none"/>
  <path fill="rgb(52, 168, 83)" d="M130.55 261.1c35.248 0 64.839-11.605 86.453-31.622l-41.196-31.913c-11.024 7.688-25.82 13.055-45.257 13.055-34.523 0-63.824-22.773-74.269-54.25l-1.531.13-40.298 31.187-.527 1.465C35.393 231.798 79.49 261.1 130.55 261.1" color="rgb(65, 63, 63)" stroke="none"/>
  <path fill="rgb(251, 188, 5)" d="M56.281 156.37c-2.756-8.123-4.351-16.827-4.351-25.82 0-8.994 1.595-17.697 4.206-25.82l-.073-1.73L15.26 71.312l-1.335.635C5.077 89.644 0 109.517 0 130.55s5.077 40.905 13.925 58.602l42.356-32.782" color="rgb(65, 63, 63)" stroke="none"/>
  <path fill="rgb(235, 67, 53)" d="M130.55 50.479c24.514 0 41.05 10.589 50.479 19.438l36.844-35.974C195.245 12.91 165.798 0 130.55 0 79.49 0 35.393 29.301 13.925 71.947l42.211 32.783c10.59-31.477 39.891-54.251 74.414-54.251" color="rgb(65, 63, 63)" stroke="none"/>
</g></g><text color="rgb(65, 63, 63)" dominant-baseline="text-after-edge" font-family="system-ui, sans-serif" font-size="14px" font-size-adjust="none" font-stretch="100%" font-style="normal" font-variant="normal" font-weight="700" direction="ltr" letter-spacing="normal" text-decoration="none" text-anchor="start" text-rendering="auto" unicode-bidi="normal" word-spacing="0px" writing-mode="horizontal-tb" user-select="auto" fill="rgb(65, 63, 63)"><tspan xml:space="preserve" x="90.51042175292969" y="62" textLength="172.4270782470703" lengthAdjust="spacingAndGlyphs">CONTINUE WITH GOOGLE</tspan></text></g></g></svg>