<?xml version="1.0" encoding="UTF-8"?>
<svg width="320" height="110" viewBox="0 14 70 24" fill="none" xmlns="http://www.w3.org/2000/svg">
  <defs>
    <mask id="apple-pay1-cutout" maskUnits="userSpaceOnUse" x="0" y="14" width="70" height="24">
      <rect x="0.5" y="14.5" width="69" height="23" rx="3.5" fill="#FFFFFF"/>
      <g id="brand-artwork-slot" transform="translate(11.8438 16.5) scale(0.0594) translate(-600 -354)">
  <g fill="#000000">
<path transform="translate(680,422)" d="m0 0h17l15 5 6 3 11 1 13-4 11-4 5-1h20l13 4 12 7 11 11-1 4-9 7-7 9-5 11-1 5v17l3 12 4 8 5 6v2l4 2 9 6 4 4-4 13-8 15-11 16-6 7h-2v2l-9 6-8 3h-11l-24-8h-14l-11 3-15 5h-12l-10-5-14-14-9-13-8-14-6-15-6-21-2-14v-20l3-15 5-14 9-13 8-8 12-7z"/>
<path transform="translate(880,382)" d="m0 0h71l19 1 15 3 16 7 11 9 7 8 5 9 4 9 2 10v28l-2 12-6 14-9 12-10 8-16 8-9 3-12 2-51 1-1 69-1 1h-34v-213zm36 30-2 1v81l2 1h14l33-1 13-4 9-7 6-8 3-8 1-7v-11l-3-14-6-9-8-7-9-4-11-2-16-1z"/>
<path transform="translate(1093,440)" d="m0 0h33l15 4 11 6 8 7 7 11 3 9 1 12v106l-1 1h-30l-1-1v-20l-13 13-12 7-9 3-6 1h-16l-11-2-13-5-9-7-7-8-5-12-1-7v-12l2-10 7-12 9-8 11-5 10-3 12-2 22-2 25-1 1-1v-15l-4-10-6-5-8-3h-21l-8 3-6 5-6 12h-32l-1-3 5-16 6-10 8-8 10-6 10-4zm38 87-27 2-17 3-8 4-6 7-1 3v12l5 7 10 6 8 1h9l12-3 9-5 7-8 4-8 1-7v-12l-2-2z"/>
<path transform="translate(1184,441)" d="m0 0h35l3 5 7 24 7 25 12 36 9 33h2l5-18 8-26 14-45 10-33 1-1h33l2 3-5 15-9 24-10 28-13 37-9 23-9 27-10 24-6 11-9 10-9 6-11 4-6 1h-26l-1-1v-26l5-1 14-1 9-4 5-5 4-7 2-9-1-9-5-15-14-37-9-25-11-30-9-24-6-17z"/>
<path transform="translate(1299,443)" d="m0 0h30l-1 8-10 26-3 10-3 7-5 15-3 7-7 20-3 5-2-3-1-3h-15l-3 2-1 7-4 1v-6l10-31 11-36 5-15 4-13z"/>
<path transform="translate(1093,440)" d="m0 0h33l15 4 11 6 8 7 7 11 3 9 1 12v106l-1 1h-30l-1-1v-20l-13 13-12 7-9 3-6 1h-16l-11-2-13-5-9-7-7-8-5-12-1-7v-12l2-10 7-12 9-8 11-5 10-3 12-2 22-2 25-1 1-1v-15l-4-10-6-5-8-3h-21l-8 3-6 5-6 12h-32l-1-3 5-16 6-10 8-8 10-6 10-4zm2 2-9 1-11 4-8 4v2l-4 2-7 7-6 10-4 14 29 1 3-5 5-8 10-6 6-1h17l7 2 7 4 7 9 1 10v13l-6 2-2 5v5l4 4 3 5 2 2v12l-2 10-5 8v2h-2l-4 5-10 5-12 3h-9l-10-2-8-4-6-8v-15l4-6 7-5 5-2 9-2 16-2 3-1-2-4-1-4 4-4 1-7h-18l-16 2-9 2-10 4-6 2-8 5v2h-2l-5 9-3 8v22l3 10 3 5h2l2 4 8 7 8 4 5 2 12 2h17l16-5 10-7 7-7v-2h2l3-5 1-1-1-14h13l5 3 1 3-2 13-3 5-1 1h-9l-1 10 1 3h27v-108l-2-13-5-10-9-10-10-6-9-3-12-2zm36 85-27 2-17 3-8 4-6 7-1 3v12l5 7 10 6 8 1h9l12-3 9-5 7-8 4-8 1-7v-12l-2-2z"/>
<path transform="translate(766,367)" d="m0 0h6l1 1-1 13-3 10-6 11-7 8-10 7-11 4-4 1h-7l-1-1v-9l2-9 3-7 7-11 11-10 12-6z"/>
<path transform="translate(880,382)" d="m0 0h71l19 1 15 3 16 7 11 9 7 8 5 9 4 9 2 10v28l-2 12-6 14-9 12-10 8-16 8-9 3-12 2-51 1-1 69-1 1h-34v-213zm1 2v209l1 1 12 1h17l1-1 1-68 1-2 48-1 15-2 13-4 8-4 13-10 9-11 4-8 4-14v-33l-2-9-5-11-7-10-8-8-14-8-15-5-21-2z"/>
<path transform="translate(680,422)" d="m0 0h17l15 5 6 3 11 1 13-4 11-4 5-1h20l13 4 12 7 11 11-1 4-9 7-7 9-5 11-1 5v17l3 12 4 8 5 6v2l4 2 9 6 4 4-4 13-8 15-11 16-6 7h-2v2l-9 6-8 3h-11l-24-8h-14l-11 3-15 5h-12l-10-5-14-14-9-13-8-14-6-15-6-21-2-14v-20l3-15 5-14 9-13 8-8 12-7zm-1 2-12 4-14 9-7 7-6 11-5 13-2 8-1 12v12l2 16 4 15 8 22 6 10 7 11 6 8h2v2h2v2h2v2l9 7 5 2h14l19-7 5-1h13l12 3 14 5h11l9-4 10-9 2-4h2l8-12 6-11 5-10 2-5v-6l-11-7-7-7-6-10-4-14v-18l4-13 6-9 1-3h2l10-10-5-5-9-8-8-4-13-4h-19l-13 4-14 5h-10l-15-6-10-3z"/>
<path transform="translate(1169,491)" d="m0 0h2v104l-1 1h-30l-1-1v-20l-13 13-12 7-9 3-6 1h-13l-2-2 16-1 16-5 10-7 7-8h2l1-4 2-2v-14l2-1h11l6 4 1 3-2 13-3 5-2 2-9-1v13h27z"/>
<path transform="translate(1186,443)" d="m0 0h32l3 6 2 7v7l-6 2-1 3-3 1-3-2-6 1-5 5-3-1-10-25z"/>
<path transform="translate(1219,627)" d="m0 0h6v2h2l1 6-2 3v4l10 2h5l8-5 2 1-2 3h-3v2h-3v2l-11 4-8 1h-22l-1-1v-22l16-1z"/>
<path transform="translate(916,410)" d="m0 0h27l18 1 11 3 9 5 8 7 6 12 2 11v14l-4 13-7 9-11 8-6 2-15 2h-40l-2-3v-81l1-2zm0 2-2 1v81l2 1h14l33-1 13-4 9-7 6-8 3-8 1-7v-11l-3-14-6-9-8-7-9-4-11-2-16-1z"/>
<path transform="translate(1297,441)" d="m0 0h33l2 3-5 15-9 24-10 28-3 9-2-1 2-9 5-12 3-10 3-7 8-23 4-11 1-4-30 1-5 15-5 17-10 32-7 22-3 1 3-11 14-45 10-33z"/>
<path transform="translate(776,422)" d="m0 0 13 3 11 6 10 9 4 4-1 4-9 7-7 9-5 11-1 5v17l3 12 4 8 5 6v2l4 2 9 6 4 4-4 13-2 4h-2l3-10 1-2v-6l-9-5-9-9-6-10-4-14v-18l4-13 8-12h2l2-4 7-5v-3l-4-2-9-8-8-4-13-4z"/>
<path transform="translate(766,367)" d="m0 0h6l1 1-1 13-3 10-6 11-7 8-10 7-11 4-4 1h-7l-1-1v-9l2-9 3-7 7-11 6-6h2l-2 4-4 3-5 9-5 12-2 13 12-2 12-6 10-9 8-14 2-9 1-11-16 5-7 4-3-1 9-6z"/>
<path transform="translate(977,385)" d="m0 0 8 1 16 7 11 9 7 8 5 9 4 9 2 10v28l-2 12-6 14-9 12-7 6-2-1 9-9 6-8 4-8 4-14v-33l-2-9-5-11-7-10-7-7-14-8-15-5z"/>
<path transform="translate(680,422)" d="m0 0h17l15 5 6 3 11 1 13-4 11-4 5-1h18l1 2-19 1-13 4-14 5h-10l-15-6-10-3h-17l-12 4-14 9-7 6 2-4 7-7 12-7z"/>
<path transform="translate(1093,440)" d="m0 0h33l15 4 11 6 8 7 7 11 3 9 1 14h-2l-3-18-5-10-8-9-10-6-9-3-12-2h-27l-9 1-6 1 3-3z"/>
<path transform="translate(1047,524)" d="m0 0v3l-4 8-2 6v22l3 10 2 5h2l7 8 9 5 7 3 12 2 3 3-11-1-14-5-10-7-8-9-5-12-1-7v-12l2-10 6-11z"/>
<path transform="translate(965,413)" d="m0 0 7 1 9 5 8 7 6 12 2 11v14l-4 13-7 9-11 8-4-1 12-8 6-7 4-10 1-7v-11l-3-14-6-9-7-6-9-4-4-1z"/>
<path transform="translate(1007,505)" d="m0 0m-1 1m-1 1m-1 1m-2 1h2l-1 3-16 8-9 3-12 2-52 1 1-3 47-1 15-2 13-4 8-4z"/>
<path transform="translate(882,382)" d="m0 0h69l19 1 7 2v1l-21-1-75-1z"/>
<path transform="translate(645,445)" d="m0 0v3l-7 14-4 14-1 12v12l2 16 2 8v5l-2-1-4-17-1-8v-20l3-15 5-14 5-8z"/>
<path transform="translate(636,529)" d="m0 0h2l9 24 6 10 7 11 5 6v2h2v2h2v2h2v2l4 2 5 4 6 3-1 2-10-5-14-14-9-13-8-14-6-15z"/>
<path transform="translate(1218,625)" d="m0 0 2 1-3 3h-16l1 22 22 1 2 2h-26l-1-1v-26l5-1z"/>
<path transform="translate(1072,543)" d="m0 0 1 3v12l4 6 10 6 8 1h9l12-2v2l-12 3h-9l-10-2-8-4-7-9v-14z"/>
<path transform="translate(766,367)" d="m0 0h6l1 1-1 13-1 4h-2l1-16-16 5-7 4-3-1 9-6zm-23 11m-2 1h2l-2 4-6 4 2-4z"/>
<path transform="translate(1139,444)" d="m0 0 6 2 10 6 8 9 5 9 2 7 1 14h-2l-3-18-5-10-8-9-10-6-4-2z"/>
<path transform="translate(1080,443)" d="m0 0m-3 1 3 1-10 6h-3v2l-8 7-6 8-4 10-3 8-1-4 4-12 6-10 8-8 10-6z"/>
<path transform="translate(1285,482)" d="m0 0 1 3-10 33-4 12-3 1 3-11 11-36z"/>
<path transform="translate(776,422)" d="m0 0 13 3 11 6 10 9 4 4-1 4-4 3-2-1 4-5v-2l-4-2-9-8-8-4-13-4z"/>
<path transform="translate(916,410)" d="m0 0h27l18 1 4 2v1l-23-1h-29v-2z"/>
<path transform="translate(1078,482)" d="m0 0 1 3-2 4h-32l-1-3h31z"/>
<path transform="translate(1028,470)" d="m0 0 1 3-3 10-6 12-8 10-6 5-2-1 9-9 6-8 4-8 3-12z"/>
<path transform="translate(1099,466)" d="m0 0h17l2 2-21 1-8 3-6 5-3 5h-2l2-5 5-5 8-5z"/>
<path transform="translate(1296,446)" d="m0 0 1 4-6 20-4 12-3 1 3-11 8-25z"/>
<path transform="translate(1026,429)" d="m0 0h2l2 9v28l-2 4-1-33z"/>
<path transform="translate(676,423)" d="m0 0h5l-4 3-10 3-14 9-7 6 2-4 7-7 12-7z"/>
<path transform="translate(1137,543)" d="m0 0h1v7l-6 10h-2l-2 4-9 6-3-1 10-7 6-8 3-6z"/>
<path transform="translate(1076,508)" d="m0 0m-4 1h4v2l-12 5-6 2-6 4h-2v2l-3-1 8-7 11-5z"/>
<path transform="translate(680,422)" d="m0 0h17l15 5 2 3-5-1-13-4-15-1z"/>
<path transform="translate(808,448)" d="m0 0m-1 1m-2 1h2l-2 4-7 8-6 13-1 5h-2l1-8 6-12 4-5h2l2-4z"/>
<path transform="translate(965,413)" d="m0 0 7 1 9 5 8 7 4 7-1 3-7-10-7-6-9-4-4-1z"/>
<path transform="translate(718,589)" d="m0 0h4v2l-13 4-12 4h-11v-2l13-1z"/>
<path transform="translate(1315,487)" d="m0 0 1 2-9 24-2 7-2-1 2-9 5-12 4-10z"/>
<path transform="translate(758,369)" d="m0 0 2 1-1 2-12 6-3-1 9-6zm-15 9m-2 1h2l-2 4-6 4 2-4z"/>
<path transform="translate(735,387)" d="m0 0v3l-5 9-4 12h-2v-6l4-9 4-6z"/>
<path transform="translate(636,529)" d="m0 0h2l8 21v3h-2l-6-15z"/>
<path transform="translate(1277,508)" d="m0 0 1 4-6 18-3 1 3-11 3-10z"/>
<path transform="translate(645,445)" d="m0 0v3l-7 14-2 6h-2l1-6 4-9 4-7z"/>
<path transform="translate(1093,529)" d="m0 0m-6 1h6l-2 2-9 3-7 6-1 2h-2l1-4 9-7z"/>
<path transform="translate(990,477)" d="m0 0v3l-6 7-9 6-4-1 12-8z"/>
<path transform="translate(951,383)" d="m0 0h19l7 2v1l-21-1-5-1z"/>
<path transform="translate(812,554)" d="m0 0 1 2-9 15-3 4-2-1 11-18z"/>
<path transform="translate(723,588)" d="m0 0h13l8 2v3l-7-2h-15z"/>
<path transform="translate(714,429)" d="m0 0 9 2h11v2l-3 1h-10l-7-3z"/>
<path transform="translate(1053,465)" d="m0 0v3l-4 10-3 8-1-4 4-12z"/>
<path transform="translate(799,575)" d="m0 0v3l-8 10h-2v2l-6 4 2-4 8-8 1-2h2l2-4z"/>
<path transform="translate(949,411)" d="m0 0h12l4 2v1l-23-1v-1z"/>
<path transform="translate(632,511)" d="m0 0 2 1 3 12v5l-2-1-3-11z"/>
<path transform="translate(1290,466)" d="m0 0 1 4-4 12-3 1 3-11z"/>
<path transform="translate(750,424)" d="m0 0m-3 1h3v2l-12 5-4-1 8-4z"/>
<path transform="translate(1118,467)" d="m0 0 5 1 7 4 4 4-1 2-7-6-8-3z"/>
<path transform="translate(1327,453)" d="m0 0 1 3-5 14-2-1 3-11z"/>
<path transform="translate(1007,505)" d="m0 0m-1 1m-1 1m-1 1m-2 1h2l-1 3-11 6-2-1 9-6z"/>
<path transform="translate(1017,496)" d="m0 0v3l-6 7-5 4-2-1z"/>
<path transform="translate(1137,543)" d="m0 0h1v7l-3 5-3 1 2-5z"/>
<path transform="translate(1072,595)" d="m0 0 11 1 3 3-11-1-3-1z"/>
<path transform="translate(817,541)" d="m0 0 1 4-4 9h-2l3-10z"/>
<path transform="translate(1080,443)" d="m0 0m-3 1 3 1-10 6-3-1 8-5z"/>
<path transform="translate(992,436)" d="m0 0h2l2 6v7h-2z"/>
  </g>
  </g>
    </mask>
  </defs>
  <rect x="0.5" y="14.5" width="69" height="23" rx="3.5" fill="#000000" stroke="#000000" stroke-width="1" mask="url(#apple-pay1-cutout)"/>
</svg>