<?xml version="1.0" encoding="UTF-8"?>
<svg viewBox="17.6111 16 34.792 20.008" fill="none" xmlns="http://www.w3.org/2000/svg">
  <g id="brand-artwork-slot" transform="translate(18.1111 16.5) scale(0.0165) translate(0 0)">
<path transform="translate(735)" d="m0 0h18l30 2 33 4 31 6 30 8 27 9 24 10 29 14 25 14 15 10 17 12 12 9 9-6 16-12 19-12 21-12 23-12 25-11 27-10 24-7 30-7 31-5 28-3 18-1h20l30 2 33 4 31 6 27 7 36 12 23 10 19 9 22 12 19 12 12 8 19 14 16 13 20 18 23 23 7 8 11 13 15 20 16 24 13 22 11 21 12 27 9 24 9 29 6 26 5 28 3 26 1 14v51l-3 32-5 32-6 26-8 27-9 25-13 30-10 20-13 22-16 24-12 16-8 10-11 13-12 13-20 20-8 7-14 12-17 13-20 14-20 12-16 9-28 14-27 11-30 10-31 8-33 6-27 3-12 1h-56l-30-3-26-4-31-7-30-9-24-9-21-9-16-8-21-11-21-13-16-11-16-12-4 1-19 14-15 10-20 12-14 8-23 11-29 12-33 11-28 7-33 6-26 3-12 1h-57l-30-3-36-6-32-8-36-12-26-11-36-18-24-15-19-13-14-11-10-8-14-12-17-16-10-10-7-8-13-15-11-14-13-18-10-15-15-26-9-17-12-27-9-25-8-25-7-29-6-36-3-32v-51l3-33 5-30 7-31 8-26 8-22 11-26 13-26 13-22 14-21 16-21 11-14 16-17 7-8 9-9 8-7 10-9 11-9 21-16 21-14 25-15 32-16 33-13 24-8 32-8 34-6 36-4z" fill="#FD9F00"/>
<path transform="translate(735)" d="m0 0h18l30 2 33 4 31 6 30 8 27 9 24 10 29 14 25 14 15 10 17 12 12 9-2 4-10 8-3 1v2l-8 7-13 12-13 13-7 8-10 12-9 11-14 19-10 15-12 19-15 29-8 17-5 11-9 24-9 30-6 26-4 24-3 26-2 31v27l2 30 4 32 6 29 10 36 14 37 18 37 8 13 6 11 13 19 12 16 10 13 9 10 9 11 2 4 3 1 7 8 9 8 8 7 10 9 9 7 2 5-13 10-16 11-19 12-18 10-15 8-32 14-28 10-32 9-35 7-33 4-12 1h-57l-30-3-36-6-32-8-36-12-26-11-36-18-24-15-19-13-14-11-10-8-14-12-17-16-10-10-7-8-13-15-11-14-13-18-10-15-15-26-9-17-12-27-9-25-8-25-7-29-6-36-3-32v-51l3-33 5-30 7-31 8-26 8-22 11-26 13-26 13-22 14-21 16-21 11-14 16-17 7-8 9-9 8-7 10-9 11-9 21-16 21-14 25-15 32-16 33-13 24-8 32-8 34-6 36-4z" fill="#FD0A19"/>
<path transform="translate(1026,99)" d="m0 0 5 2 10 8 7 7 8 7 27 27 8 10 9 11 10 13 10 14 11 17 13 21 8 16 12 26 11 29 10 32 4 17 4 16 4 22 2 16 1 14v67l-3 31-5 28-12 42-12 34-5 13-7 15-8 16-4 9-10 18-10 16-13 18-10 13-6 7-8 10-41 41-8 6-7 6-1 2h-5l-5-5-13-12-8-7-10-8-9-9-7-8-12-14-10-12-14-19-10-14-11-17-6-11-14-27-9-20-10-27-7-22-7-28-5-27-3-25-2-36v-21l3-42 4-28 7-33 9-31 8-22 6-15 20-40 10-17 10-15 12-17 15-20h2l2-4 9-11 15-16 13-13 8-7 3-3h2v-2l14-11z" fill="#FD6600"/>
<path transform="translate(415,1020)" d="m0 0h19l14 4 8 6 7 7 1 2 3 1 2-4 8-7 8-5 14-4h19l14 4 9 6 7 7 5 9 3 9 1 6v83h-29l-1-8-1-70-4-10-5-6-11-4h-9l-9 2-6 4-5 6-3 7-1 5-1 74h-26l-1-1-1-76-4-10-7-8-8-3h-12l-10 3-7 6-4 8-2 11-1 70h-26v-122h26l1 2-1 12 8-7 11-7z" fill="#000000"/>
<path transform="translate(1668,974)" d="m0 0h26v170h-26l-1-13-5 5-11 7-11 3h-21l-14-4-11-6-10-9-7-10-6-13-3-18 1-13 3-13 7-14 9-11 10-7 13-6 10-2h18l13 4 11 8 5 4-1-17v-26zm-42 70-11 4-9 7-6 10-3 9-1 9 2 13 4 9 7 9 14 7 3 1h16l10-4 10-9 6-10 2-10v-12l-3-12-6-9-8-7-8-4-6-1z" fill="#000000"/>
<path transform="translate(1375,1020)" d="m0 0h19l13 4 9 6 7 6v-14h26v122h-26v-13l-11 9-11 5-4 1h-24l-13-4-11-6-10-9-7-10-5-12-3-11v-21l4-15 6-12 9-10 8-7 12-6zm6 24-11 4-10 9-4 6-4 12v16l4 12 6 8 7 6 9 4 4 1h15l10-4 7-5 7-10 4-11v-18l-4-11-4-6-4-5-8-5-10-3z" fill="#000000"/>
<path transform="translate(632,1020)" d="m0 0h18l14 4 10 7 6 5-1-4 1-10h26v122h-26v-13l-11 9-11 5-4 1h-24l-14-4-11-7-10-9-8-13-5-14-1-5v-22l5-17 8-13 6-7 10-7 10-5zm5 24-11 4-8 6-6 9-4 10-1 13 3 14 7 11 8 6 12 5h16l10-4 10-9 5-9 3-10v-15l-4-12-6-8-7-6-9-4-5-1z" fill="#000000"/>
<path transform="translate(1024,1020)" d="m0 0h19l12 3 11 6 10 9 7 11 5 15 1 5 1 24-4 2h-86l3 10 7 9 5 4 10 4 6 1h10l11-2 20-10 7 10 5 8-4 5-16 8-16 4h-26l-14-4-12-7-9-8-7-11-6-15-1-6v-23l2-10 5-12 7-10 4-5 10-7 10-5zm1 23-9 4-8 7-5 8-2 6v4h62l1-4-5-12-7-8-7-4-4-1z" fill="#000000"/>
<path transform="translate(775,1020)" d="m0 0h24l17 3 13 5 6 4-1 4-9 18-21-7-11-2h-15l-10 4-3 4-1 4 3 7 6 3 29 4 16 5 9 6 7 8 4 9v15l-3 9-6 8-8 7-11 5-13 3h-28l-18-4-12-5-8-5 2-5 9-15 2-1 12 7 13 4 10 1h11l12-3 6-4 2-3v-8l-4-4-13-4-27-4-15-6-10-9-5-10-1-13 3-11 6-9 8-7 11-5z" fill="#000000"/>
<path transform="translate(881,986)" d="m0 0h27v36h42l1 1v23h-43l1 61 3 8 5 4 3 1h13l11-3 4-2 4 8 4 12-1 4-12 5-9 2h-23l-9-3-8-5-7-8-4-10-2-9v-65l-22 1-2-1v-18l1-6h23z" fill="#000000"/>
<path transform="translate(1258,1020)" d="m0 0h22l16 4 13 7 2 4-11 19h-4l-16-8-7-1h-13l-12 5-8 7-6 9-3 11 1 18 4 10 7 9 8 5 6 2h19l10-3 9-5 4-2 12 20v3l-14 8-15 4h-26l-12-3-10-4-11-8-9-10-7-14-3-11-1-6v-14l4-17 6-12 10-12 10-7 12-5 6-2z" fill="#000000"/>
<path transform="translate(1169,1020)" d="m0 0h22l3 1-2 11-4 14-11-1h-14l-8 4-6 8-3 12-1 75h-26l-1-4v-117l1-1h25l1 1 1 12 9-9 10-5z" fill="#000000"/>
<path transform="translate(1536,1020)" d="m0 0h23l2 1-3 12-4 13-2 1-8-2h-15l-8 5-5 6-3 9-1 13v65l-1 1h-26v-122h25l2 3-1 10 14-11 6-3z" fill="#000000"/>
<path transform="translate(1093,164)" d="m0 0 5 5 11 13 4 6 11 16 7 11 13 21 8 16 12 26 11 29 10 32 4 17-1 4-7-25-6-20-4-10-5-15-4-8-5-13-7-15-4-8-6-11-11-18v-2h-2l-3-5v-3h-2l-4-7v-2h-2l-9-13-4-6v-2h-2l-7-9z" fill="#FD0A19"/>
<path transform="translate(1188,556)" d="m0 0 1 4-8 29-12 35-6 15-7 15-8 16-3 5-1-2 12-25 11-27 13-38z" fill="#FD0A19"/>
  </g>
</svg>