<?xml version="1.0" encoding="UTF-8"?>
<svg version="1.1" viewBox="0 0 2048 470" width="2048" height="611" preserveAspectRatio="xMidYMid meet" xmlns="http://www.w3.org/2000/svg">
<path transform="translate(311,1)" d="m0 0h273l18 66 10 36v4h-178v70l17-1h180l3 7 17 63 9 32-1 4h-225v83h249l3 8 17 63 9 32v2h-401z" fill="#E92029"/>
<path transform="translate(1048,1)" d="m0 0h329v106l-206 1v68h193l13 1v104l-1 1-205 1v81l206 1v105h-330v-468z" fill="#E92029"/>
<path transform="translate(1770,1)" d="m0 0h214l3 9 26 95v2h-132l-2 47 57 1 20 3 19 5 18 8 12 8 10 9 7 7 10 15 7 15 5 18 3 17 1 9v23l-4 26-5 19-8 20-8 15-12 17-12 13-9 9-17 13-15 9-16 8-19 8-18 6-24 6-30 5-37 4h-87v-106l59-1 32-3 27-5 23-7 21-10 12-9 7-7 6-10 4-11v-18l-4-11-6-7-14-7-13-3-8-1-117-1v-11l13-237z" fill="#E92029"/>
<path transform="translate(0,1)" d="m0 0h123v364h149v105h-272z" fill="#E92029"/>
<path transform="translate(1417,1)" d="m0 0h122v364h149v105h-272v-468z" fill="#E92029"/>
<path transform="translate(623,1)" d="m0 0h132l18 65 22 80 24 87 22 80 24 87 19 69v1h-134l-22-80-35-128-20-73-32-117-19-69z" fill="#E92029"/>
<path transform="translate(891,1)" d="m0 0h132l-2 10-23 84-17 62-35 128-20 73-16 58-2-1-13-48-21-76-24-87-7-25v-7l24-87 22-80z" fill="#E92029"/>
<path transform="translate(2028)" d="m0 0 8 2 6 4 4 6 1 3v8l-4 8-6 5-3 1h-12l-6-4-4-5-2-4v-10l5-8 8-5zm-4 4-6 3-4 6-1 8 3 7 5 5 4 1h8l6-4 4-5v-11l-4-6-4-3-3-1z" fill="#E92029"/>
<path transform="translate(2021,9)" d="m0 0h10l4 2 1 6-3 3 2 4 1 5h-5l-4-7-2-1v8l-3 1-2-2v-18zm5 3-2 1 1 4 4 1 2-1-1-4z" fill="#E92029"/>
</svg>
