<?xml version="1.0" encoding="UTF-8"?>
<svg viewBox="20.6692 20.8028 28.5276 9.258" fill="none" xmlns="http://www.w3.org/2000/svg">
  <g id="brand-artwork-slot" transform="translate(19.8 16.5) scale(0.0148) translate(0 0)">
<path transform="translate(366,384)" d="m0 0h93l18 49 23 63 9 25 5-12 19-52 21-57 6-16h95v222l-1 1h-59l-1-1-1-154-18 50-21 57-17 47-1 1h-53l-4-9-21-57-23-64-10-27v156l-1 1h-58l-1-121z" fill="#026ECC"/>
<path transform="translate(1703,384)" d="m0 0h77l16 24 15 22 19 28 13 19 17 25 10 14 1-132h59v223h-72l-8-11-29-44-29-43-26-39-1-1-1 138h-61z" fill="#026ECC"/>
<path transform="translate(1083,671)" d="m0 0h144l16 3 13 5 12 7 8 7 8 11 5 10 4 15 1 18-2 14-4 12-6 11-11 12-9 7-16 8-9 3h-3l7 8 18 20 11 12 18 20 11 12 7 8v2h-71l-5-5-11-12-9-11-13-14-9-11-13-14-7-9-24-1 1 3v73l-5 1h-56l-1-1zm62 51v45h69l9-4 6-5 4-10-1-10-5-8-5-4-6-3-5-1z" fill="#026ECC"/>
<path transform="translate(929,384)" d="m0 0h141l14 2 15 5 11 6 12 10 7 10 5 10 4 14 1 8v13l-3 15-5 12-7 11-11 11-11 7-14 6-8 2 6 7 11 12 15 16 12 13 16 17 13 14v2h-74l-13-15-10-11-7-8-12-14-10-11-14-16v-2h-24v79h-60l-1-221zm60 49v45h70l10-4 7-8 2-6v-7l-4-10-8-7-12-3z" fill="#026ECC"/>
<path transform="translate(1323,671)" d="m0 0h189l1 1v50l-128 1v34h125l1 1v51h-127l1 35 128 1v50l-1 1h-189z" fill="#026ECC"/>
<path transform="translate(366,671)" d="m0 0h189v51h-130v36h126v51l-126 1v35h130v50l-1 1h-188z" fill="#026ECC"/>
<path transform="translate(700,384)" d="m0 0h189v49h-128v36h125v51h-125v36h128v51h-188l-1-1z" fill="#026ECC"/>
<path transform="translate(1516,384)" d="m0 0h78l6 12 18 41 14 31 16 36 18 40 28 63v2h-68l-6-12-13-32-1-1h-102l-6 13-12 29-2 3h-66l3-9 19-43 18-41 20-46 18-41 13-30 6-14zm39 55-13 30-13 31-5 12 11 1h37l15-1-3-10-13-30-14-33z" fill="#026ECC"/>
<path transform="translate(176,384)" d="m0 0h79l16 35 16 36 19 42 18 40 19 42 11 25v3h-68l-13-30-5-13v-2l-104 1-18 43-1 1h-66l1-5 32-72 11-25 18-41 19-43zm40 54-15 35-16 38v1l9 1h53l1-3-21-49-9-22z" fill="#026ECC"/>
<path transform="translate(564,671)" d="m0 0h80l12 13 9 11 9 10 9 11 10 11 8 10 4-2 8-10 11-13 9-11 12-14 9-11 4-5h78l-6 8-13 14-7 8-18 20-10 11-7 8-11 12-7 8-9 10-7 8-1 4 13 14 7 8 12 14 11 12 7 8 9 10 7 8 9 10 7 8 9 10 7 8 2 3-1 1h-78l-5-5-13-15-9-11-13-15-9-11-11-13h-2l-9 11-12 14-9 11-12 14-11 13-6 7h-77l2-4 9-10 11-12 9-11 9-9 7-8 9-10 10-11 7-8 13-14 14-16-6-8-14-15-7-8-11-12-7-8-11-12-7-8-12-13-7-8-10-11-7-8z" fill="#026ECC"/>
<path transform="translate(1604,673)" d="m0 0h137l-3 9-15 33-4 9-106 1-8 3-5 5-1 3v10l6 7 6 3 7 1 70 1 16 3 12 5 11 7 7 7 7 12 4 15v25l-3 15-8 16-8 10-10 8-16 8-16 4-10 1h-129l-1-50 1-1 123-1 10-3 5-4 2-5v-8l-4-6v-2l-5-2-6-2-70-1-16-3-15-6-12-9-7-8-8-16-3-12v-23l4-16 6-12 10-12 13-9 13-6 13-3z" fill="#026ECC"/>
<path transform="translate(1825,673)" d="m0 0h137l-3 9-16 35-3 7-106 1-8 3-5 5-1 3v9l4 6 8 5 7 1 70 1 15 3 16 7 11 9 6 8 6 12 3 15v21l-4 16-7 14-8 10-10 8-16 8-16 4-9 1h-130l-1-51 125-1 11-4 4-5 1-3v-8l-4-7-8-4-3-1-70-1-16-3-15-6-12-9-9-11-6-13-3-14v-21l4-16 8-15 13-13 14-8 11-4z" fill="#026ECC"/>
<path transform="translate(847,671)" d="m0 0h144l18 4 14 6 11 8 10 10 8 13 5 15 2 10v22l-4 16-8 16-11 12-9 7-15 7-15 4-7 1h-82v73l-1 1h-59l-1-1zm59 51v49h70l11-4 7-8 2-5 1-9-2-8-5-8-5-4-10-3z" fill="#026ECC"/>
<path transform="translate(1358,382)" d="m0 0h84l1 1v54l-74 1-16 3-13 7-6 5-7 11-4 10-2 11v21l3 14 4 9 6 9 7 6 12 6 14 3 47 1-2 6-12 25-9 19-1 1h-36l-18-3-16-5-16-8-13-10-8-8-9-13-8-17-5-19-2-14v-27l3-20 5-16 8-16 6-9 11-12 12-9 15-8 15-5 14-3z" fill="#026ECC"/>
<path transform="translate(1168,384)" d="m0 0h61l1 222-1 1h-60l-1-3z" fill="#026ECC"/>
  </g>
</svg>
