<?xml version="1.0" encoding="UTF-8"?>
<svg width="320" height="110" viewBox="0 14 70 24" fill="none" xmlns="http://www.w3.org/2000/svg">
  <rect x="0.5" y="14.5" width="69" height="23" rx="3.5" fill="#FDA7C7" stroke="#FDA7C7" stroke-width="1"/>
  <g id="brand-artwork-slot" transform="translate(3 18.1875) scale(0.0313) translate(0 0)">
<path transform="translate(1574,179)" d="m0 0h22l16 3 16 7 11 7 12 11 10 13 5 8 2 1-6-25-1-5v-14h66l1 3v223l-2 2-8 1h-34l-21-1-2-2v-12l4-19 3-10-5 5-7 11-14 14-13 9-14 6-17 4h-28l-20-4-16-7-14-8-15-13-12-15-8-14-6-14-5-19-2-16v-19l3-21 4-15 9-20 8-12 10-11 5-5 8-7 15-9 12-5 14-4z" fill="#0B051D"/>
<path transform="translate(854,179)" d="m0 0h22l16 3 13 5 11 6 14 12 9 11 7 11v2h3l-6-25-1-6v-12l1-1h55l10 1 1 55v171l-1 1h-65l-1-1v-13l6-27 1-2-3 1-7 11-7 9-9 9-10 7-17 8-12 3-8 1h-25l-23-5-18-8-10-7-11-9-10-11-11-17-7-16-4-13-3-17-1-9v-17l3-21 5-17 8-18 7-11 11-13 10-9 14-9 15-7 21-5z" fill="#0B051D"/>
<path transform="translate(1342,179)" d="m0 0h22l18 4 13 5 14 7 14 12 9 11 8 16 4 12 2 12v152l-2 3h-67l-1-131-3-16-5-10-5-6-10-6-11-3h-22l-10 3-8 4-9 8-8 16-2 9-1 13v115l-2 4h-66l-2-3v-134l1-87 2-3 8-1h55l1 1v13l-6 30 3-3 10-16 12-13 9-7 14-7 12-3z" fill="#0B051D"/>
<path transform="translate(534,82)" d="m0 0h63l2 1v15l-3 23-5 21-9 25-10 20-11 17-9 12-14 15-8 8-11 9-8 7 1 5 12 16 14 18 12 16 13 17 10 13 8 11 14 18 10 13 13 17 9 12v2h-86l-8-7-15-20-8-11-14-18-14-19-10-13-13-18-10-12-13-17-13-18-9-11 5-4 12-9 14-10 16-13 10-9 9-9 9-11 11-15 8-13 8-16 7-20 4-21 2-15z" fill="#0B051D"/>
<path transform="translate(354,82)" d="m0 0h43l14 1 1 5 1 161-1 163-1 1h-71l-1-1-1-12v-206l1-109 1-2z" fill="#0B051D"/>
<path transform="translate(659,82)" d="m0 0h63l1 1v328l-2 2h-65l-2-1-1-3v-311l1-15z" fill="#0B051D"/>
<path transform="translate(1161,183)" d="m0 0h14l6 3 1 2v61l-1 3-10-1h-15l-11 2-11 6-7 7-8 16-2 11-1 104-1 16h-67l-2-3v-130l1-94 4-1h61l1 1v14l-6 28 1 1 8-15 10-13 12-10 11-5z" fill="#0B051D"/>
<path transform="translate(870,239)" d="m0 0h23l11 4 13 7 7 6 7 10 6 12 3 12v18l-3 12-8 16-8 9-10 7-11 5-14 3h-10l-15-3-15-8-8-7-10-15-5-14-1-6v-15l2-10 5-12 7-11 8-8 11-7 10-4z" fill="#FDA7C7"/>
<path transform="translate(1589,239)" d="m0 0h22l15 5 9 6 9 8 9 13 4 11 2 9v17l-3 12-7 14-11 12-11 8-11 4-13 2h-8l-14-3-12-6-10-8-7-8-8-16-2-7-1-16 2-13 4-11 6-10 9-10 11-7 12-5z" fill="#FDA7C7"/>
  </g>
</svg>
