<?xml version="1.0" encoding="UTF-8"?>
<svg width="320" height="110" viewBox="0 14 70 24" fill="none" xmlns="http://www.w3.org/2000/svg">
  <rect x="0.5" y="14.5" width="69" height="23" rx="3.5" fill="#FFFFFF" stroke="#CBD5E1" stroke-width="1"/>
  <g id="brand-artwork-slot" transform="translate(5.3 -2.7) scale(0.028) translate(0 0)">
<path transform="translate(176,799)" d="m0 0h155l20 1 20 3 15 4 16 7 11 7 11 10 10 14 6 14 4 16v39l13 9 9 9 8 13 5 16 1 6v25l-4 25-6 21-6 15-10 17-9 11-11 11-14 10-15 8-19 6-20 3-38 1-12 1-5 4-4 8-6 36-9 61-3 11-3 5-1 1h-87l-5-4-1-3v-11l4-24 1-10-6 2h-75l-9-2-4-4-1-4v-8l15-93 25-161 16-101 3-12 4-6 6-5z" fill="#0B3B87"/>
<path transform="translate(1418,898)" d="m0 0h113l22 1 17 5 13 7 10 8 8 10 7 14 3 12v30l-4 22-5 16-7 16-8 12-9 10-9 8-15 9-18 6-11 2-15 1-55 1-4 5-4 16-9 57-4 10-5 4-6 1h-49l-5-3-2-4v-9l10-64 27-172 4-20 3-6 4-4zm54 56-2 3-10 61-1 13h42l13-4 8-6 7-8 5-11 2-8v-20l-4-8-8-7-11-4-7-1z" fill="#089FE8"/>
<path transform="translate(691,899)" d="m0 0h135l14 3 13 5 11 7 11 11 8 14 3 9 2 11v22l-3 21-6 21-9 19-8 11-9 10-12 9-15 8-17 5-18 2-59 1-4 4-3 9-9 56-3 14-4 6-4 3-9 1h-31l-17-1-4-4-1-3v-8l9-54 13-83 17-109 3-13zm57 55-2 5-11 68 1 5h18l24-1 13-4 9-7 6-8 5-11 2-9v-15l-3-9-7-8-12-5-7-1z" fill="#0C3D89"/>
<path transform="translate(441,866)" d="m0 0 2 3 1 6v39l13 9 9 9 8 13 5 16 1 6v25l-4 25-6 21-6 15-10 17-9 11-11 11-14 10-15 8-19 6-20 3-38 1-12 1-5 4-4 8-6 36-9 61-3 11-3 5-1 1h-87l-5-4-1-3v-11l4-24 1-10-6 2h-75v-1l73-1 8-2 4-16 10-65 7-42 4-13 6-8 4-2 78-1 22-3 20-6 19-9 12-8 13-11 10-11 12-18 12-25 7-23 3-13 2-20v-21z" fill="#09A0E8"/>
<path transform="translate(1706,985)" d="m0 0h9l20 3 12 5 11 8 7 10 3 3 3-15 4-6 2-1h37l15 1 3 3v11l-13 82-12 76-3 11-5 5-4 1h-45l-5-3-1-1-1-19-10 8-11 8-14 7-15 4-16 2-15-1-16-4-14-7-10-8-8-8-9-14-5-11-4-15-1-6v-17l4-22 7-21 8-15 10-14 15-15 15-10 15-7 17-5zm4 54-14 4-11 6-11 10-7 10-5 12-2 11 1 11 4 11 6 9 8 6 12 5 4 1h17l15-5 11-7 11-11 7-12 4-13v-16l-5-12-6-8-8-6-9-4-8-2z" fill="#0AA0E8"/>
<path transform="translate(976,986)" d="m0 0h23l16 3 12 6 9 8 7 11 2 1v-7l4-13 2-2h54l3 3v13l-10 64-14 89-3 12-4 6-7 2h-38l-8-1-3-3v-20l-9 7-12 9-15 8-11 3-14 2h-19l-18-4-16-8-10-8-7-7-9-14-5-12-3-11-1-6v-21l3-19 7-21 8-16 7-10 9-11 7-7 14-10 16-8 14-5zm10 53-16 5-11 7-6 5-8 10-6 12-2 8v16l4 12 6 8 8 7 11 5 5 1h18l13-4 10-6 10-9 6-7 6-12 3-14-1-13-5-12-7-8-8-6-11-4-4-1z" fill="#0D3E8A"/>
<path transform="translate(1143,992)" d="m0 0h42l12 1 5 5 6 15 17 55 8 27v2h2l2-5 14-20 13-19 14-20 15-22 10-14 5-4 3-1h47l8 1 3 3v8l-7 12-13 18-11 16-28 40-11 16-16 23-11 16-14 20-16 23-14 20-15 22-10 13-4 3-3 1h-49l-8-1-3-3v-7l12-18 12-17 13-18 14-20-1-9-25-74-15-43-10-30v-9l5-5z" fill="#0E408A"/>
<path transform="translate(278,903)" d="m0 0h114l23 2 16 5 5 6 2 5v11l-7 23-13 27-12 17-11 12-13 11-15 9-15 7-20 6-22 3-78 1-6 4-4 4h-1v-9l7-34 7-47 8-44 3-11 4-4 6-2z" fill="#113171"/>
<path transform="translate(1887,899)" d="m0 0h58l1 1v9l-26 167-14 90-3 11-5 5h-54l-3-3v-12l14-88 16-100 11-66 3-11z" fill="#09A0E8"/>
<path transform="translate(754,952)" d="m0 0h31l7 2 5 2-3 1-10-2h-36l-6 35-6 37h-1v-8l10-64 1-2z" fill="#6FC7F0"/>
<path transform="translate(813,1081)" d="m0 0h7l-3 2-15 3-11 1-61 1v-2l4-1 61-1 14-2z" fill="#7FCDF2"/>
<path transform="translate(902,1170)" d="m0 0 5 2 11 6 11 4 13 2h32v1l-14 2h-19l-18-4-16-8z" fill="#67C4F0"/>
<path transform="translate(1077,1177)" d="m0 0v3l-7 2h-38l-8-1-1-2h43l10-1z" fill="#66C3F0"/>
<path transform="translate(813,1081)" d="m0 0h7l-3 2-15 3h-9l2-2 14-2z" fill="#67C4F0"/>
<path transform="translate(958,1050)" d="m0 0 2 1-6 5-6 7v-3l4-6z" fill="#ADDEF6"/>
  </g>
</svg>