<?xml version="1.0" encoding="UTF-8"?>
<svg viewBox="26.7159 21.3708 16.6146 7.5471" fill="none" xmlns="http://www.w3.org/2000/svg">
  <g id="brand-artwork-slot" transform="translate(25.5 16.5) scale(0.0093) translate(0 0)">
<path transform="translate(1650,755)" d="m0 0h122l2 3 22 106 18 86 71 340v4h-128l-6-26-10-50-1-3-179-1-3 10-20 55-6 15h-145l1-6 19-45 13-31 19-45 13-31 16-38 20-48 8-19 18-43 19-45 16-38 26-62 15-36 8-18 7-11 9-9 13-8 11-4zm25 147-10 26-18 50-18 49-23 63-4 11 1 3h114v-7l-25-121-14-68-2-6z" fill="#2665AD"/>
<path transform="translate(165,755)" d="m0 0h235l14 3 16 8 10 9 7 10 5 12 5 24 29 148 19 99 11 55 1 1 16-44 17-47 36-100 17-47 36-100 10-27 3-4h149l-6 16-38 92-34 82-19 46-68 164-19 46-15 36-19 46-5 11h-146l-3-9-25-97-23-88-27-104-23-88-19-73-3-11-5-2-26-14-24-12-31-13-28-10-30-9-2-1 1-6z" fill="#2665AD"/>
<path transform="translate(1279,745)" d="m0 0h21l34 3 29 5 24 6 26 8 3 2-4 26-15 87-3 1-18-8-26-8-25-5-31-3h-22l-19 2-17 4-13 5-11 7-7 8-4 9-1 4v11l4 11 8 10 11 9 19 12 44 24 27 16 16 11 14 11 12 11 8 8 10 13 9 15 6 14 4 13 3 19v29l-3 20-6 21-9 20-9 14-10 13-13 14-11 9-13 10-15 9-21 11-23 9-18 6-30 7-28 4-11 1h-48l-31-3-30-5-29-7-33-11-7-4 2-17 16-92 2-10 6 2 17 10 20 8 23 7 25 5 27 3h38l17-2 17-4 13-5 12-7 6-5 7-10 3-9v-17l-4-11-7-10-9-9-17-12-27-15-32-17-17-10-18-12-13-10-13-12-11-12-10-15-8-17-5-18-2-15v-25l2-17 4-17 6-17 11-21 10-13 9-10 11-11 17-13 15-9 15-8 22-9 26-8 26-6 26-4z" fill="#2665AD"/>
<path transform="translate(858,755)" d="m0 0h138l1 2-32 197-36 221-18 111-2 8h-139l-1-2 22-134 33-203 24-148 8-47z" fill="#2665AD"/>
<path transform="translate(165,755)" d="m0 0h235l14 3 16 8 10 9 7 10 5 12 5 24 29 148 13 67-1 3-7-15-10-21-13-23-18-27-9-12-11-14-9-10-7-8-27-27-11-9-17-14-18-13-18-12-10-6-4-2v-2l-5-2-26-14-24-12-31-13-28-10-30-9-2-1 1-6z" fill="#E1A347"/>
  </g>
</svg>
