<?xml version="1.0" encoding="UTF-8"?>
<svg version="1.1" viewBox="0 0 2048 613" width="2048" height="611" preserveAspectRatio="xMidYMid meet" xmlns="http://www.w3.org/2000/svg">
<path transform="translate(1613,204)" d="m0 0h119l19 2 17 5 11 6 7 6 2 3 4-2 8-7 12-6 19-5 16-2h57l19 2 17 4 12 5 6 4 6 5 6 10 2 8 1 28v57l-1 57-5 6-4 1h-14l-7-3-3-4-1-131-4-8-7-6-11-4-12-2-11-1h-40l-23 3-9 3-10 9-2 5-1 132-6 6-7 1h-12l-6-2-4-4-1-2-1-132-6-9-8-5-12-3-21-2h-83l-1 153-6 5-6 1h-11l-7-3-3-3-1-5v-158l-1-7 5-8 3-1z" fill="#FFFFFF"/>
<path transform="translate(86,203)" d="m0 0h148l20 1 17 3 19 7 11 8 6 7 4 9v44l-3 10-5 8-4 5-10 7-12 5-15 4-16 2h-133v59l-3 5-5 3h-19l-6-5-1-3v-172l2-4zm27 28v65h134l16-4 9-6 5-8 1-2v-31l-6-8-10-4-9-2z" fill="#FFFFFF" fill-rule="evenodd"/>
<path transform="translate(683,201)" d="m0 0h13l6 3 7 7 29 44 9 12 7 11 12 17 10 15 9 13 12 18 13 19 9 14 2 4-1 4-5 7-10 5-6 1-6-3-7-8-13-19-15-22v-2l-138 1-12 16-13 19-8 10-6 5-2 1-10-1-8-4-6-7 1-5 8-12 46-68 50-75 7-10 8-7zm4 37-7 10-10 15-16 23-11 16-6 8v2h101l-7-11-10-15-29-44-3-4z" fill="#FFFFFF" fill-rule="evenodd"/>
<path transform="translate(1093,204)" d="m0 0h152l22 2 20 5 12 6 8 7 6 9 3 9v142l-4 5-9 2h-11l-7-3-3-4-1-131-4-8-8-7-10-3-12-2-15-1h-111v148l-3 7-4 3-6 1h-13l-5-3-4-5v-172z" fill="#FFFFFF"/>
<path transform="translate(1358,203)" d="m0 0h12l7 3 3 4 1 129 3 8 5 6 10 5 16 3 126 1v-150l3-6 9-3h11l7 2 4 4 1 7v164l-4 7-3 3h-160l-22-4-15-4-10-6-10-10-5-10-1-7v-139l4-5z" fill="#FFFFFF"/>
<path transform="translate(803,203)" d="m0 0h188l5 3 3 6v10l-3 5-3 3-3 1h-78v138l-1 14-5 6-2 1h-20l-6-5v-154h-80l-6-5-1-2v-14l3-5 1-1z" fill="#FFFFFF"/>
<path transform="translate(342,203)" d="m0 0h17l5 2 3 3 1 5v128l2 7 5 5 10 5 9 2 11 1h130l6 2 4 7 1 10-3 6-4 4h-140l-17-2-19-5-13-7-8-8-6-10-2-8v-142l5-4z" fill="#FFFFFF"/>
<path transform="translate(1034,203)" d="m0 0h15l5 5 2 4v168l-3 7-5 3h-20l-5-4-1-2v-176l5-4z" fill="#FFFFFF"/>
<path transform="translate(1359,432)" d="m0 0 8 1 6 10 13 26v2h2l2-5 15-27 6-7 9 1 2 3 6 63 1 7 4-15 6-28 4-9h5l4 21 6 29 2-11 4-39 3-20 1-1h6l-4 29-3 24-4 24-1 2h-7l-2-5-6-33-2-8-2 5-10 40-1 1h-5l-2-3-7-49-2-17v-8l-3 1-12 23-11 19-1 34h-6l-1-34-18-36-5-8z" fill="#FFFFFF"/>
<path transform="translate(1305,433)" d="m0 0h25l9 3 6 9 1 2v10l-5 10-7 6-4 1 3 5 9 14 9 15 2 4-7-1-5-6-11-18-6-8v-2l-10-1v36h-9zm9 6v33h10l8-4 6-7 2-4v-8l-4-6-4-3-3-1z" fill="#FFFFFF" fill-rule="evenodd"/>
<path transform="translate(1246,433)" d="m0 0h22l10 2 8 7 6 12 2 15-1 16-4 11-5 7-5 4-9 3-6 1h-19v-77zm8 6-1 1v66l2 1 14-1 8-4 5-5 4-7 2-11v-13l-2-12-6-10-6-4-4-1z" fill="#FFFFFF" fill-rule="evenodd"/>
<path transform="translate(1850,432)" d="m0 0h10l7 3 7 7 5 11 2 9v22l-4 13-6 9-9 6-4 1h-8l-8-4-7-8-5-12-1-6v-21l3-12 5-10 7-6zm3 4-8 4-6 9-4 13v23l3 10 6 9 6 4h10l8-6 5-10 2-11v-19l-2-11-6-10-6-4z" fill="#FFFFFF" fill-rule="evenodd"/>
<path transform="translate(1789,432)" d="m0 0h12l8 4 5 6 4 8 2 10v26l-3 11-6 9-9 6-4 1h-8l-8-4-7-8-5-12-1-5v-24l4-13 5-8 6-5zm3 4-7 4-6 9-4 11v25l3 10 7 10 5 3h9l7-4 5-7 4-14v-23l-3-11-5-8-8-5z" fill="#FFFFFF" fill-rule="evenodd"/>
<path transform="translate(1502,432)" d="m0 0 5 1 4 10 10 33 10 32v4h-6l-20-65-1-6-3 9-8 26-2 8 1-1h23l2 5-1 1h-27l-8 23h-5l-1-2 6-16 15-49 5-12z" fill="#FFFFFF"/>
<path transform="translate(1468,433)" d="m0 0h6l-4 29-3 24-4 24-1 2h-7l-2-5-5-30 5 3 5 24 2-11 4-39 3-20z" fill="#FFFFFF"/>
<path transform="translate(1964,432)" d="m0 0h14l9 3 1 5-5-1-7-2h-10l-7 4-3 6v7l6 7 17 10 9 7 4 5 2 9-3 9-8 8-7 3h-16l-10-3-2-3v-4l5 1 5 3 4 1h14l6-4 4-6 1-6-3-7-8-6-14-8-9-8-4-8 1-9 4-6 7-6z" fill="#FFFFFF"/>
<path transform="translate(1543,433)" d="m0 0h8l1 4v69h33l1 4-1 1h-41l-1-12z" fill="#FFFFFF"/>
<path transform="translate(1602,433)" d="m0 0h7v73h35v4l-8 1h-34l-1-15v-62z" fill="#FFFFFF"/>
<path transform="translate(1709,433)" d="m0 0h57v6h-25l-1 73h-6l-1-72-25-1v-5z" fill="#FFFFFF"/>
<path transform="translate(1895,433)" d="m0 0h7l-1 73h36v5h-42l-1-66z" fill="#FFFFFF"/>
</svg>