<?xml version="1.0" encoding="UTF-8"?>
<svg version="1.1" viewBox="0 680 2048 760" width="2048" height="760" preserveAspectRatio="xMidYMid meet" xmlns="http://www.w3.org/2000/svg">
<path transform="translate(1148,861)" d="m0 0h18l13 4 11 6 12 11 8 8 7 10 7 16 6-5 7-8 15-16 7-7 7-8 6-7 5-4h17l12 3 12 5 13 9 8 8 7 11 4 10 2 10 1 10v13l-2 20-7 41-10 51-13 70-2 5-1 1h-36l-45-1v-10l21-128 3-23v-20l-3-7-4-5-14-7-15-3-1 25-5 33-9 43-12 57-8 42-1 3-2 1h-79l-1-1v-9l5-34 18-112 1-6v-20l-5-10-7-6-9-4-14-3-5 28-14 77-11 66-6 33-2 1-81-1v-11l7-65 11-88 8-68 3-25 1-3 5-1 92 1-1 13-4 29 7-6 16-16 7-8 17-17z" fill="#000000"/>
<path transform="translate(238,721)" d="m0 0h92l1 4-8 54-15 90-6 37-3 15-2 3h-54l-39-1v-12l15-89 8-45-1-2-8 16-18 40-12 30-12 36-7 26-4 24v30l3 17 5 16 11 23 8 12 11 14 11 13 12 13 8 8 8 7 14 12 13 10 3 4-95 1h-32l-7-2-8-7-10-10-7-8-12-13-13-17-13-19-9-15-6-13-6-18-3-16-1-25 2-25 5-25 7-25 9-25 13-30 16-33 19-37 4-6 2-1 103-1 4-18 3-16z" fill="#000000"/>
<path transform="translate(1422,727)" d="m0 0h97l1 1-1 12-13 83-5 29-2 12 73-7 17-1 5 3 10 13 10 18 7 16 4 17 1 6v27l-4 24-7 25-9 24-11 23-15 25-24 36-9 12-2 2-4 1-168-1v-9l10-85 11-87 19-150 8-66zm75 146-4 20-14 88-11 65-8 51-1 13 4-2 14-20 13-20 14-24 13-26 9-25 5-19 2-16v-15l-2-15-4-15-8-16-10-14-10-10z" fill="#000000"/>
<path transform="translate(727,867)" d="m0 0h96l-6 37-14 72-7 41-2 19v20l3 17 5 13 7 12 9 11 7 7 4 2 2-7 4-31 7-60 12-99 6-52 1-2h97l1 3-13 77-16 90-12 69-3 18-2 3-112 1h-60l-6-4-8-9-9-15-6-14-4-13-2-11v-33l8-64 8-60 4-37z" fill="#000000"/>
<path transform="translate(488,842)" d="m0 0 5 1 8 7 9 10 12 17 8 15 6 15 4 16 2 17v17l-3 24-7 28-8 24-10 24-16 33-14 27-6 9-3 2h-28l-113-1-6-8-11-24-9-25-5-20-2-13v-38l5-25 6-20 8-21 14-29 6-9 1-1 19-1h62l1 3-6 17-12 36-7 30-3 20-1 12v38l4 33 6 26v3l3-1 10-25 10-27 8-26 7-30 4-24 1-11v-17l-3-19-4-12-8-16-9-12-9-10-13-10-19-11v-2l7-2 89-13z" fill="#000000"/>
<path transform="translate(1930,851)" d="m0 0h8l8 6 16 16 9 11 7 10 8 16 5 16 2 11 1 12v16l-3 31-11 68-10 56-3 7-2 1-156-1-8-7-9-12-10-17-6-15-4-16-1-20 2-17 5-15 10-19 10-14 9-11 6-7 7-4 83-1-4-19-8-17-11-14-15-15-13-10-9-7v-3l31-6zm-27 105-10 11-11 16-8 14-7 15-5 19-1 6v18l3 18 5 18 9 22 4 6h3l2-10 5-37 12-94v-22z" fill="#000000"/>
<path transform="translate(613,727)" d="m0 0h93l1 1-1 14-11 67-8 50-7 43-18 106-12 76-6 40-2 4h-75l-8-1v-10l17-131 11-84 11-88 11-84 1-2z" fill="#000000"/>
<path transform="translate(1670,866)" d="m0 0h93l4 2-4 30-11 65-13 69-8 47-7 42-2 6h-82v-12l4-34 7-58 10-89 7-62z" fill="#000000"/>
<path transform="translate(888,1193)" d="m0 0 14 1 17 3 2 1-3 21-9 49-13 76-3 3-33 3h-5l-2-3-3-55-3-33-1-4-2 9-6 39-6 36-3 7-1 1h-18l-8-1-1-1v-10l6-65 5-54 1-7 3-2h49l2 1 1 5 3 59 2 29 1 2 1-3 4-39 8-65z" fill="#000000"/>
<path transform="translate(567,1193)" d="m0 0h39l1 1-1 20-6 56-8 69-2 7-7 1-27-1v-30h-11l-9 1-4 15-3 11-2 3h-30l1-11 13-61 12-64 2-4h39l1-11zm-4 23-3 5-17 68v5l3 1h10l3-2 2-21 3-40v-16z" fill="#000000"/>
<path transform="translate(1270,1191)" d="m0 0h9l8 7 10 15 5 12 3 14v19l-3 16-7 21-12 25-10 16-7 9-1 1-30 1h-20l-6-2-5-8-8-22-3-14v-22l3-15 7-19 8-16 7-9h33l-7-8-14-12v-2l14-3zm-17 31-4 8-7 20-6 22-1 7v34l2 16 2 5h3l11-26 6-19 3-16 1-9v-18l-4-16-5-8z" fill="#000000"/>
<path transform="translate(1395,1191)" d="m0 0h6l5 3 10 13 8 16 3 10 1 10v9l-2 17-6 20-11 24-11 19-7 10-4 4-3 1h-45l-7-2-7-14-7-23-1-6v-25l5-19 8-19 7-14 5-5h31l-5-6v-2l-4-2-10-9 1-3 15-3zm-20 31-6 15-7 21-4 18-1 8v27l3 22 3 2 8-16 7-18 5-21 2-14v-22l-3-12-4-8z" fill="#000000"/>
<path transform="translate(977,1196)" d="m0 0h57l-4 5-16 12-13 12-11 12-7 10-9 17-5 16-1 6v19l3 16 5 15 1 2h3l8-65 2-7 1-1h32l3 1-2 18-10 59-1 3h-71l-4-4-5-11-4-13-2-10-1-18 2-18 6-21 8-16 8-13 9-11 8-9 7-5z" fill="#000000"/>
<path transform="translate(1434,1158)" d="m0 0h138l93 1h150l110-1v2l-24 8-20 6-25 9-26 11-25 12-15 10-10 9-6 8-1 2h-2l-8-20-9-24-8-18-2-1-43-3-86-5-13-1-169-1-9-1-1-2z" fill="#000000"/>
<path transform="translate(415,1158)" d="m0 0h93l23 1 10 1v1l-42 2-77 2-113 6-9 1-4 6-16 42-6 16h-3l-6-11-7-7-15-10-21-11-24-10-28-10-21-7-26-7-3-2v-2h211z" fill="#000000"/>
<path transform="translate(421,1197)" d="m0 0h83l1 3-4 27-2 4-19 1-5 27-15 84-2 4h-18l-16-1v-11l10-70 3-25 3-2 19-4 3-3-20 1-26 2-1-1 1-15 3-20z" fill="#000000"/>
<path transform="translate(1128,1197)" d="m0 0h45l21 1-3 24-2 7-1 1-18 2-5 25-13 74-3 13-1 2h-32l-1-1 1-15 11-88 3-4 18-5h3v-2l-28 2h-16l-1-4 3-28 2-3z" fill="#000000"/>
<path transform="translate(1550,1206)" d="m0 0h26l12 1-2 6-8 17-2 7v10l7 13 18 22 3 7 1 11-3 12-8 14-12 14-7 6-28 1h-24l1-4 9-9 8-7 10-11 5-10v-10l-4-8-9-11-7-10-4-11v-14l5-15 8-16z" fill="#000000"/>
<path transform="translate(1722,753)" d="m0 0h12l16 4 12 7 8 8 6 12 1 3v15l-5 13-8 10-10 7-12 4-6 1h-17l-9-2-12-6-8-7-6-10-3-9v-16l4-11 7-9 9-7 8-4z" fill="#000000"/>
<path transform="translate(1461,1197)" d="m0 0h25l12 1 1 2-7 40-10 56-3 24 32 1-1 12-3 13h-67l1-14 14-110 3-23z" fill="#000000"/>
<path transform="translate(763,1200)" d="m0 0h26l3 1v8l-9 50-10 56-5 29-1 2h-32l-1-1 1-13 10-84 5-41 2-6z" fill="#000000"/>
<path transform="translate(696,1188)" d="m0 0 7 1 12 9 7 7 6 12 1 4v16l-4 15-7 16-8 17-10 17-3 3h-30l-7-1 16-28 6-13 4-13 1-6v-15l-4-9-4-5-16-10-9-5v-2l18-5z" fill="#000000"/>
<path transform="translate(642,1214)" d="m0 0h17l15 1 1 5-13 67-6 35-4 21-1 3h-32v-12l6-45 10-73z" fill="#000000"/>
<path transform="translate(1604,1192)" d="m0 0 25 1-4 24-6 28-2 2h-32l2-16 6-33 2-5z" fill="#000000"/>
<path transform="translate(415,1158)" d="m0 0h93l23 1 10 1v1l-42 2-77 2-113 6-9 1-4 6-16 42-6 16h-3l-6-11-7-7-15-10-21-11-24-10-28-10-21-7-26-7-3-2v-2h211zm-219 3-63 1 3 2 25 8 39 14 27 12 19 10 14 10 7 7 3 5 3 1 6-12 18-47 6-2 73-4 22-2 2-1v-2z" fill="#000000"/>
<path transform="translate(329,726)" d="m0 0h1l-1 14-11 69-10 60-6 37-3 15-2 3h-54l-39-1v-12l15-89 8-45-1-2-8 16-18 40-12 30-12 36-7 26-4 24v30l3 17 5 16 11 23 8 12 11 14 11 13 12 13 8 8 8 7 14 12 13 10 3 4-95 1h-32l-7-2 2-1 127 1-5-5-13-11-8-7-10-9-19-19-20-25-10-15-8-16-6-14-5-21-1-8v-25l3-21 5-23 9-28 9-26 6-14 8-19 11-24 11-23 4-2 1 1-1 14-12 70-8 47-2 13v5h90l4-20 9-58 6-32z" fill="#000000"/>
<path transform="translate(1434,1158)" d="m0 0h138l93 1h150l110-1v2l-11 4-3-1 2-1h-275v1l26 2v1h-18l-44-3-169-1-9-1-1-2z" fill="#000000"/>
<path transform="translate(613,727)" d="m0 0h93l1 1-1 14-11 67-8 50-7 43-18 106-12 76-6 40-2 4h-75l-8-1v-10l17-131 9-68h1v9l-7 56-6 45-7 55-6 43h79l2-1 9-59 6-36 12-74 7-39 6-39 7-40 10-63 5-27 3-19h-65l-28-1z" fill="#000000"/>
<path transform="translate(1930,851)" d="m0 0h8v1l-64 12-25 4-2 1 4 4 12 9 12 11 7 7 9 11 9 16 5 16 1 9-1 2-84 1-6 4-9 11-11 14-10 17-7 16-3 11-1 10v11l2 15 5 16 5 12 8 14 14 18 10 1h149v2l-2 1-156-1-8-7-9-12-10-17-6-15-4-16-1-20 2-17 5-15 10-19 10-14 9-11 6-7 7-4 83-1-4-19-8-17-11-14-15-15-13-10-9-7v-3l31-6z" fill="#000000"/>
<path transform="translate(1422,727)" d="m0 0h97v1h-95l-4 35-4 31-11 89-6 49-3 23-6 47-8 64-7 60 171-1-1 2-4 1-168-1v-9l10-85 11-87 19-150 8-66z" fill="#000000"/>
<path transform="translate(888,1193)" d="m0 0 14 1 17 3 2 1-3 21-9 49-6 34h-1l1-12 8-47 7-37 1-7-17-2-12-1-1 2-4 37-6 48-2 22-2 4h-2l-2-6-2-27-3-61v-6h-51l-5 58-7 69v8h25l4-18 11-69h1l-1 15-11 67-3 7-1 1h-18l-8-1-1-1v-10l6-65 5-54 1-7 3-2h49l2 1 1 5 3 59 2 29 1 2 1-3 4-39 8-65z" fill="#000000"/>
<path transform="translate(567,1193)" d="m0 0h39l1 1-1 20-6 56-8 69-2 7-7 1-27-1v-30h-11l-9 1-4 15-3 11h-1l1-9 4-16 4-4h20l1 1v15l-1 15h32l9-82 7-68-37 1-2 12v13l-4 58-2 16-1 1h-17l-1-5 11-46 9-32 2-4h-37l-13 65h-1l1-11 10-53 2-4h39l1-11zm-4 23-3 5-17 68v5l3 1h10l3-2 2-21 3-40v-16z" fill="#000000"/>
<path transform="translate(1270,1191)" d="m0 0h9l8 7 3 4-1 2-9-10-4-1-25 4-14 2-2 2 13 11 10 11 5 13 2 11v16l-2 17-5 20-8 21-6 14-5 1-2-3 1-4 1 5h3l3-10 7-16 6-19 3-16 1-9v-18l-4-16-4-7-2 2-2 5-1-3 1-4-33 1-2 5-9 16-7 19-3 14-1 16 2 14 5 17 7 17 2 2 54 1v1l-30 1h-20l-6-2-5-8-8-22-3-14v-22l3-15 7-19 8-16 7-9h33l-7-8-14-12v-2l14-3z" fill="#000000"/>
<path transform="translate(1670,866)" d="m0 0h93l3 2-94 1-7 58-7 63-10 86-5 37-1 12h80v2h-82v-12l4-34 7-58 10-89 7-62z" fill="#000000"/>
<path transform="translate(1395,1191)" d="m0 0h6l5 3-1 2-3-2h-7l-35 6v3l11 9 10 13 4 8 3 16v12l-3 22-6 21-10 24-4 8-4 1-1-4 3 1 9-20 6-17 5-22 1-9v-22l-3-12-4-8h-2l-2 2v-3l-31 1-7 11-4 7-8 24-3 12v26l4 15 7 20 3 5 7 1 43 1v1h-45l-7-2-7-14-7-23-1-6v-25l5-19 8-19 7-14 5-5h31l-5-6v-2l-4-2-10-9 1-3 15-3z" fill="#000000"/>
<path transform="translate(120,1159)" d="m0 0h237l-1 2-54 1h-106l-60 1 25 8 39 14 27 12 19 10 14 10 8 8 2 5h3l6-14 6-15 1 3-12 32h-3l-6-11-7-7-15-10-21-11-24-10-28-10-21-7-26-7-3-2z" fill="#000000"/>
<path transform="translate(360,893)" d="m0 0h62l1 3-6 17-12 36-7 30-3 20-1 12v38l4 33 6 26v3l3-1 10-25 10-27 2 1-6 17-5 14-5 12-5 11-5-1-3-9-5-23-4-26-1-13v-25l3-25 5-25 9-33 7-20 7-18-76 1-5 2-4 7-2-1 6-9 1-1z" fill="#000000"/>
<path transform="translate(717,943)" d="m0 0h1v10l-7 52-3 27v29l4 18 6 16 9 16 11 13 2 1h99l73-1 3-13 10-60 4-20h1l-1 12-10 57-4 24-2 3-112 1h-60l-6-4-8-9-9-15-6-14-4-13-2-11v-33l8-64z" fill="#000000"/>
<path transform="translate(1009,866)" d="m0 0 95 1v6h-1v-5h-95l-1 12-5 48-3 23-3 27-5 38-5 42-3 22-4 45h79l2-2v4l-2 1-81-1v-11l7-65 11-88 8-68 3-25 1-3z" fill="#000000"/>
<path transform="translate(499,849)" d="m0 0 7 6 12 16 10 17 8 19 4 16 2 17v17l-3 24-7 28-8 24-10 24-16 33-14 27-6 9-3 2h-28l-113-1-1-2h143l9-16 15-28 11-23 10-25 9-27 6-24 3-19v-29l-2-14-5-17-7-16-10-16-12-16-4-4z" fill="#000000"/>
<path transform="translate(772,1158)" d="m0 0h116l19 1 8 1v1l-15 1-39 1h-73l-26-1-12-1 3-2z" fill="#000000"/>
<path transform="translate(1096,921)" d="m0 0 11 1 13 5 8 7 5 9 2 9-1 16-6 35-12 72-4 25-3 26 78-1 2-5 1 4-1 3-2 1h-79l-1-1v-9l5-34 18-112 1-6v-20l-5-10-7-6-9-4-14-3-3 16h-1l1-13z" fill="#000000"/>
<path transform="translate(1498,871)" d="m0 0 5 2 11 12 10 16 6 15 4 16 1 7v22l-2 13-5 20-9 24-12 25-8 14-10 16-20 30-7 10h-4v-12l5-28h1l-1 11-4 26 5-5 12-17 13-20 14-24 13-26 9-25 5-19 2-16v-15l-2-15-4-15-8-16-10-14-11-11z" fill="#000000"/>
<path transform="translate(1224,922)" d="m0 0h9l15 5 8 6 6 7 2 5v22l-4 27-10 61-9 54-2 16h79l2-2-1 4-1 1h-36l-45-1v-10l21-128 3-23v-20l-3-7-4-5-14-7-15-3-1 25-1 8h-1l1-33z" fill="#000000"/>
<path transform="translate(585,918)" d="m0 0h1v9l-7 56-6 45-7 55-6 43h79l2-1 9-59 2-11 2-1-2 17-8 53-2 4h-75l-8-1v-10l17-131z" fill="#000000"/>
<path transform="translate(1913,1158)" d="m0 0h12v2l-11 4-3-1 2-1h-275v-2l177-1z" fill="#000000"/>
<path transform="translate(642,1214)" d="m0 0h17l15 1 1 5-13 67-6 35-4 21-1 3h-32v-12l6-45 10-73zm-5 3-1 2-11 81-3 18-2 17v10h30l2-8 5-30 9-49 7-36v-5z" fill="#000000"/>
<path transform="translate(488,842)" d="m0 0 5 1v1l-27 3-68 10-12 1v2l5 2 14 9 10 8 10 10 11 16 7 14 5 17 2 19-2 29-6 30-3 11-2 1 4-19 5-29 1-11v-17l-3-19-4-12-8-16-9-12-9-10-13-10-19-11v-2l7-2 89-13z" fill="#000000"/>
<path transform="translate(1550,1206)" d="m0 0h26l12 1-1 2h-36l-4 5-8 16-4 14v12l5 13 14 17 5 9 1 10-5 10-12 14-9 9-7 6 29 1 1 2h-34l1-4 9-9 8-7 10-11 5-10v-10l-4-8-9-11-7-10-4-11v-14l5-15 8-16z" fill="#000000"/>
<path transform="translate(1036,1159)" d="m0 0h156l1 2-22 1h-109l-26-1z" fill="#000000"/>
<path transform="translate(1930,851)" d="m0 0h8v1l-64 12-25 4-2 1 4 4 12 9 12 11 7 7 9 11 9 16 5 16 1 9-1 2h-5v-2h3l-4-19-8-17-11-14-15-15-13-10-9-7v-3l31-6z" fill="#000000"/>
<path transform="translate(421,1197)" d="m0 0h83l1 3-4 27-2 4-19 1-5 27-10 56-2 10h-1v-7l9-50 5-27 2-9 2-2 18-1 4-30-81 1-2 8h-1l1-10z" fill="#000000"/>
<path transform="translate(605,1203)" d="m0 0h1v11l-6 56-8 69-2 7-7 1-27-1v-30h-11l-9 1-4 15-3 11h-1l1-9 4-16 4-4h20l1 1v15l-1 15h32l9-82 6-59z" fill="#000000"/>
<path transform="translate(1722,753)" d="m0 0h12l10 2v1h-25l-14 4-9 7-7 8-4 9-2 8 1 12 6 12 7 8 10 6 9 3 8 1h9l13-2 10-4 4-3 2 1-5 4-8 4-13 3h-17l-9-2-12-6-8-7-6-10-3-9v-16l4-11 7-9 9-7 8-4z" fill="#000000"/>
<path transform="translate(1903,955)" d="m0 0 3 1 1 3-1 22-8 62-4 30-5 37-2 10-5 1v-3l2 1 2-10 5-37 12-94z" fill="#000000"/>
<path transform="translate(184,1035)" d="m0 0 4 4 10 14 11 13 7 8 9 10 9 9 8 7 14 12 13 10 3 4-95 1h-32l-7-2 2-1 127 1-5-5-13-11-8-7-10-9-19-19-20-25-8-12z" fill="#000000"/>
<path transform="translate(329,726)" d="m0 0h1l-1 14-11 69-10 60-6 37-1 5-2-1 1-10 9-58 6-32z" fill="#000000"/>
<path transform="translate(888,1193)" d="m0 0 14 1 17 3 2 1-3 21-9 49-6 34h-1l1-12 8-47 7-37 1-7-17-2-12-1-1 2-4 37-6 45-2 1 2-20 8-65z" fill="#000000"/>
<path transform="translate(360,893)" d="m0 0h62l1 3-6 17-12 36-7 30-2 12h-2l1-12 9-36 10-30 7-18-76 1-5 2-4 7-2-1 6-9 1-1z" fill="#000000"/>
<path transform="translate(197,1159)" d="m0 0h160l-1 2-54 1h-81l-25-1z" fill="#000000"/>
<path transform="translate(1216,1224)" d="m0 0 1 2-9 15-8 20-4 17-1 16 2 14 5 17 7 17 2 2 54 1v1l-30 1h-20l-6-2-5-8-8-22-3-14v-22l3-15 7-19 8-16z" fill="#000000"/>
<path transform="translate(1461,1197)" d="m0 0h25l12 1v1l-37 1-2 10-6 50-6 44-4 29-1 13h-2l1-14 14-110 3-23z" fill="#000000"/>
<path transform="translate(696,1188)" d="m0 0 7 1 12 9 7 7 6 12 1 4v16l-4 15-7 16-1-3 6-14 4-18v-11l-4-11-9-10-8-7-5-3-9 1-30 6h-3l5 5 12 7 8 7 1 4-5-5-15-10-11-6v-2l18-5z" fill="#000000"/>
<path transform="translate(207,900)" d="m0 0 1 2-2 13v5h90l2-9 2-1-1 11-2 3h-54l-39-1v-12l2-10z" fill="#000000"/>
<path transform="translate(1651,1034)" d="m0 0h1l-1 17-5 39-3 23-1 12h80v2h-82v-12l4-34 6-46z" fill="#000000"/>
<path transform="translate(1128,1197)" d="m0 0h45l21 1-1 2-81-1-4 33 30-2h17v4l-19 5h-3v-2l15-4h3v-2l-28 2h-16l-1-4 3-28 2-3z" fill="#000000"/>
<path transform="translate(816,1207)" d="m0 0h49l2 1 1 5 3 59 2 29 1 2 1-3 2-19 2-1-2 25-2 4h-2l-2-6-2-27-3-61v-6h-52z" fill="#000000"/>
<path transform="translate(929,1031)" d="m0 0h1l-1 12-10 57-4 24-2 3h-76l2-2 73-1 3-13 10-60z" fill="#000000"/>
<path transform="translate(506,1069)" d="m0 0 1 3-16 32-12 21-4 3h-28l-113-1-1-2h143l9-16 15-28z" fill="#000000"/>
<path transform="translate(156,1170)" d="m0 0 13 4 31 11 27 12 19 10 14 10 8 8 2 5h3l6-14 6-15 1 3-12 32h-3l-6-11-7-7-15-10-21-11-24-10-42-15z" fill="#000000"/>
<path transform="translate(1277,861)" d="m0 0h17l12 3 12 5 13 9 8 8-1 2-9-9-11-7-8-4-9-3-15-2h-8l-8 8-7 8-15 15-7 8-13 15-5 1-2-3 1-3 3 4 15-16 11-12 8-8 7-8 6-7z" fill="#000000"/>
<path transform="translate(1604,1192)" d="m0 0 25 1-1 2-31 1-8 40-1 9h15l14-1 2-2-1 4-1 1h-32l2-16 6-33 2-5z" fill="#000000"/>
<path transform="translate(1664,1166)" d="m0 0h24l51 3 7 1 4 5 10 23 8 22 4 10 2 1-1 4h-2l-8-20-9-24-8-18-2-1-43-3-37-2z" fill="#000000"/>
<path transform="translate(991,1265)" d="m0 0h32l3 1-1 11h-1v-9h-31l-2 6-9 66-1 2-4-1v-3h3l8-65 2-7z" fill="#000000"/>
<path transform="translate(977,1196)" d="m0 0h57l-4 5-2-1 1-1-13-1-41 1-11 10-9 11-8 11-6 10-4 9-3 3 2-6 8-16 9-13 13-15 8-6z" fill="#000000"/>
<path transform="translate(226,770)" d="m0 0 3 1-1 14-12 70-7 42-2 4-1-2 16-94 5-28-1-2-5 9h-2l2-6z" fill="#000000"/>
<path transform="translate(219,784)" d="m0 0 1 3-17 37-14 34-7 20-2-1 3-11 7-19 5-12 11-25 11-24z" fill="#000000"/>
<path transform="translate(1504,1044)" d="m0 0 1 2-6 11-10 16-20 30-7 10h-4v-12l5-28h1l-1 11-4 26 5-5 12-17 13-20 13-22z" fill="#000000"/>
<path transform="translate(1820,953)" d="m0 0h80v1l-79 1-6 4-9 11-11 14-8 13-3 1 2-6 12-17 9-11 6-7z" fill="#000000"/>
<path transform="translate(1661,946)" d="m0 0h1v9l-9 78-3 2 2-22 7-62z" fill="#000000"/>
<path transform="translate(1557,1297)" d="m0 0 3 2-1 9-6 10-15 16-11 10 29 1 1 2h-34l1-4 9-9 8-7 10-11 5-10z" fill="#000000"/>
<path transform="translate(1242,1086)" d="m0 0h2l-1 10-4 29h79l2-2-1 4-1 1h-36l-45-1v-10z" fill="#000000"/>
<path transform="translate(398,1163)" d="m0 0m-12 1h12v2l-89 5-9 1-4 6-9 23-1-3 10-26 2-2 5-1 73-4z" fill="#000000"/>
<path transform="translate(1109,1110)" d="m0 0 1 4-1 12 78-1 2-5 1 4-1 3-2 1h-79l-1-1v-9l1-7z" fill="#000000"/>
<path transform="translate(1913,1158)" d="m0 0h12v2l-11 4-3-1 2-1-37-1-61-1v-1z" fill="#000000"/>
<path transform="translate(360,893)" d="m0 0h62v4l-1-2-76 1-5 2-4 7-2-1 6-9 1-1z" fill="#000000"/>
<path transform="translate(525,1206)" d="m0 0h37l-1 2-35 1-13 65h-1l1-11 10-53z" fill="#000000"/>
<path transform="translate(1146,862)" d="m0 0 2 1-17 17-7 8-17 17-6 7-4-1 1-14 4-22h1l-1 12-3 22 7-6 16-16 7-8z" fill="#000000"/>
<path transform="translate(1498,871)" d="m0 0 5 2 11 12 10 16 6 15 3 11v5l-2 1-4-17-7-16-9-13-9-10-5-5z" fill="#000000"/>
<path transform="translate(1224,922)" d="m0 0h9l15 5 8 6 6 7 2 5-1 13h-1l-2-16-6-8-14-7-15-3-1 25-1 8h-1l1-33z" fill="#000000"/>
<path transform="translate(888,1193)" d="m0 0h5l1 2-4 1-1 2-4 37-6 45-2 1 2-20 8-65z" fill="#000000"/>
<path transform="translate(1722,753)" d="m0 0h12l10 2v1h-25l-14 4-9 7-7 8-4 9-3 14h-1v-11l4-11 7-9 9-7 8-4z" fill="#000000"/>
<path transform="translate(1410,820)" d="m0 0h2l-1 14-6 49-2 8h-1v-9z" fill="#000000"/>
<path transform="translate(506,1069)" d="m0 0 1 3-16 32-12 21-4 3h-13v-2l14-1 9-16 15-28z" fill="#000000"/>
<path transform="translate(978,1117)" d="m0 0h1v8h79l2-2v4l-2 1-81-1v-9z" fill="#000000"/>
<path transform="translate(1096,921)" d="m0 0 11 1 13 5 8 7 5 9 1 9-2-1-3-10-4-6-8-6-11-4-10-2-3 16h-1l1-13z" fill="#000000"/>
<path transform="translate(1526,990)" d="m0 0h2l-1 6-7 20-13 27-3 1 2-6 12-25z" fill="#000000"/>
<path transform="translate(1641,1116)" d="m0 0h1v9h80v2h-82v-10z" fill="#000000"/>
<path transform="translate(1385,1018)" d="m0 0h2l-1 17-5 38-2 4-1-2z" fill="#000000"/>
<path transform="translate(1258,1289)" d="m0 0h2l-1 8-7 19-8 19-5 1-2-3 1-4 1 5h3l3-10 7-16z" fill="#000000"/>
<path transform="translate(567,1193)" d="m0 0h39l1 1v8l-2 1v-8l-37 1-1 7-3 2 1-10z" fill="#000000"/>
<path transform="translate(971,1199)" d="m0 0m-1 1v3l-13 14-10 14-6 10-4 9-3 3 2-6 8-16 9-13 13-15z" fill="#000000"/>
<path transform="translate(1216,1224)" d="m0 0 1 2-9 15-8 20-3 11-3 2 4-16 8-20 7-12z" fill="#000000"/>
<path transform="translate(199,828)" d="m0 0 1 3-12 30-6 17-2-1 3-11 7-19 5-12z" fill="#000000"/>
<path transform="translate(672,1284)" d="m0 0 1 2-7 13-1 4h33l-1 2h-30l-7-1 8-14z" fill="#000000"/>
<path transform="translate(991,1265)" d="m0 0h32l3 1-1 11h-1v-9h-31l-2 6-3 1 1-8z" fill="#000000"/>
<path transform="translate(556,1235)" d="m0 0 1 3-11 42-2 9h-2l2-11 10-40z" fill="#000000"/>
<path transform="translate(1270,1191)" d="m0 0h9l8 7 3 4-1 2-9-10-4-1-25 4h-6l-1-2z" fill="#000000"/>
<path transform="translate(1670,866)" d="m0 0h45v1l-43 2-1 7-3 1 1-10z" fill="#000000"/>
<path transform="translate(1890,1081)" d="m0 0h2l-1 16-3 20-2 4-5-1 1-2 2 1 2-10z" fill="#000000"/>
<path transform="translate(1401,891)" d="m0 0h2l-1 17-3 24-3 1z" fill="#000000"/>
<path transform="translate(1263,1247)" d="m0 0h2v16l-2 17-2 9h-2l1-10 2-15z" fill="#000000"/>
<path transform="translate(180,877)" d="m0 0 1 4-8 26-3 12-2-1 1-8 9-30z" fill="#000000"/>
<path transform="translate(878,1280)" d="m0 0 1 3-2 22-2 4h-2l-2-6-1-17h2l1 15 1 2 1-3 2-19z" fill="#000000"/>
<path transform="translate(1550,1206)" d="m0 0h26l12 1-1 2h-36l-5 4v-3z" fill="#000000"/>
<path transform="translate(285,1201)" d="m0 0 1 3-12 32h-3l-4-9 3 1v2h3l6-14z" fill="#000000"/>
<path transform="translate(1646,1076)" d="m0 0h1l-1 14-3 23-2 4-1-2 4-34z" fill="#000000"/>
<path transform="translate(1903,955)" d="m0 0 3 1 1 3-1 22-1 7-3 1 1-11z" fill="#000000"/>
<path transform="translate(1604,1192)" d="m0 0 25 1-1 2-31 1-3 1 1-4z" fill="#000000"/>
<path transform="translate(660,1196)" d="m0 0 4 1-5 1 5 5 12 7 8 7 1 4-5-5-15-10-11-6v-2z" fill="#000000"/>
<path transform="translate(319,1168)" d="m0 0m-16 1h16v1l-19 2-4 6-9 23-1-3 10-26 2-2z" fill="#000000"/>
<path transform="translate(1463,1073)" d="m0 0h1l-1 11-4 26 7-6v3l-4 6h-4v-12z" fill="#000000"/>
<path transform="translate(1903,988)" d="m0 0h1l-1 17-2 15-3 1 3-26z" fill="#000000"/>
<path transform="translate(560,1272)" d="m0 0h2l-1 19-2 5h-17l-1-5 2-2v5h13l2-1z" fill="#000000"/>
<path transform="translate(888,1193)" d="m0 0h5l1 2-4 1-1 2-3 30-2 2v-9l3-25z" fill="#000000"/>
<path transform="translate(1245,894)" d="m0 0h2l-2 4-7 7-9 11-2 2-5-1-1-5 4 4 15-16z" fill="#000000"/>
<path transform="translate(1374,1309)" d="m0 0h2l-1 5-4 9-5 12-2 2h-3l-1-4 3 1 9-20z" fill="#000000"/>
<path transform="translate(1525,1344)" d="m0 0 31 1 1 2h-33z" fill="#000000"/>
<path transform="translate(1504,1044)" d="m0 0 1 2-6 11-10 16h-2l2-5 13-22z" fill="#000000"/>
<path transform="translate(1899,1020)" d="m0 0h1v8l-3 20h-2v-8l3-19z" fill="#000000"/>
<path transform="translate(1515,1020)" d="m0 0h2l-1 5-10 19h-2l2-6z" fill="#000000"/>
<path transform="translate(1654,1007)" d="m0 0h1l-1 17-1 9-3 2 2-22z" fill="#000000"/>
<path transform="translate(605,1203)" d="m0 0h1v11l-2 17-2 2v-10l2-19z" fill="#000000"/>
<path transform="translate(1641,1116)" d="m0 0h1v9h18l1 2h-21v-10z" fill="#000000"/>
<path transform="translate(1762,1210)" d="m0 0h2l8 20 2 1-1 4h-2l-8-20z" fill="#000000"/>
<path transform="translate(1533,962)" d="m0 0h1v8l-5 20h-2l2-11 3-16z" fill="#000000"/>
<path transform="translate(226,770)" d="m0 0 3 1-1 14-2 4 1-14-3 3-3 6h-2l2-6z" fill="#000000"/>
<path transform="translate(1664,922)" d="m0 0h1l-1 16-1 7-3 2 1-13 2-11z" fill="#000000"/>
<path transform="translate(1540,1272)" d="m0 0 4 2 11 14 4 7-1 3-3-5-6-9-9-11z" fill="#000000"/>
<path transform="translate(1785,997)" d="m0 0 1 2-8 18-1 3h-2l1-7 7-14z" fill="#000000"/>
<path transform="translate(1249,1318)" d="m0 0 1 3-6 14-5 1-2-3 1-4 1 5h3l3-10z" fill="#000000"/>
<path transform="translate(1774,1020)" d="m0 0h2l-2 18-1 11-2-3 1-18z" fill="#000000"/>
<path transform="translate(1533,1245)" d="m0 0h1l1 11 5 13 1 3h-2l-6-12-1-4v-10z" fill="#000000"/>
<path transform="translate(1151,1230)" d="m0 0 5 1-1 3-19 5h-3v-2l15-4h3z" fill="#000000"/>
<path transform="translate(1382,1050)" d="m0 0h1v9l-3 17-2 1 3-26z" fill="#000000"/>
<path transform="translate(303,887)" d="m0 0h2l-4 24-2-1 1-10 2-12z" fill="#000000"/>
<path transform="translate(1201,1250)" d="m0 0h2l-1 5-5 17-3 2 4-16z" fill="#000000"/>
<path transform="translate(1772,1049)" d="m0 0h2l2 15 1 8h-2l-3-12z" fill="#000000"/>
<path transform="translate(1268,871)" d="m0 0v3l-20 20-2-1 18-18z" fill="#000000"/>
<path transform="translate(207,810)" d="m0 0 1 3-7 16-2-1 1-5 6-12z" fill="#000000"/>
<path transform="translate(1132,951)" d="m0 0 3 1-1 16-3 1z" fill="#000000"/>
<path transform="translate(1395,1191)" d="m0 0h6l5 3-1 2-3-2h-7l-10 1-1-2z" fill="#000000"/>
<path transform="translate(1687,775)" d="m0 0v3l-4 14-1 6h-1v-11l4-11z" fill="#000000"/>
<path transform="translate(1016,1196)" d="m0 0h18l-4 5-2-1 1-1-13-1z" fill="#000000"/>
<path transform="translate(180,877)" d="m0 0 1 4-5 16h-2l1-7 4-12z" fill="#000000"/>
<path transform="translate(1546,1212)" d="m0 0 1 2-7 14-3 1 3-9 3-6z" fill="#000000"/>
<path transform="translate(1132,968)" d="m0 0h1v7l-2 10-3 1 3-17z" fill="#000000"/>
<path transform="translate(199,828)" d="m0 0 1 3-7 17-2-2 6-15z" fill="#000000"/>
<path transform="translate(645,1106)" d="m0 0h1l-1 11-2 10-4 1 2-3 3-18z" fill="#000000"/>
<path transform="translate(1669,876)" d="m0 0h1l-1 16-3 3 2-18z" fill="#000000"/>
<path transform="translate(1651,1034)" d="m0 0h1l-1 17-3 2 2-18z" fill="#000000"/>
<path transform="translate(1816,955)" d="m0 0m-1 1v3l-7 8-4 2 2-4 7-8z" fill="#000000"/>
<path transform="translate(1224,922)" d="m0 0h9l8 3-1 2-16-3z" fill="#000000"/>
<path transform="translate(1890,1081)" d="m0 0h2l-1 16-3 1z" fill="#000000"/>
<path transform="translate(1557,1297)" d="m0 0 3 2-1 9-3 3-1-2z" fill="#000000"/>
<path transform="translate(1903,955)" d="m0 0 3 1 1 3v8l-3 2z" fill="#000000"/>
<path transform="translate(1893,1064)" d="m0 0h1v9l-1 8h-2v-9l1-7z" fill="#000000"/>
<path transform="translate(1901 1e3)" d="m0 0h1l-1 15-3 1 2-15z" fill="#000000"/>
<path transform="translate(1388 1e3)" d="m0 0h1v10l-1 6h-2v-9z" fill="#000000"/>
<path transform="translate(989,1274)" d="m0 0h1v8l-1 7-3 1 2-15z" fill="#000000"/>
<path transform="translate(1390,987)" d="m0 0h1l-1 15-3 1 2-15z" fill="#000000"/>
<path transform="translate(191,847)" d="m0 0 1 4-4 10h-2l1-6z" fill="#000000"/>
<path transform="translate(494,1197)" d="m0 0h10l1 3-1 8-2-1v-9h-8z" fill="#000000"/>
<path transform="translate(1403,875)" d="m0 0h2v8l-2 8h-1v-9z" fill="#000000"/>
<path transform="translate(1897,1034)" d="m0 0h1v9l-1 5h-2v-8z" fill="#000000"/>
<path transform="translate(971,1199)" d="m0 0m-1 1v3l-6 6h-2l2-4z" fill="#000000"/>
<path transform="translate(1522,1006)" d="m0 0 1 2-5 12h-2l3-10z" fill="#000000"/>
<path transform="translate(1395,948)" d="m0 0h1l-1 13-3 2 2-14z" fill="#000000"/>
<path transform="translate(1321,1266)" d="m0 0 1 4-2 8-3 1 2-11z" fill="#000000"/>
<path transform="translate(1466,1104)" d="m0 0v3l-4 6h-4v-3l4-2z" fill="#000000"/>
<path transform="translate(389,856)" d="m0 0 2 1-5 1v2l4 2-1 2-7-4v-2z" fill="#000000"/>
<path transform="translate(982,1329)" d="m0 0 1 3-2 10-4-1v-3h3l1-8z" fill="#000000"/>
<path transform="translate(1377,1194)" d="m0 0h8v2l-13 1 1-2z" fill="#000000"/>
<path transform="translate(1806,967)" d="m0 0v3l-6 7-3 1 2-4 5-5z" fill="#000000"/>
<path transform="translate(1473,1094)" d="m0 0v3l-5 7h-2l2-5z" fill="#000000"/>
<path transform="translate(1106,903)" d="m0 0 2 1-7 8-4-1 5-4z" fill="#000000"/>
<path transform="translate(1245,894)" d="m0 0h2l-2 4-7 7-2-1z" fill="#000000"/>
<path transform="translate(603,1160)" d="m0 0h18v1h-18z" fill="#000000"/>
</svg>
