<?xml version="1.0" encoding="UTF-8"?>
<svg version="1.1" viewBox="0 0 2048 580" width="1920" height="544" xmlns="http://www.w3.org/2000/svg">
<path transform="translate(307,69)" d="m0 0 7 1 18 11 22 14 16 12 19 14 13 11 8 7 10 11 24-3h26l25 3 6-5 7-8 11-10 28-22 24-16 21-13 11-6h5l-5 5-8 7-14 11-4 4 9-1 14-10 4-3h5l-6 9-9 13 6 1 1 4-4 11v10l4 5-2 10-1 3 1 7 4 2-1 4-10 21-7 12v2l3 2-2 6-3 6 12 16 9 15 8 18 6 19 3 17 1 14v11l-2 19-4 18-8 23-12 23-12 16-9 10-10 10-18 13-14 8-15 7-15 5-20 4-25 2-21-1-25-5-12-4-20-9-16-10-13-10-17-17-14-19-10-18-10-25-4-16-2-19v-21l3-23 6-21 8-18 9-15 12-16-1-5-3-6v-2h6l-8-14-9-16-4-8v-2l7-2-1-7-4-11v-2l9 2 3 1-3-9-9-21v-2l6 2 14 9-2-3-11-14-8-9-6-8 1-2 6 3 13 11 10 8 10 2 7 2-14-11-11-9-14-11-9-8zm49 41m-31 9m1 1 4 4 4 1-5-5z" fill="#04080C"/>
<path transform="translate(333,210)" d="m0 0 4 5 9 13 10 10 14 9 12 5 13 3 2 21-4 8-6 5-16 8-7 8-8 16-5 7-11 5-10 4-9 7-5 8-4 10-1 9 6-11 10-10 32-16 6-5 4-9 4-11 4-5 9-4 8-4 8-8 2 2v6l-5 6-6 5-5 10-3 21-3 6-9 8-18 5-8 3-5 5-4 8v27l-4 6-3 2 6-1 5-3 3-6 1-10v-13l6-7 6-3 12-2-3 5-2 8 1 10 3 13v11l-3 6-5 6 9-6 5-6 1-3v-15l-2-5v-8l2-3h2l2 11 6 9 7 11 9 9 4 6 10 7 8 7 10 3 13 6 11-2 5 1h9l7-4 13-5 8-8 9-6 4-7 8-6 9-14 4-6 3-12 3 2v9l-2 9v8l3 8 5 6 5 3h4l-8-8-2-5 1-9 2-7 1-8v-9l-3-9v-3l9 2 6 2 7 5 2 5v21l3 6 8 4h3l-6-5-2-5 1-11 1-4v-7l-3-9-8-7-13-4-11-3-9-7-4-6-2-6-2-20-6-8-9-9v-10l7 6 8 6 9 4 7 6 3 7 3 9 4 6 9 6 19 8 12 8 7 7 5 11-1-9-7-16-4-5-12-6-13-5-5-5-6-10-6-11-7-8-16-7-5-5-4-9 2-19 8-3 15-5 16-10 9-9 10-13 3-6 5 5 11 15 9 16 8 20 4 13 3 17 1 14v11l-2 19-4 18-8 23-12 23-12 16-9 10-10 10-18 13-14 8-15 7-15 5-20 4-25 2-21-1-25-5-12-4-20-9-16-10-13-10-17-17-14-19-10-18-10-25-4-16-2-19v-21l3-23 6-21 8-18 9-15 12-16z" fill="#0473B8"/>
<path transform="translate(1385,227)" d="m0 0h120l14 2 14 5 9 7 6 8 4 8 2 7 1 13v12l-3 14-6 10-9 8-3 2 10 5 7 8 3 9 1 22 9 2 1 2-9 29-3 10-2 2h-60l-4-4-1-58-2-7-5-4-5-2-11-1 1 36 9 25 4 11-1 4h-90l-3-3 4-17 5-19v-96l-1-13-9-31-1-4zm79 41-1 1v34l9 1 9-3 4-4 1-4v-15l-3-6-8-4z" fill="#06548B"/>
<path transform="translate(1565,227)" d="m0 0h93l17 1 14 3 16 7 11 8 8 8 7 10 6 13 4 18 2 23-1 22-3 17-4 12-7 13-11 12-11 7-12 6-13 4-5 1h-113l-1-1v-7l7-24 2-11v-101l-6-23-4-13 1-4zm82 40-7 2v101h15l9-3 4-4 1-37v-42l-2-10-5-4-12-3z" fill="#06548B"/>
<path transform="translate(1104,223)" d="m0 0h31l20 4 14 6 12 9 11 12 7 10-1 9-6 23-1 1h-55l-1-18-3-7-6-3h-10l-6 3-3 5v86l5 5 4 2h9l8-5 2-5 1-6-7-2-1-1-1-33 1-3h87l1 3-8 31-2 3-11 3-4 15-7 25-3 9-10 5-17 5-14 2h-30l-18-3-15-5-15-8-12-11-9-12-6-14-4-17-2-13v-31l5-25 5-12 7-11 9-10 12-9 15-7 15-4z" fill="#06548B"/>
<path transform="translate(742,227)" d="m0 0h84l13 47 21 76 5 16 10 2 1 3-12 40-2 1h-80l1-8 9-29 1-8-2-10-1-1h-30v17l10 36-1 3h-91l-1-1 1-9 9-32 5-2 8-2 12-42 14-48 13-46zm34 57-3 10-5 26 1 5h13l2-1-3-24-2-15z" fill="#06548B"/>
<path transform="translate(1250,227)" d="m0 0h85l3 9 8 29 7 26 14 50 6 23v3l13 1 1 2-4 11-9 29-2 2h-79l-1-3 6-23 4-13v-9l-1-8h-30l-1 8v9l10 34v5l-84 1-7-1-1-5 4-17 4-13 2-7 4-2 8-1 3-10 7-23 12-46 10-34 7-26zm36 57-2 6-3 17-2 8-1 9 3 1h11l2-2-5-34-1-5z" fill="#07548B"/>
<path transform="translate(942,222)" d="m0 0h15l26 3 17 4 17 7 4 3-4 16-7 24-3 4h-32l-5-8-7-3h-10l-6 2 2 7 8 4 33 12 17 9 10 9 7 10 3 9 2 9v25l-5 14-7 11-4 5-11 8-14 6-20 4h-36l-23-4-26-7-6-3 1-11 11-36 2-3 6-1h21l10 1 2 1 2 9 6 3h10l6-3v-6l-5-4-16-6-23-8-15-8-12-11-7-12-4-13v-25l5-16 6-9 5-5 8-6 11-5 14-4z" fill="#06548B"/>
<path transform="translate(333,210)" d="m0 0 4 5 9 13 10 10 14 9 12 5 13 3 2 21-4 8-6 5-16 8-7 8-8 16-5 7-4 2-12 3-11 6-8 9-5 11-1 4-1 17-2-1-7-18-4-16-2-19v-21l3-23 6-21 8-18 9-15 12-16z" fill="#0372B8"/>
<path transform="translate(308,83)" d="m0 0 7 3 13 11 10 8 10 2 7 2-1-2 4 2 14 11 12 11 8 7 10 11 3 5 1 4v11l-3 10-6 8-8 8-5 10v9l3 7 7 8 4 4-2 18-5 1-12-4-17-9-12-11-8-9-7-11 1-2 7 1 8 2-6-8-7-7-11-14-3-5 1-4 11 6 7 4-4-8-8-11-6-11 1-4 15 9 4 2-1-5-13-21-4-7v-2h-2l-1-6h2v-2h-2l1-2 11 6-11-13-7-8-10-13zm48 27m-31 9m1 1 4 4 4 1-5-5z" fill="#FBFCFB"/>
<path transform="translate(586,86)" d="m0 0 2 1-11 10 9-1 11-8 2 1-13 12-8 7-9 10-7 8-10 13-5 9 5-3 15-12 13-10 7-5h3l-1 5-12 19-9 16 10-4 8-6h3l-1 5-8 14-7 10-1 4 11-6 6-4h2l-1 5-8 11-13 15-5 6 8-1 8-3 1 2-7 11-8 10-7 7-12 9-17 7-4 1h-7l-1-5v-14l10-10 2-6v-13l-5-8-9-10-5-7-2-7v-12l4-9 7-8 15-15 8-7 13-11 16-12z" fill="#FCFCFC"/>
<path transform="translate(514,335)" d="m0 0h2l11 25 2 7v17l-3 5-6-1-15-10-7-6 1 2 9 12 7 7 3 4-1 6-3 3-4-2-14-17-11-13-3-4 11 21 10 16 2 5-1 5-5-1-7-10-11-21-5-8 10 29 6 16-1 6-3 2-6-1-12-41-3-10 5 41 2 10-1 6-3 2h-5l-2-2-1-5-4-50-6 55-3 3-5-1-2-2v-11l5-37 1-9-7 24-7 25-2 3-7-1-2-4 4-13 9-25 4-11v-2l-13 24-10 18-4 2-3-2 1-6 9-16 8-14 6-12-12 14-11 14-8 10-5-3-2-4 4-6 7-7 10-14v-3l8-4 4-5 5-12 3-5 9-3h22l11 3 6 16 4 5 6 4h8l8-3 7-8 1-4-7-1-4-5 1-6z" fill="#F8F9F9"/>
<path transform="translate(456,254)" d="m0 0 6 2 11 7 10-1 4-1h13l8 4 2 4-3 2-7-4-4-1h-8l-7 3-1 2 8-2 10 1 7 4 2 6-2 6 2 2-1 13-3 5-3 3-1 4 8-5h3l2 8v12l-5 8-6 5-7-1 1 6 5 7 4 2 7 1v3l-8 3-7-1-5-3-5-7-3-10-13-9-8-4-6 2-4-2-13 7-7 6-5 13-7 7h-13l-3-2v-2l11-4 4-5 3-8-7 1-7-4-3-3-2-6v-12l2-7h4l10 5-2-3 4 2 2 5h7l12-11h2l2-6 4-5 15-1 5 3-1-4 1-4 12 2 11-7 3-5 1-3-21-1-6 1-8 2v9l-9 1-3-6-9-6-2-1h-24l2 9 6 3 1 2h-11l-5-1 1-5-1-1v-8l8-5 3-1h11l4 1-6-3-4-1h-8l-8 5-3-1 1-5 8-4h14l7 2h6l13-8z" fill="#DDDEDE"/>
<path transform="translate(444,147)" d="m0 0h26l25 3h3l-4 5-1 3v16l3 8 9 10 7 8 3 6-2 8h-3l-9-11-10-8-16-8-7-4h-21l-16 8-11 6-10 10-6 8-3-3-1-8 8-10 7-7 6-10 1-2v-16l-4-8 1-2 5 1z" fill="#0371B6"/>
<path transform="translate(464,295)" d="m0 0 9 5-2 1v2h-2l4 5 8 7 6 7 1 4-4-4-7-8-8-6-3 6-6 5-7-1-2-4-3-1-1-6-6 4-8 8-4 6 1 1 10-5h11l7 3 6-3h14l4 3 3 1 3 5 5 7-1 6h2l3 6 5 5 9 2v3l-8 3-7-1-5-3-5-7-3-10-13-9-8-4-6 2-4-2-13 7-7 6-5 13-7 7h-13l-3-2v-2l11-4 4-5 3-8-7 1-7-4-3-3-2-6v-12l2-7h4l10 5-2-3 4 2 2 5h7l12-11h2l2-6 4-5z" fill="#F9F9F9"/>
<path transform="translate(422,275)" d="m0 0h17l10 6 3 3 2 4h8l-1-7 3-3 9-3 25 1-3 8-8 6-5 3-6-1-6-2 1 7 1 2-6-2-2-1-14 1-5 8-5 5-10 9h-7l-2-2v-2l-2-3-5-3-5-6-1-2v-12l2-1 3 1h10l-6-3-2-3v-7z" fill="#DEDFDE"/>
<path transform="translate(456,254)" d="m0 0 6 2 11 7 10-1 4-1h13l8 4 2 4-3 2-7-4-4-1h-8l-7 3-1 2 8-2 10 1 7 4-1 2-4-2-6 1h-16l-16 4v9l-9 1-3-6-9-6-2-1h-24l2 9 6 3 1 2h-11l-5-1 1-5-1-1v-8l8-5 3-1h11l4 1-6-3-4-1h-8l-8 5-3-1 1-5 8-4h14l7 2h6l13-8z" fill="#FAFBFA"/>
<path transform="translate(442,192)" d="m0 0 3 1 3 24v15l-26 5-16 6h-2l1-10 3-10 6-12 7-7 13-8z" fill="#DFE0DF"/>
<path transform="translate(470,193)" d="m0 0 9 2 13 8 7 6 6 10 3 6 3 15v3l-9-3-13-4-20-3-3-1 2-25z" fill="#FBFBFB"/>
<path transform="translate(511,287)" d="m0 0 7 6 8 6 9 4 7 6 3 7 3 9 4 6 9 6 12 5 1 3-12 3-4 6-1 1h-7l-8-3-8-6-4-6-2-6-2-20-6-8-9-9z" fill="#DFDFDF"/>
<path transform="translate(402,288)" d="m0 0 2 2v6l-5 6-6 5-5 10-3 21-3 6-9 8-7 2v-2l-4-1-1-2-12-1-7-3-1-2 17-8 7-6 4-9 4-11 4-5 9-4 8-4z" fill="#DFE0DF"/>
<path transform="translate(604,83)" d="m0 0h5l-6 9-9 13 6 1 1 4-4 11v10l4 5-2 10-1 3 1 7 4 2-1 4-6 12-1-3 5-10-5 3-9 7-4 1 1-5 9-15 7-15-9 6-7 6h-3l1-5 6-10 12-25-8 4-8 7-5 6-20 15-8 7h-3l2-5 7-11 11-12 9-11 8-8 11-9 7-8z" fill="#DFE0DF"/>
<path transform="translate(376,376)" d="m0 0h2l2 11 6 9 7 11 9 9 4 6 10 7 8 7 10 3 4 5-6-1-14-7-15-6-13-3-16-1-16 1v-3l11-7 6-7 1-3v-15l-2-5v-8z" fill="#F8F8F8"/>
<path transform="translate(537,376)" d="m0 0 3 2v9l-2 9v8l3 8 5 6 11 6 1 2-34 1-15 4-25 11-3 1v-3l12-6 7-7 9-6 4-7 8-6 9-14 4-6z" fill="#FBFBFB"/>
<path transform="translate(596,109)" d="m0 0h3l-3 9-11 22-4 6-1 3 7-4 8-7 4-1-3 9-8 15-5 8-1 3 8-5 9-7 2 1-5 10-2 8-9 16v2l3 2-2 6-2 2 1-5 1-2-8 3 1 2-10 4h-6l3-5 11-12 8-10 5-8 1-3-13 8-6 2 1-5 10-16 6-12-7 4-10 6h-4l2-5 9-16 10-16 1-3-6 3-2-1 9-8z" fill="#021C2E"/>
<path transform="translate(315,108)" d="m0 0 6 2 3 2v3h2v2h-2l1 6h2l11 19 8 13-1 4-11-6-8-5 1 5 9 15 7 10v3l-6-2-10-6-2-1-2 2v-4h2l-7-7h-4l-1-4 7-2-1-7-4-11v-2l9 2 3 1-3-9-9-21z" fill="#152E3E"/>
<path transform="translate(398,335)" d="m0 0h3l6 9-1 5-5 4h-5l1 5 6 7 7 3 7 2-5 5-11 9-8 5-5-1-2-4-1-13 3-12 5-12 4-8z" fill="#DFE0DF"/>
<path transform="translate(448,239)" d="m0 0h18l26 5 16 6 4 2v7l-21-7-19-4-7-1h-19l-19 4-15 4-7 3h-3l1-6 8-4 21-6z" fill="#F7F7F7"/>
<path transform="translate(514,335)" d="m0 0h2l11 25 2 7v17l-3 5-6-1-8-5v-2l-9-7-3-5 11-4 7-8 1-4-7-1-4-5 1-6z" fill="#DEDFDE"/>
<path transform="translate(374,425)" d="m0 0 16 1 16 4 17 7 9 5 5 5 8 7 3 4-5-2-16-8-16-7-18-5-27-5-14-2 3-2z" fill="#02080D"/>
<path transform="translate(524,426)" d="m0 0h25l12 1v1l-35 7-22 6-16 7-17 9-3-1 11-11 5-4 25-11z" fill="#02060B"/>
<path transform="translate(604,83)" d="m0 0h5l-3 5-8 7-7 9-10 11-4 5v2l5-1-4 5-20 15-8 7h-3l2-5 7-11 11-12 9-11 8-8 11-9 7-8z" fill="#0A1C29"/>
<path transform="translate(311,87)" d="m0 0 4 1 14 12 12 12 7 8 8 9 7 9 4 6v4l-5-2-13-11-11-8v-2h3l-2-6-4-1-14-17-7-8-3-4z" fill="#0F1C26"/>
<path transform="translate(308,83)" d="m0 0 7 3 13 11 8 7 9 11 10 10 8 10 6 10v6l-5-1-11-9-12-9-7-5-2-4-5-2 7 10 9 16 5 8 1 5-4 1-16-8 7 12 4 6-1 2-8-11-6-11 1-4 15 9 4 2-1-5-13-21-4-7v-2h-2l-1-6h2v-2h-2l1-2 10 6h4l2 3v3h-3l5 5 9 7 13 10 2 1-3-7-6-8-8-10-9-9-7-8-8-8-11-9-5-1z" fill="#DEDFDE"/>
<path transform="translate(464,295)" d="m0 0 9 5-2 1v2h-2l4 5 8 7 6 7 1 4-4-4-7-8-8-6-3 6-6 5-7-1-2-4-3-1-1-6-5 1 2-1 2-6 4-5z" fill="#FAFAFA"/>
<path transform="translate(422,275)" d="m0 0h17l10 6 3 3-1 5-5 8h-3l1-5h-4l-8 1-9-6-7-9v-2z" fill="#02060B"/>
<path transform="translate(445,307)" d="m0 0h2l2 6 6 5 7-1 4-4 2-6 7 4 9 9 4 7v2l-3-1v-3l-5-1-2-2h-14l-7 3-6-3h-11l-12 6 1-5 11-12z" fill="#162027"/>
<path transform="translate(476,275)" d="m0 0 22 1-3 8-8 6-5 3-6-1-6-2v7l-3-3-4-5v-5l6-5z" fill="#02080D"/>
<path transform="translate(597,88)" d="m0 0 2 1-13 12-8 7-9 10-7 8-10 13-5 9 5-3 15-12 13-10 7-5h3l-1 5-12 19-9 16 10-4 8-6h3l-1 5-8 14-4 6-1-2 9-16-1-1-13 7-4-1 1-6 10-17 9-14-4 2-11 9-11 8-11 9-4-1 1-6 9-14 16-17 7-8 11-11z" fill="#DEDFDE"/>
<path transform="translate(406,308)" d="m0 0 5 2 9 5-1 4-1 22-6-1-7-6-2-6v-12l2-7z" fill="#DFE0DF"/>
<path transform="translate(317,139)" d="m0 0 4 1 5 4 1 3h-2l4 10 14 21v3l-6-2-10-6-2-1-2 2v-4h2l-7-7h-4l-1-4 7-2-1-7-2-6z" fill="#082030"/>
<path transform="translate(599,160)" d="m0 0 2 1-5 10-2 8-9 16v2l3 2-2 6-2 2 1-5 1-2-8 3 1 2-10 4h-6l3-5 11-12 8-10 6-9 1-3h-3l2-4z" fill="#021A2B"/>
<path transform="translate(589,171)" d="m0 0h2l-1 5-8 11-13 15-5 6 8-1 8-3 1 2-7 11-8 10-7 7-12 9-17 7-4 1h-7l1-2 16-4 14-7 10-9 5-4 8-12 4-5-11 4-4-1-1-3 9-11 7-8 7-10-10 4-4-1-1-2 3-5 3-2-2 4-1 4 11-6z" fill="#DEDFDE"/>
<path transform="translate(419,269)" d="m0 0h11l20 8 4 4-1 3-4-2-10-6h-24l2 9 6 3 1 2h-11l-5-1 1-5-1-1v-8l8-5z" fill="#F8F8F8"/>
<path transform="translate(402,288)" d="m0 0 2 2v6l-5 6-6 5-5 10-2 15-2 1-1-18-2-9-6 2 2-4 9-4 8-4z" fill="#F6F6F6"/>
<path transform="translate(470,193)" d="m0 0 9 2 5 3-2 1-5-2-1 34-8-1v-23z" fill="#DEDFDE"/>
<path transform="translate(442,192)" d="m0 0h2v7l-1-2-9 2-11 7-3 3-1 4v18l-11 1-2 3 1-10 7-14 7-7 13-8z" fill="#FBFBFB"/>
<path transform="translate(308,83)" d="m0 0 7 3 13 11 8 7 9 11 10 10 8 10 6 10v6l-5-1-11-9-12-9-7-5-1-4 4 2 10 8 14 11 6 4-3-7-6-8-8-10-9-9-7-8-8-8-11-9-5-1z" fill="#DEDFDE"/>
<path transform="translate(514,335)" d="m0 0h2l11 25 2 7v10l-2-2-2-5v-7l-3-6-5 5-5 4 2-4 4-5 1-4-7-1-4-5 1-6z" fill="#F6F6F6"/>
<path transform="translate(537,376)" d="m0 0 3 2v9l-2 9v8l3 8 5 6 11 6 1 2-34 1-15 4-9 4-3-1 15-7 13-3 24-1-8-7-5-10v-13l1-7-4 8-6 8-1-2 7-10 3-10z" fill="#DEDFDE"/>
<path transform="translate(511,287)" d="m0 0 7 6 8 6 9 4 7 6v5l-3-4v-2l-4-2-3-1-4 4v6l-4-4-7-8-6-6z" fill="#F8F8F8"/>
<path transform="translate(604,88)" d="m0 0v3l-10 14 6 1 1 4-4 11h-2l-3 9-1 2h-2l2-6 8-17-8 4-11 9-4 1 1-4 10-11 11-14z" fill="#DEDFDE"/>
<path transform="translate(453,188)" d="m0 0h8l1 3-3 32-2 3-2-8-2-20z" fill="#F5F5F5"/>
<path transform="translate(500,273)" d="m0 0 6 3 1 4-2 6 2 2-1 10h-1l-1-9-14 1-4 1 5-5 4-3 2-6-14-1-5-1v-1h16z" fill="#DEDFDE"/>
<path transform="translate(348,357)" d="m0 0 3 1-8 5-5 10v27l-4 6-3 2 6-1 5-3 3-6 1-10v-13l6-7 3-2 3 1-8 7-2 3v19l-4 9-5 4-6 2h-5v-4l6-5 2-3v-9l-1-5v-8l3-10 5-7z" fill="#06538A"/>
<path transform="translate(374,412)" d="m0 0v3l-8 7-4 1v2l5-1h19l15 3 17 7 1-2 5 4 10 3 4 5-6-1-14-7-15-6-13-3-16-1-16 1v-3l11-7z" fill="#DEDFDE"/>
<path transform="translate(398,335)" d="m0 0h3l6 9-1 5-5 4h-5l-4 2-2 2 1-5 6-13z" fill="#F7F7F7"/>
<path transform="translate(570,361)" d="m0 0 4 2 4 5 2 6v11l-1 4v10l5 6 4 3-1 3-9-1-8-6-2-3v-27l2 3v21l3 6 8 4h3l-6-5-2-5 1-11 1-4v-7l-3-9z" fill="#06538A"/>
<path transform="translate(320,150)" d="m0 0 3 4 9 15v3l-6-2-8-7h-4l-1-4 7-2z" fill="#D6DBDC"/>
<path transform="translate(341,330)" d="m0 0 4 1-15 6-9 7-5 8-4 10-1 9 6-11 5-4-2 4-6 10-3 10h-2v-17l4-11 6-9 8-7 11-5z" fill="#06538A"/>
<path transform="translate(452,347)" d="m0 0h10l7 3 1 3-8 1h-13l-4-2 1-3z" fill="#020A10"/>
<path transform="translate(560,425)" d="m0 0 7 3-3 2-32 5-24 6-15 6-5 1 4-3 18-7 25-6 24-5z" fill="#06538A"/>
<path transform="translate(487,261)" d="m0 0h13l8 4 2 4-3 2-7-4-4-1h-10v-2l-8 1 1-2z" fill="#F0F0F0"/>
<path transform="translate(338,192)" d="m0 0 7 6 8 9v4h-7l-7-3 5 10 12 13 4 5-4-2-10-10-10-14-1-3 1-1 7 1 8 2-6-8-7-7z" fill="#DEDFDE"/>
<path transform="translate(595,147)" d="m0 0 1 3-6 11-3 6 8-7 4-3 4 1-1 4-6 12-1-3 5-10-5 3-9 7-4 1 1-5 9-15z" fill="#DEDFDE"/>
<path transform="translate(355,425)" d="m0 0v3l17 3 29 6 15 5 2 2-5-1-17-5-26-5-19-2-3-1 1-3z" fill="#06538A"/>
<path transform="translate(594,174)" d="m0 0 1 3-10 18v2l3 2-2 6-2 2 1-5 1-2-6 2h-5l3-5 7-8 8-13z" fill="#D5DADB"/>
<path transform="translate(324,171)" d="m0 0 12 6 7 4-3-6 1-2 5 6-1 4h-5l-10-6-2-1 7 11 3 3-1 2-8-9-5-8z" fill="#DEDFDE"/>
<path transform="translate(586,86)" d="m0 0 2 1-11 10-5 3-14 11-13 10-6 6-2-1 9-9 17-13 18-14z" fill="#DEDFDE"/>
<path transform="translate(592,340)" d="m0 0 4 2 4 6 6 16v15h-3l-3-12-3-6 1-2 6 12-1-9-7-16z" fill="#06538A"/>
<path transform="translate(435,271)" d="m0 0 15 6 4 4-1 3-4-2-10-6h-22l4-2 6-1h8z" fill="#DFE0DF"/>
<path transform="translate(324,128)" d="m0 0 3 4 7 13v3l-5-1-9-7-3-1-1 2-1-4 9 2 3 1-3-9z" fill="#D7DBDD"/>
<path transform="translate(596,147)" d="m0 0 3 4v5l2 1-8 6-6 5-1-2 9-16z" fill="#FDFDFD"/>
<path transform="translate(595,121)" d="m0 0h1l1 10 1 4-12 8 2-5z" fill="#FDFDFD"/>
<path transform="translate(324,113)" d="m0 0 11 6h4l2 3v3l-4 1-5-3-6-3-1 3-1-6h2v-2h-2z" fill="#4C93C0"/>
<path transform="translate(363,372)" d="m0 0h2v8l4 19v11l-3 6-4 4-1 3-4 1 2-4 7-8 1-9-4-22z" fill="#05538B"/>
<path transform="translate(308,83)" d="m0 0 7 3 13 11 8 7 6 7-1 2-15-15-11-9-5-1z" fill="#E2E3E2"/>
<path transform="translate(537,347)" d="m0 0 20 1-1 4-1 1-10-1-6-2-2-1z" fill="#FBFBFB"/>
<path transform="translate(502,281)" d="m0 0 1 3-1 2 4 1 1 1-1 10h-1l-1-9-14 1-4 1 3-3 8-3z" fill="#F8F9F8"/>
<path transform="translate(442,192)" d="m0 0h2v7l-1-2-9 2-11 7-8 7v-3l9-8 14-8z" fill="#F1F1F1"/>
<path transform="translate(448,180)" d="m0 0h17l7 2 5 5-5-2-4-2h-21l-5 2 1-3z" fill="#06538A"/>
<path transform="translate(414,261)" d="m0 0 4 1v2l-10 7-3-1 1-5z" fill="#E9EAE9"/>
<path transform="translate(436,255)" d="m0 0h10l-4 5-5 1-9-3 3-2z" fill="#E2E3E2"/>
<path transform="translate(597,88)" d="m0 0 2 1-13 12-8 7-4 4-2-1 17-17z" fill="#DFE0DF"/>
<path transform="translate(354,337)" d="m0 0h3l-1 7-1 1h-7l-4-2 6-2v-2z" fill="#F9F9F9"/>
<path transform="translate(468,255)" d="m0 0h11l6 2-2 2-3 1h-7z" fill="#E8E8E8"/>
<path transform="translate(452,417)" d="m0 0h1v10l-2 10-5 1-4-3v-11h1l1 9 5 1 2-8z" fill="#DEDFDE"/>
<path transform="translate(375,124)" d="m0 0 4 2 16 15 7 8-1 2-7-7-7-8-12-11z" fill="#DEDFDE"/>
<path transform="translate(547,396)" d="m0 0 1 4v10l7 8 4 4v2l-5-1v-3l-7-7-2-5 1-9z" fill="#05548B"/>
<path transform="translate(440,449)" d="m0 0 4 2 7 7v3l-6-2-13-7 3-1 12 6-7-7z" fill="#055187"/>
<path transform="translate(500,427)" d="m0 0 2 1-6 6 1 2-16 7v-3l12-6z" fill="#E2E3E2"/>
<path transform="translate(476,446)" d="m0 0 2 1-9 9 6-1-3 3-5 3-3-1 3-5z" fill="#06538A"/>
<path transform="translate(546,363)" d="m0 0 9 2 2 2-8 4-3-5z" fill="#DEDFDE"/>
<path transform="translate(558,340)" d="m0 0 8 1 4 2-2 2h-9z" fill="#FDFDFD"/>
<path transform="translate(1061,239)" d="m0 0 2 1-16 16-2-1 11-12z" fill="#2277AE"/>
<path transform="translate(444,275)" d="m0 0 6 2 4 4-1 3-4-2-6-4z" fill="#D8DCDD"/>
<path transform="translate(401,337)" d="m0 0 5 5 1 5-3 3-2-5z" fill="#DEDFDE"/>
<path transform="translate(472,424)" d="m0 0h1l1 9-4 4h-5l-2-2v-5l2 4 6-1z" fill="#DEDFDE"/>
<path transform="translate(380,389)" d="m0 0 4 4 7 11v3l-5-6-3-5-3-2z" fill="#DEDFDE"/>
<path transform="translate(495,369)" d="m0 0h5l6 7 7 5-2 1-8-6-5-4v-2l-3 1z" fill="#F0F1F0"/>
<path transform="translate(581,210)" d="m0 0 1 3-5 9-7 7v-3l8-10z" fill="#06538A"/>
<path transform="translate(332,193)" d="m0 0 5 5 2 4-11-1v-2h6z" fill="#DEDFDE"/>
<path transform="translate(472,292)" d="m0 0 9 1h5l-4 3h-9z" fill="#FDFDFD"/>
<path transform="translate(367,363)" d="m0 0 3 1-5 7-2-3-4-2z" fill="#DEDFDE"/>
<path transform="translate(456,254)" d="m0 0 6 2 3 3-12-1-1-2z" fill="#DEDFDE"/>
<path transform="translate(442,192)" d="m0 0h2v7l-1-2h-9l4-3z" fill="#F2F2F2"/>
<path transform="translate(526,366)" d="m0 0 3 1v10l-2-2-2-5z" fill="#F9F9F9"/>
<path transform="translate(532,302)" d="m0 0 5 2 5 5v5l-3-4v-2l-4-2-3-3z" fill="#EFF0EF"/>
<path transform="translate(410,273)" d="m0 0 2 1-1 9h-3v-8z" fill="#E7E8E7"/>
<path transform="translate(325,169)" d="m0 0 7 3 1-2v5l-6-2-2-1-2 2v-4z" fill="#0368A9"/>
<path transform="translate(586,86)" d="m0 0 2 1-11 10-3-1z" fill="#E2E3E2"/>
<path transform="translate(588,169)" d="m0 0 4 1-1 3v-2l-8 4v-2h-2l1-3v2z" fill="#035990"/>
<path transform="translate(591,141)" d="m0 0 2 1-4 4 2 3-2 2v-3l-5 2v-3z" fill="#024D7D"/>
<path transform="translate(328,116)" d="m0 0 5 2 6 1 1 4-5-1-7-5z" fill="#D5DADC"/>
</svg>
