<?xml version="1.0" encoding="UTF-8"?>
<svg version="1.1" viewBox="0 0 1800 900" width="1800" height="900" xmlns="http://www.w3.org/2000/svg">
<path transform="translate(1131,319)" d="m0 0h137l20 4 17 8 11 9 8 8 9 14 6 15 4 18 1 11v16l-2 16-5 17-8 15-7 9-4 5-11 9-14 8-16 6-11 2-38 1h-37v74l-1 1h-59l-1-8v-68l-59 1-2-3v-56l1-2h45l15 1v-130zm60 60-1 2 1 69 61-1 13-5 9-6 7-9 2-6 1-12-2-11-4-8-7-7-8-4-11-2z" fill="#FD6300"/>
<path transform="translate(622,308)" d="m0 0h15l19 2 21 6 16 7 16 10 12 11 8 8 4 6-1 3-12 9-14 11-17 13h-4l-10-10-14-10-12-6-15-4h-21l-11 3-8 4-8 7-4 9 2 8 7 8 12 6 19 4 45 6 16 5 14 7 9 7 10 10 8 13 5 12 3 17v10l-2 14-5 14-6 11-8 10-11 11-14 9-12 6-15 5-20 4-13 1h-13l-18-2-23-6-20-9-11-7-13-10-13-12-5-6 5-5 14-11 14-12 11-9 5-5 4 2 9 9 15 11 16 7 17 3h13l15-3 12-6 7-7 2-4v-9l-5-8-7-6-11-5-13-3-36-4-16-3-15-5-15-8-11-9-8-9-6-10-4-12-2-18 2-19 5-15 8-13 9-10 8-7 13-8 14-6 18-5 12-2z" fill="#FD6300"/>
<path transform="translate(264,277)" d="m0 0h9l66 22 41 14 57 19 4 2v60l-36-12-55-18-78-26-6-1-18 7-44 15-33 12-12 4v51l36 12 40 13 72 24 41 13 12 4v3l-43 15-45 16-6 1-52-18-36-12-35-12-36-12-10-4-1-1v-129l6-4 64-23 28-10 55-20z" fill="#FD6300"/>
<path transform="translate(267,366)" d="m0 0 7 1 150 51 15 5 2 2v130l-12 5-30 11-29 10-44 16-36 13-19 7-8-1-41-14-42-14-41-14-35-12-7-2-1-2v-58l6 1 72 24 43 14 30 10 20 7 5-1 37-13 29-10 38-13h2v-52l-46-15-38-13-43-14-61-20-13-4v-3l11-4 72-25z" fill="#FD6300"/>
<path transform="translate(1598,365)" d="m0 0h18l14 2 18 6 14 8 9 7 10 9 11 14 9 16 6 16 3 14 1 9v17l-3 19-5 16-8 16-10 14-7 8-11 9-14 9-15 6-16 4-11 1h-10l-15-2-14-4-17-8-11-8-12-11-11-14-6-10-7-17-4-17-1-7v-24l4-20 6-16 6-12 12-16 11-11 14-10 14-7 13-4zm-1 59-12 5-11 8-9 12-5 14-1 7v8l3 14 6 12 8 9 10 7 11 4 6 1h9l13-4 10-6 6-5 7-10 5-13 1-5v-17l-4-13-7-11-9-9-14-7-4-1z" fill="#FD6300"/>
<path transform="translate(746,374)" d="m0 0h54l1 1v119l2 11 4 8 4 5 9 6 9 3h17l12-6 8-11 3-8 1-8 1-120h51v146l-4 15-7 14-8 10-11 10-16 8-16 5-21 3h-18l-14-2-18-6-12-7-11-10-9-13-6-13-4-13-1-5z" fill="#FD6300"/>
<path transform="translate(1367,372)" d="m0 0 56 1v10l-1 11 21-9 12-3 11-1h23l2 2v57l-9-2-5-1h-10l-15 3-11 6-8 7-7 12-2 6-1 16v97l-1 1h-55l-1-7v-205z" fill="#FD6300"/>
<path transform="translate(948,373)" d="m0 0h56v16l-1 6 19-9 15-4 11-1h19l6 2v56l-3 1-12-3h-10l-14 3-10 5-9 8-7 11-3 10-1 110-1 1h-54l-1-1z" fill="#FD6300"/>
<path transform="translate(1655,297)" d="m0 0h13l8 4 5 5 4 9v9l-3 7-7 8-5 3-4 1h-9l-8-3-7-7-4-9v-9l5-10 7-6zm2 5-6 3-4 5-2 4v11l5 8 7 4h9l7-4 5-8v-11l-4-7-5-4-3-1z" fill="#FD6300"/>
<path transform="translate(1662,307)" d="m0 0 7 3 2 4v16l-5-1-4-6-3-1-1 8-2 1-3-3-1-13 2-5 3-2zm-2 3v9h3l1-1-1-7z" fill="#FD6300"/>
</svg>
