<?xml version="1.0" encoding="UTF-8"?>
<svg version="1.1" viewBox="0 0 2048 658" width="2048" height="611" preserveAspectRatio="xMidYMid meet" xmlns="http://www.w3.org/2000/svg">
<path transform="translate(1276,190)" d="m0 0h137l19 2 15 4 17 8 10 8 6 5 8 10 8 14 6 16 3 17 1 10v17l-3 21-5 16-8 16-7 10-9 10-12 9-15 8-16 5-15 2-77 1 1 7v73l-2 1h-64l-1-5v-75l-1-1-64-1-1-1v-64l2-1h64v-113l1-28zm71 66-8 1v75l1 1h54l16-2 12-5 6-4 8-9 4-11v-20l-4-10-7-8-10-5-8-2-13-1z" fill="#030303"/>
<path transform="translate(711,180)" d="m0 0h28l23 3 21 6 16 7 13 8 10 8 14 14 5 7-2 4-15 12-16 12-13 11-6 1-11-11-14-10-14-7-9-3-17-2-17 1-13 4-9 6-6 7-1 3v10l4 8 9 6 10 4 21 4 42 6 19 5 12 5 12 7 12 11 9 13 6 12 4 13 1 7v21l-3 14-6 16-7 11-12 14-14 11-16 9-16 6-18 4-8 1h-36l-19-3-18-5-16-7-15-8-14-10-13-12-8-8-1-4 14-12 10-8 11-9 13-11 4-3 5 1 10 10 13 10 16 8 15 4 7 1h15l15-3 14-7 6-5 4-8v-9l-4-8-9-7-14-6-22-4-28-3-21-4-19-7-14-8-13-12-8-10-5-11-4-15v-27l4-16 5-12 7-11 15-15 14-9 12-6 19-6 15-3z" fill="#040404"/>
<path transform="translate(331,243)" d="m0 0h8l48 16 41 14 93 31 2 1v143l-8 4-43 15-47 17-62 22-22 8-8 1-29-10-42-14-41-14-72-24-2-1v-64l9 1 67 23 51 17 37 12 20 7h8l35-12 43-15 36-13 1-14v-43l-9-2-188-62-21-7-2-2 30-11 37-13z" fill="#060606"/>
<path transform="translate(331,145)" d="m0 0h7l36 12 131 44 17 6 1 1v64l-9-2-47-16-42-14-41-14-47-15-7 1-43 15-55 19-17 6-1 55 10 3 47 16 116 38 41 13 7 3-1 2-58 21-36 13-6 1-37-12-41-14-51-17-43-14-14-5-1-1v-116l1-27 9-4 30-10 53-19 45-16z" fill="#050505"/>
<path transform="translate(1780,241)" d="m0 0h16l14 2 17 5 17 8 11 8 10 9 8 8 9 13 8 16 4 10 4 18 1 8v29l-5 25-6 16-8 15-10 13-10 10-15 11-16 8-19 5-6 1h-26l-16-3-19-7-14-8-14-12-9-10-11-18-7-17-5-20-1-7v-32l5-24 6-16 8-15 9-12 14-14 15-10 15-7 19-5zm2 64-10 3-9 5-10 9-7 11-4 11-1 4v24l4 13 7 11 7 7 14 8 13 3h12l12-3 11-6 11-11 6-10 4-14v-19l-3-12-7-13-8-9-11-7-10-4-5-1z" fill="#050505"/>
<path transform="translate(858,249)" d="m0 0h54l2 1 1 134 3 12 6 10 7 6 11 5 5 1h13l12-4 8-6 6-10 3-10 1-12 1-126 1-1h53l1 1v156l-3 16-7 16-7 10-7 8-12 9-16 8-17 5-14 2h-25l-19-3-17-6-14-8-10-9-7-8-8-14-5-15-2-12v-155z" fill="#050505"/>
<path transform="translate(1533,249)" d="m0 0h58l1 1v23l16-8 16-5 11-2h21l7 2 1 1 1 19v42l-7-1-17-2-14 2-10 4-9 7-8 9-6 13-2 15v110l-1 1h-58l-1-1v-229z" fill="#060606"/>
<path transform="translate(1077,249)" d="m0 0h58l1 1v23l11-6 12-5 18-4h27l6 3v61l-17-2h-15l-12 3-11 6-7 6-7 11-4 10-1 6v117l-3 1h-53l-4-2v-188z" fill="#040404"/>
<path transform="translate(1837,167)" d="m0 0 10 1 9 5 6 8 2 6v10l-3 8-5 6-8 4-3 1h-10l-9-4-6-5-4-9v-12l4-9 7-7zm-2 6-6 3-6 7-2 6v7l4 8 6 5 6 2 9-1 6-4 5-6 1-4v-8l-5-10-7-5z" fill="#000000"/>
<path transform="translate(1833,179)" d="m0 0h11l6 3 1 6-3 5 2 6 2 4-4 1-6-7-1-2-5-1v8l-5 1-1-1v-17l1-5zm4 5-1 5 1 1 7-1 2-3-2-2z" fill="#000000"/>
</svg>
