<svg width="56" height="25" viewBox="0 0 56 25" fill="none" xmlns="http://www.w3.org/2000/svg">
<g transform="translate(-1.6970 -4.7348) scale(1.060606)">
<g transform="translate(-480 -256)">

<path fill-rule="evenodd" clip-rule="evenodd" d="M506.448 276.883V272.05H508.943C509.965 272.05 510.828 271.707 511.531 271.032L511.7 270.861C512.985 269.462 512.9 267.283 511.531 265.989C510.846 265.304 509.909 264.933 508.943 264.952H504.938V276.883H506.448ZM506.448 270.585V266.417H508.981C509.525 266.417 510.04 266.626 510.425 267.007C511.241 267.806 511.26 269.138 510.472 269.966C510.087 270.375 509.543 270.604 508.981 270.585H506.448Z" fill="black" />

<path fill-rule="evenodd" clip-rule="evenodd" d="M518.743 269.357C518.096 268.758 517.215 268.453 516.099 268.453C514.664 268.453 513.585 268.986 512.872 270.042L514.204 270.889C514.692 270.166 515.358 269.804 516.202 269.804C516.736 269.804 517.252 270.004 517.655 270.366C518.049 270.708 518.274 271.203 518.274 271.726V272.078C517.693 271.755 516.961 271.584 516.061 271.584C515.011 271.584 514.167 271.831 513.538 272.335C512.91 272.84 512.591 273.506 512.591 274.352C512.572 275.123 512.9 275.856 513.482 276.351C514.073 276.883 514.823 277.15 515.705 277.15C516.746 277.15 517.571 276.684 518.199 275.751H518.265V276.883H519.709V271.85C519.709 270.794 519.39 269.957 518.743 269.357ZM514.645 275.38C514.336 275.152 514.148 274.781 514.148 274.381C514.148 273.934 514.354 273.563 514.758 273.268C515.17 272.973 515.686 272.821 516.296 272.821C517.14 272.811 517.797 273.001 518.266 273.382C518.266 274.029 518.013 274.59 517.515 275.066C517.065 275.523 516.455 275.78 515.818 275.78C515.396 275.789 514.983 275.646 514.645 275.38Z" fill="black" />

<path d="M522.954 280.47L528 268.72H526.359L524.023 274.581H523.995L521.604 268.72H519.963L523.273 276.36L521.397 280.47H522.954Z" fill="black" />

<path d="M501.235 271.003C501.235 270.537 501.198 270.071 501.123 269.614H494.755V272.25H498.403C498.253 273.097 497.765 273.858 497.052 274.333V276.046H499.228C500.504 274.857 501.235 273.097 501.235 271.003Z" fill="#4285F4" />

<path d="M494.755 277.702C496.574 277.702 498.112 277.093 499.228 276.046L497.052 274.333C496.443 274.752 495.665 274.99 494.755 274.99C492.992 274.99 491.501 273.782 490.966 272.164H488.725V273.934C489.869 276.246 492.204 277.702 494.755 277.702Z" fill="#34A853" />

<path d="M490.966 272.164C490.685 271.317 490.685 270.394 490.966 269.538V267.778H488.725C487.758 269.709 487.758 271.993 488.725 273.924L490.966 272.164Z" fill="#FBBC04" />

<path d="M494.755 266.712C495.721 266.693 496.649 267.064 497.343 267.74L499.275 265.78C498.047 264.619 496.434 263.981 494.755 264C492.204 264 489.869 265.466 488.725 267.778L490.966 269.548C491.501 267.921 492.992 266.712 494.755 266.712Z" fill="#EA4335" />

</g>
</g>
</svg>
